M48
; DRILL file {KiCad 6.0.2+dfsg-1} date Sat 06 Jul 2024 16:30:40
; FORMAT={2:4/ absolute / inch / suppress leading zeros}
; #@! TF.CreationDate,2024-07-06T16:30:40+10:00
; #@! TF.GenerationSoftware,Kicad,Pcbnew,6.0.2+dfsg-1
; #@! TF.FileFunction,Plated,1,4,PTH
FMAT,2
INCH,TZ
; #@! TA.AperFunction,Plated,PTH,ViaDrill
T1C0.0157
; #@! TA.AperFunction,Plated,PTH,ComponentDrill
T2C0.0394
%
G90
G05
T1
X36417Y-19685
X36417Y-20669
X36417Y-21654
X36417Y-22638
X36417Y-23622
X36417Y-24606
X36417Y-25591
X36417Y-30512
X36417Y-31496
X36417Y-32480
X36417Y-33465
X36417Y-34449
X36417Y-35433
X36417Y-36417
X36417Y-37402
X36417Y-38386
X36417Y-39370
X36417Y-40354
X36417Y-41339
X36417Y-42323
X36614Y-26575
X36713Y-29232
X37402Y-19685
X37402Y-20669
X37402Y-21654
X37402Y-22638
X37402Y-23622
X37402Y-24606
X37402Y-25591
X37402Y-30512
X37402Y-31496
X37402Y-32480
X37402Y-33465
X37402Y-34449
X37402Y-35433
X37402Y-36417
X37402Y-37402
X37402Y-38386
X37402Y-39370
X37402Y-40354
X37402Y-41339
X37402Y-42323
X38386Y-19685
X38386Y-20669
X38386Y-42323
X39370Y-19685
X39370Y-20669
X39370Y-42323
X40354Y-19685
X40354Y-21654
X40354Y-22638
X40354Y-23622
X40354Y-26181
X40354Y-32480
X40354Y-33465
X40354Y-37402
X40354Y-38386
X40354Y-39370
X40354Y-40354
X40354Y-41339
X40354Y-42323
X40846Y-24213
X40846Y-27362
X40846Y-30118
X41339Y-20669
X41339Y-21654
X41339Y-22638
X41339Y-23622
X41339Y-27264
X41339Y-33465
X41339Y-37402
X41339Y-38386
X41339Y-39370
X41339Y-40354
X41339Y-41339
X41339Y-42323
X41376Y-25140
X41929Y-29921
X41929Y-32677
X42114Y-25268
X42323Y-20669
X42323Y-33465
X42323Y-37402
X42323Y-38386
X42323Y-39370
X42323Y-40354
X42323Y-41339
X42323Y-42323
X42520Y-24530
X43307Y-23622
X43307Y-24606
X43307Y-27559
X43307Y-33465
X43307Y-35433
X43307Y-38386
X43307Y-39370
X43307Y-40354
X43307Y-41339
X43307Y-42323
X43504Y-25215
X43504Y-26378
X44291Y-22638
X44291Y-23622
X44291Y-24606
X44291Y-27559
X44291Y-33465
X44291Y-35433
X44291Y-39370
X44291Y-40354
X44291Y-41339
X44291Y-42323
X45276Y-24606
X45276Y-26181
X45276Y-33465
X45276Y-35433
X45276Y-39370
X45276Y-40354
X45276Y-41339
X45276Y-42323
X45374Y-30610
X46244Y-23882
X46260Y-24606
X46260Y-33465
X46260Y-35433
X46260Y-39370
X46260Y-40354
X46260Y-41339
X46260Y-42323
X46949Y-27854
X47244Y-24606
X47244Y-33465
X47244Y-35433
X47244Y-41339
X47244Y-42323
X47319Y-23689
X47858Y-22594
X48031Y-27854
X48228Y-33465
X48228Y-35433
X48228Y-42323
X48819Y-36614
X48949Y-23854
X49213Y-25591
X49213Y-33465
X49213Y-35433
X49213Y-42323
X50000Y-38780
X50197Y-25591
X50197Y-33465
X50197Y-35433
X50197Y-42323
X51181Y-32480
X51181Y-33465
X51181Y-34449
X51181Y-42323
X52165Y-31496
X52165Y-32480
X52165Y-33465
X52165Y-34449
X52165Y-42323
X52854Y-22933
X53150Y-31496
X53150Y-32480
X53150Y-33465
X53150Y-34449
X53150Y-42323
X54134Y-31004
X54134Y-31496
X54134Y-32480
X54134Y-33465
X54134Y-34449
X54134Y-39370
X54134Y-42323
X55118Y-24606
X55118Y-25591
X55118Y-27559
X55118Y-28543
X55118Y-31693
X55118Y-32480
X55118Y-33465
X55118Y-34449
X55118Y-35433
X55118Y-39370
X55118Y-42323
X55512Y-29528
X55512Y-31693
X55607Y-21260
X55610Y-23425
X55906Y-29528
X55906Y-31693
X56102Y-24606
X56102Y-25591
X56102Y-27559
X56102Y-28543
X56102Y-32480
X56102Y-33465
X56102Y-34449
X56102Y-35433
X56102Y-36417
X56102Y-39370
X56102Y-41339
X56102Y-42323
X56299Y-29528
X56299Y-31693
X56693Y-29528
X56693Y-31693
X57087Y-27559
X57087Y-28543
X57087Y-29528
X57087Y-31693
X57087Y-32480
X57087Y-33465
X57087Y-34449
X57087Y-35433
X57087Y-36417
X57087Y-41339
X57087Y-42323
X57480Y-29528
X57480Y-31693
X57874Y-29528
X57874Y-31693
X58071Y-19685
X58071Y-20669
X58071Y-21654
X58071Y-22638
X58071Y-23622
X58071Y-24606
X58071Y-25591
X58071Y-26575
X58071Y-27559
X58071Y-28543
X58071Y-28937
X58071Y-32480
X58071Y-33465
X58071Y-34449
X58071Y-35433
X58071Y-36417
X58071Y-37402
X58071Y-38386
X58071Y-39370
X58071Y-41339
X58071Y-42323
X58268Y-29528
X58268Y-31693
X58661Y-28937
X58760Y-32382
X59055Y-19685
X59055Y-20669
X59055Y-21654
X59055Y-22638
X59055Y-23622
X59055Y-24606
X59055Y-25591
X59055Y-26575
X59055Y-27559
X59055Y-33465
X59055Y-34449
X59055Y-35433
X59055Y-36417
X59055Y-37402
X59055Y-38386
X59055Y-39370
X59055Y-41339
X59055Y-42323
X60039Y-19685
X60039Y-20669
X60039Y-21654
X60039Y-22638
X60039Y-23622
X60039Y-24606
X60039Y-25591
X60039Y-26575
X60039Y-27559
X60039Y-33465
X60039Y-34449
X60039Y-35433
X60039Y-36417
X60039Y-41339
X60039Y-42323
T2
X38474Y-21994
X38474Y-22994
X38474Y-23994
X38474Y-24994
X38474Y-25994
X38474Y-26994
X38474Y-27994
X38474Y-28994
X38474Y-29994
X38474Y-30994
X38474Y-31994
X38474Y-32994
X38474Y-33994
X38474Y-34994
X38474Y-35994
X38474Y-36994
X38474Y-37994
X38474Y-38994
X38474Y-39994
X38474Y-40994
X39474Y-21994
X39474Y-22994
X39474Y-23994
X39474Y-24994
X39474Y-25994
X39474Y-26994
X39474Y-27994
X39474Y-28994
X39474Y-29994
X39474Y-30994
X39474Y-31994
X39474Y-32994
X39474Y-33994
X39474Y-34994
X39474Y-35994
X39474Y-36994
X39474Y-37994
X39474Y-38994
X39474Y-39994
X39474Y-40994
T0
M30
