%TF.GenerationSoftware,KiCad,Pcbnew,6.0.2+dfsg-1*%
%TF.CreationDate,2024-07-06T16:30:26+10:00*%
%TF.ProjectId,ulx3s_mixer,756c7833-735f-46d6-9978-65722e6b6963,rev?*%
%TF.SameCoordinates,Original*%
%TF.FileFunction,Other,Comment*%
%FSLAX46Y46*%
G04 Gerber Fmt 4.6, Leading zero omitted, Abs format (unit mm)*
G04 Created by KiCad (PCBNEW 6.0.2+dfsg-1) date 2024-07-06 16:30:26*
%MOMM*%
%LPD*%
G01*
G04 APERTURE LIST*
%ADD10C,0.100000*%
%ADD11C,0.300000*%
%ADD12C,0.150000*%
G04 APERTURE END LIST*
D10*
X28240000Y-128450000D02*
X28240000Y-185660000D01*
X28240000Y-177530000D02*
X150897143Y-177530000D01*
X85325715Y-128450000D02*
X85325715Y-185660000D01*
X105054286Y-128450000D02*
X105054286Y-185660000D01*
X134240000Y-128450000D02*
X134240000Y-185660000D01*
X28240000Y-145010000D02*
X150897143Y-145010000D01*
X28240000Y-165335000D02*
X150897143Y-165335000D01*
X28240000Y-153140000D02*
X150897143Y-153140000D01*
X28240000Y-128450000D02*
X150897143Y-128450000D01*
X43554286Y-128450000D02*
X43554286Y-185660000D01*
X28240000Y-140945000D02*
X150897143Y-140945000D01*
X28240000Y-157205000D02*
X150897143Y-157205000D01*
X28240000Y-132815000D02*
X150897143Y-132815000D01*
X28240000Y-149075000D02*
X150897143Y-149075000D01*
X28240000Y-169400000D02*
X150897143Y-169400000D01*
X28240000Y-161270000D02*
X150897143Y-161270000D01*
X68725715Y-128450000D02*
X68725715Y-185660000D01*
X121654286Y-128450000D02*
X121654286Y-185660000D01*
X28240000Y-136880000D02*
X150897143Y-136880000D01*
X28240000Y-173465000D02*
X150897143Y-173465000D01*
X28240000Y-181595000D02*
X150897143Y-181595000D01*
X28240000Y-185660000D02*
X150897143Y-185660000D01*
X150897143Y-128450000D02*
X150897143Y-185660000D01*
X86783572Y-137558571D02*
X86926429Y-137558571D01*
X87069286Y-137630000D01*
X87140715Y-137701428D01*
X87212143Y-137844285D01*
X87283572Y-138130000D01*
X87283572Y-138487142D01*
X87212143Y-138772857D01*
X87140715Y-138915714D01*
X87069286Y-138987142D01*
X86926429Y-139058571D01*
X86783572Y-139058571D01*
X86640715Y-138987142D01*
X86569286Y-138915714D01*
X86497857Y-138772857D01*
X86426429Y-138487142D01*
X86426429Y-138130000D01*
X86497857Y-137844285D01*
X86569286Y-137701428D01*
X86640715Y-137630000D01*
X86783572Y-137558571D01*
X89069286Y-139058571D02*
X89069286Y-138058571D01*
X89069286Y-138201428D02*
X89140715Y-138130000D01*
X89283572Y-138058571D01*
X89497857Y-138058571D01*
X89640715Y-138130000D01*
X89712143Y-138272857D01*
X89712143Y-139058571D01*
X89712143Y-138272857D02*
X89783572Y-138130000D01*
X89926429Y-138058571D01*
X90140715Y-138058571D01*
X90283572Y-138130000D01*
X90355000Y-138272857D01*
X90355000Y-139058571D01*
X91069286Y-139058571D02*
X91069286Y-138058571D01*
X91069286Y-138201428D02*
X91140715Y-138130000D01*
X91283572Y-138058571D01*
X91497857Y-138058571D01*
X91640715Y-138130000D01*
X91712143Y-138272857D01*
X91712143Y-139058571D01*
X91712143Y-138272857D02*
X91783572Y-138130000D01*
X91926429Y-138058571D01*
X92140715Y-138058571D01*
X92283572Y-138130000D01*
X92355000Y-138272857D01*
X92355000Y-139058571D01*
X86783572Y-182273571D02*
X86926429Y-182273571D01*
X87069286Y-182345000D01*
X87140715Y-182416428D01*
X87212143Y-182559285D01*
X87283572Y-182845000D01*
X87283572Y-183202142D01*
X87212143Y-183487857D01*
X87140715Y-183630714D01*
X87069286Y-183702142D01*
X86926429Y-183773571D01*
X86783572Y-183773571D01*
X86640715Y-183702142D01*
X86569286Y-183630714D01*
X86497857Y-183487857D01*
X86426429Y-183202142D01*
X86426429Y-182845000D01*
X86497857Y-182559285D01*
X86569286Y-182416428D01*
X86640715Y-182345000D01*
X86783572Y-182273571D01*
X89069286Y-183773571D02*
X89069286Y-182773571D01*
X89069286Y-182916428D02*
X89140715Y-182845000D01*
X89283572Y-182773571D01*
X89497857Y-182773571D01*
X89640715Y-182845000D01*
X89712143Y-182987857D01*
X89712143Y-183773571D01*
X89712143Y-182987857D02*
X89783572Y-182845000D01*
X89926429Y-182773571D01*
X90140715Y-182773571D01*
X90283572Y-182845000D01*
X90355000Y-182987857D01*
X90355000Y-183773571D01*
X91069286Y-183773571D02*
X91069286Y-182773571D01*
X91069286Y-182916428D02*
X91140715Y-182845000D01*
X91283572Y-182773571D01*
X91497857Y-182773571D01*
X91640715Y-182845000D01*
X91712143Y-182987857D01*
X91712143Y-183773571D01*
X91712143Y-182987857D02*
X91783572Y-182845000D01*
X91926429Y-182773571D01*
X92140715Y-182773571D01*
X92283572Y-182845000D01*
X92355000Y-182987857D01*
X92355000Y-183773571D01*
X44512143Y-133493571D02*
X45369286Y-133493571D01*
X44940714Y-134993571D02*
X44940714Y-133493571D01*
X46083571Y-134993571D02*
X45940714Y-134922142D01*
X45869286Y-134850714D01*
X45797857Y-134707857D01*
X45797857Y-134279285D01*
X45869286Y-134136428D01*
X45940714Y-134065000D01*
X46083571Y-133993571D01*
X46297857Y-133993571D01*
X46440714Y-134065000D01*
X46512143Y-134136428D01*
X46583571Y-134279285D01*
X46583571Y-134707857D01*
X46512143Y-134850714D01*
X46440714Y-134922142D01*
X46297857Y-134993571D01*
X46083571Y-134993571D01*
X47226428Y-133993571D02*
X47226428Y-135493571D01*
X47226428Y-134065000D02*
X47369286Y-133993571D01*
X47655000Y-133993571D01*
X47797857Y-134065000D01*
X47869286Y-134136428D01*
X47940714Y-134279285D01*
X47940714Y-134707857D01*
X47869286Y-134850714D01*
X47797857Y-134922142D01*
X47655000Y-134993571D01*
X47369286Y-134993571D01*
X47226428Y-134922142D01*
X49655000Y-134922142D02*
X49869286Y-134993571D01*
X50226428Y-134993571D01*
X50369286Y-134922142D01*
X50440714Y-134850714D01*
X50512143Y-134707857D01*
X50512143Y-134565000D01*
X50440714Y-134422142D01*
X50369286Y-134350714D01*
X50226428Y-134279285D01*
X49940714Y-134207857D01*
X49797857Y-134136428D01*
X49726428Y-134065000D01*
X49655000Y-133922142D01*
X49655000Y-133779285D01*
X49726428Y-133636428D01*
X49797857Y-133565000D01*
X49940714Y-133493571D01*
X50297857Y-133493571D01*
X50512143Y-133565000D01*
X51155000Y-134993571D02*
X51155000Y-133993571D01*
X51155000Y-133493571D02*
X51083571Y-133565000D01*
X51155000Y-133636428D01*
X51226428Y-133565000D01*
X51155000Y-133493571D01*
X51155000Y-133636428D01*
X52083571Y-134993571D02*
X51940714Y-134922142D01*
X51869286Y-134779285D01*
X51869286Y-133493571D01*
X52655000Y-134993571D02*
X52655000Y-133493571D01*
X52797857Y-134422142D02*
X53226428Y-134993571D01*
X53226428Y-133993571D02*
X52655000Y-134565000D01*
X54940714Y-134922142D02*
X55155000Y-134993571D01*
X55512143Y-134993571D01*
X55655000Y-134922142D01*
X55726428Y-134850714D01*
X55797857Y-134707857D01*
X55797857Y-134565000D01*
X55726428Y-134422142D01*
X55655000Y-134350714D01*
X55512143Y-134279285D01*
X55226428Y-134207857D01*
X55083571Y-134136428D01*
X55012143Y-134065000D01*
X54940714Y-133922142D01*
X54940714Y-133779285D01*
X55012143Y-133636428D01*
X55083571Y-133565000D01*
X55226428Y-133493571D01*
X55583571Y-133493571D01*
X55797857Y-133565000D01*
X57083571Y-134922142D02*
X56940714Y-134993571D01*
X56655000Y-134993571D01*
X56512143Y-134922142D01*
X56440714Y-134850714D01*
X56369286Y-134707857D01*
X56369286Y-134279285D01*
X56440714Y-134136428D01*
X56512143Y-134065000D01*
X56655000Y-133993571D01*
X56940714Y-133993571D01*
X57083571Y-134065000D01*
X57726428Y-134993571D02*
X57726428Y-133993571D01*
X57726428Y-134279285D02*
X57797857Y-134136428D01*
X57869286Y-134065000D01*
X58012143Y-133993571D01*
X58155000Y-133993571D01*
X59226428Y-134922142D02*
X59083571Y-134993571D01*
X58797857Y-134993571D01*
X58655000Y-134922142D01*
X58583571Y-134779285D01*
X58583571Y-134207857D01*
X58655000Y-134065000D01*
X58797857Y-133993571D01*
X59083571Y-133993571D01*
X59226428Y-134065000D01*
X59297857Y-134207857D01*
X59297857Y-134350714D01*
X58583571Y-134493571D01*
X60512143Y-134922142D02*
X60369286Y-134993571D01*
X60083571Y-134993571D01*
X59940714Y-134922142D01*
X59869286Y-134779285D01*
X59869286Y-134207857D01*
X59940714Y-134065000D01*
X60083571Y-133993571D01*
X60369286Y-133993571D01*
X60512143Y-134065000D01*
X60583571Y-134207857D01*
X60583571Y-134350714D01*
X59869286Y-134493571D01*
X61226428Y-133993571D02*
X61226428Y-134993571D01*
X61226428Y-134136428D02*
X61297857Y-134065000D01*
X61440714Y-133993571D01*
X61655000Y-133993571D01*
X61797857Y-134065000D01*
X61869286Y-134207857D01*
X61869286Y-134993571D01*
X123612143Y-163448571D02*
X122755000Y-163448571D01*
X123183571Y-163448571D02*
X123183571Y-161948571D01*
X123040714Y-162162857D01*
X122897857Y-162305714D01*
X122755000Y-162377142D01*
D11*
X122956428Y-129842857D02*
X123456428Y-129842857D01*
X123670714Y-130628571D02*
X122956428Y-130628571D01*
X122956428Y-129128571D01*
X123670714Y-129128571D01*
X124313571Y-129628571D02*
X124313571Y-131128571D01*
X124313571Y-129700000D02*
X124456428Y-129628571D01*
X124742143Y-129628571D01*
X124885000Y-129700000D01*
X124956428Y-129771428D01*
X125027857Y-129914285D01*
X125027857Y-130342857D01*
X124956428Y-130485714D01*
X124885000Y-130557142D01*
X124742143Y-130628571D01*
X124456428Y-130628571D01*
X124313571Y-130557142D01*
X125599286Y-130557142D02*
X125742143Y-130628571D01*
X126027857Y-130628571D01*
X126170714Y-130557142D01*
X126242143Y-130414285D01*
X126242143Y-130342857D01*
X126170714Y-130200000D01*
X126027857Y-130128571D01*
X125813571Y-130128571D01*
X125670714Y-130057142D01*
X125599286Y-129914285D01*
X125599286Y-129842857D01*
X125670714Y-129700000D01*
X125813571Y-129628571D01*
X126027857Y-129628571D01*
X126170714Y-129700000D01*
X126885000Y-130628571D02*
X126885000Y-129628571D01*
X126885000Y-129128571D02*
X126813571Y-129200000D01*
X126885000Y-129271428D01*
X126956428Y-129200000D01*
X126885000Y-129128571D01*
X126885000Y-129271428D01*
X127813571Y-130628571D02*
X127670714Y-130557142D01*
X127599286Y-130414285D01*
X127599286Y-129128571D01*
X128599286Y-130628571D02*
X128456428Y-130557142D01*
X128385000Y-130485714D01*
X128313571Y-130342857D01*
X128313571Y-129914285D01*
X128385000Y-129771428D01*
X128456428Y-129700000D01*
X128599286Y-129628571D01*
X128813571Y-129628571D01*
X128956428Y-129700000D01*
X129027857Y-129771428D01*
X129099286Y-129914285D01*
X129099286Y-130342857D01*
X129027857Y-130485714D01*
X128956428Y-130557142D01*
X128813571Y-130628571D01*
X128599286Y-130628571D01*
X129742143Y-129628571D02*
X129742143Y-130628571D01*
X129742143Y-129771428D02*
X129813571Y-129700000D01*
X129956428Y-129628571D01*
X130170714Y-129628571D01*
X130313571Y-129700000D01*
X130385000Y-129842857D01*
X130385000Y-130628571D01*
X133099286Y-130628571D02*
X132599286Y-129914285D01*
X132242143Y-130628571D02*
X132242143Y-129128571D01*
X132813571Y-129128571D01*
X132956428Y-129200000D01*
X133027857Y-129271428D01*
X133099286Y-129414285D01*
X133099286Y-129628571D01*
X133027857Y-129771428D01*
X132956428Y-129842857D01*
X132813571Y-129914285D01*
X132242143Y-129914285D01*
D10*
X87283572Y-159383571D02*
X86426429Y-159383571D01*
X86855000Y-159383571D02*
X86855000Y-157883571D01*
X86712143Y-158097857D01*
X86569286Y-158240714D01*
X86426429Y-158312142D01*
X87926429Y-159240714D02*
X87997857Y-159312142D01*
X87926429Y-159383571D01*
X87855000Y-159312142D01*
X87926429Y-159240714D01*
X87926429Y-159383571D01*
X88926429Y-157883571D02*
X89069286Y-157883571D01*
X89212143Y-157955000D01*
X89283572Y-158026428D01*
X89355000Y-158169285D01*
X89426429Y-158455000D01*
X89426429Y-158812142D01*
X89355000Y-159097857D01*
X89283572Y-159240714D01*
X89212143Y-159312142D01*
X89069286Y-159383571D01*
X88926429Y-159383571D01*
X88783572Y-159312142D01*
X88712143Y-159240714D01*
X88640715Y-159097857D01*
X88569286Y-158812142D01*
X88569286Y-158455000D01*
X88640715Y-158169285D01*
X88712143Y-158026428D01*
X88783572Y-157955000D01*
X88926429Y-157883571D01*
X89926429Y-157883571D02*
X90855000Y-157883571D01*
X90355000Y-158455000D01*
X90569286Y-158455000D01*
X90712143Y-158526428D01*
X90783572Y-158597857D01*
X90855000Y-158740714D01*
X90855000Y-159097857D01*
X90783572Y-159240714D01*
X90712143Y-159312142D01*
X90569286Y-159383571D01*
X90140715Y-159383571D01*
X89997857Y-159312142D01*
X89926429Y-159240714D01*
X92640715Y-159383571D02*
X92640715Y-158383571D01*
X92640715Y-158526428D02*
X92712143Y-158455000D01*
X92855000Y-158383571D01*
X93069286Y-158383571D01*
X93212143Y-158455000D01*
X93283572Y-158597857D01*
X93283572Y-159383571D01*
X93283572Y-158597857D02*
X93355000Y-158455000D01*
X93497857Y-158383571D01*
X93712143Y-158383571D01*
X93855000Y-158455000D01*
X93926429Y-158597857D01*
X93926429Y-159383571D01*
X94640715Y-159383571D02*
X94640715Y-158383571D01*
X94640715Y-158526428D02*
X94712143Y-158455000D01*
X94855000Y-158383571D01*
X95069286Y-158383571D01*
X95212143Y-158455000D01*
X95283572Y-158597857D01*
X95283572Y-159383571D01*
X95283572Y-158597857D02*
X95355000Y-158455000D01*
X95497857Y-158383571D01*
X95712143Y-158383571D01*
X95855000Y-158455000D01*
X95926429Y-158597857D01*
X95926429Y-159383571D01*
X123469286Y-158383571D02*
X123469286Y-159383571D01*
X123112143Y-157812142D02*
X122755000Y-158883571D01*
X123683571Y-158883571D01*
X124255000Y-159240714D02*
X124326428Y-159312142D01*
X124255000Y-159383571D01*
X124183571Y-159312142D01*
X124255000Y-159240714D01*
X124255000Y-159383571D01*
X125683571Y-157883571D02*
X124969286Y-157883571D01*
X124897857Y-158597857D01*
X124969286Y-158526428D01*
X125112143Y-158455000D01*
X125469286Y-158455000D01*
X125612143Y-158526428D01*
X125683571Y-158597857D01*
X125755000Y-158740714D01*
X125755000Y-159097857D01*
X125683571Y-159240714D01*
X125612143Y-159312142D01*
X125469286Y-159383571D01*
X125112143Y-159383571D01*
X124969286Y-159312142D01*
X124897857Y-159240714D01*
X135697857Y-178208571D02*
X135840714Y-178208571D01*
X135983571Y-178280000D01*
X136055000Y-178351428D01*
X136126428Y-178494285D01*
X136197857Y-178780000D01*
X136197857Y-179137142D01*
X136126428Y-179422857D01*
X136055000Y-179565714D01*
X135983571Y-179637142D01*
X135840714Y-179708571D01*
X135697857Y-179708571D01*
X135555000Y-179637142D01*
X135483571Y-179565714D01*
X135412142Y-179422857D01*
X135340714Y-179137142D01*
X135340714Y-178780000D01*
X135412142Y-178494285D01*
X135483571Y-178351428D01*
X135555000Y-178280000D01*
X135697857Y-178208571D01*
D11*
X30256428Y-130628571D02*
X29542142Y-130628571D01*
X29542142Y-129128571D01*
X31399285Y-130628571D02*
X31399285Y-129842857D01*
X31327857Y-129700000D01*
X31185000Y-129628571D01*
X30899285Y-129628571D01*
X30756428Y-129700000D01*
X31399285Y-130557142D02*
X31256428Y-130628571D01*
X30899285Y-130628571D01*
X30756428Y-130557142D01*
X30685000Y-130414285D01*
X30685000Y-130271428D01*
X30756428Y-130128571D01*
X30899285Y-130057142D01*
X31256428Y-130057142D01*
X31399285Y-129985714D01*
X31970714Y-129628571D02*
X32327857Y-130628571D01*
X32685000Y-129628571D02*
X32327857Y-130628571D01*
X32185000Y-130985714D01*
X32113571Y-131057142D01*
X31970714Y-131128571D01*
X33827857Y-130557142D02*
X33685000Y-130628571D01*
X33399285Y-130628571D01*
X33256428Y-130557142D01*
X33185000Y-130414285D01*
X33185000Y-129842857D01*
X33256428Y-129700000D01*
X33399285Y-129628571D01*
X33685000Y-129628571D01*
X33827857Y-129700000D01*
X33899285Y-129842857D01*
X33899285Y-129985714D01*
X33185000Y-130128571D01*
X34542142Y-130628571D02*
X34542142Y-129628571D01*
X34542142Y-129914285D02*
X34613571Y-129771428D01*
X34685000Y-129700000D01*
X34827857Y-129628571D01*
X34970714Y-129628571D01*
X36613571Y-130628571D02*
X36613571Y-129128571D01*
X37470714Y-130628571D01*
X37470714Y-129128571D01*
X38827857Y-130628571D02*
X38827857Y-129842857D01*
X38756428Y-129700000D01*
X38613571Y-129628571D01*
X38327857Y-129628571D01*
X38185000Y-129700000D01*
X38827857Y-130557142D02*
X38685000Y-130628571D01*
X38327857Y-130628571D01*
X38185000Y-130557142D01*
X38113571Y-130414285D01*
X38113571Y-130271428D01*
X38185000Y-130128571D01*
X38327857Y-130057142D01*
X38685000Y-130057142D01*
X38827857Y-129985714D01*
X39542142Y-130628571D02*
X39542142Y-129628571D01*
X39542142Y-129771428D02*
X39613571Y-129700000D01*
X39756428Y-129628571D01*
X39970714Y-129628571D01*
X40113571Y-129700000D01*
X40185000Y-129842857D01*
X40185000Y-130628571D01*
X40185000Y-129842857D02*
X40256428Y-129700000D01*
X40399285Y-129628571D01*
X40613571Y-129628571D01*
X40756428Y-129700000D01*
X40827857Y-129842857D01*
X40827857Y-130628571D01*
X42113571Y-130557142D02*
X41970714Y-130628571D01*
X41685000Y-130628571D01*
X41542142Y-130557142D01*
X41470714Y-130414285D01*
X41470714Y-129842857D01*
X41542142Y-129700000D01*
X41685000Y-129628571D01*
X41970714Y-129628571D01*
X42113571Y-129700000D01*
X42185000Y-129842857D01*
X42185000Y-129985714D01*
X41470714Y-130128571D01*
D10*
X29912142Y-142337857D02*
X29412142Y-142337857D01*
X29412142Y-143123571D02*
X29412142Y-141623571D01*
X30126428Y-141623571D01*
X30697857Y-142980714D02*
X30769285Y-143052142D01*
X30697857Y-143123571D01*
X30626428Y-143052142D01*
X30697857Y-142980714D01*
X30697857Y-143123571D01*
X31412142Y-143123571D02*
X31412142Y-141623571D01*
X31912142Y-142695000D01*
X32412142Y-141623571D01*
X32412142Y-143123571D01*
X33769285Y-143123571D02*
X33769285Y-142337857D01*
X33697857Y-142195000D01*
X33555000Y-142123571D01*
X33269285Y-142123571D01*
X33126428Y-142195000D01*
X33769285Y-143052142D02*
X33626428Y-143123571D01*
X33269285Y-143123571D01*
X33126428Y-143052142D01*
X33055000Y-142909285D01*
X33055000Y-142766428D01*
X33126428Y-142623571D01*
X33269285Y-142552142D01*
X33626428Y-142552142D01*
X33769285Y-142480714D01*
X34412142Y-143052142D02*
X34555000Y-143123571D01*
X34840714Y-143123571D01*
X34983571Y-143052142D01*
X35055000Y-142909285D01*
X35055000Y-142837857D01*
X34983571Y-142695000D01*
X34840714Y-142623571D01*
X34626428Y-142623571D01*
X34483571Y-142552142D01*
X34412142Y-142409285D01*
X34412142Y-142337857D01*
X34483571Y-142195000D01*
X34626428Y-142123571D01*
X34840714Y-142123571D01*
X34983571Y-142195000D01*
X35697857Y-143123571D02*
X35697857Y-141623571D01*
X35840714Y-142552142D02*
X36269285Y-143123571D01*
X36269285Y-142123571D02*
X35697857Y-142695000D01*
X123612143Y-155318571D02*
X122755000Y-155318571D01*
X123183571Y-155318571D02*
X123183571Y-153818571D01*
X123040714Y-154032857D01*
X122897857Y-154175714D01*
X122755000Y-154247142D01*
X69897857Y-134993571D02*
X69897857Y-133493571D01*
X70755000Y-134993571D01*
X70755000Y-133493571D01*
X71683572Y-134993571D02*
X71540715Y-134922142D01*
X71469286Y-134850714D01*
X71397857Y-134707857D01*
X71397857Y-134279285D01*
X71469286Y-134136428D01*
X71540715Y-134065000D01*
X71683572Y-133993571D01*
X71897857Y-133993571D01*
X72040715Y-134065000D01*
X72112143Y-134136428D01*
X72183572Y-134279285D01*
X72183572Y-134707857D01*
X72112143Y-134850714D01*
X72040715Y-134922142D01*
X71897857Y-134993571D01*
X71683572Y-134993571D01*
X72612143Y-133993571D02*
X73183572Y-133993571D01*
X72826429Y-133493571D02*
X72826429Y-134779285D01*
X72897857Y-134922142D01*
X73040715Y-134993571D01*
X73183572Y-134993571D01*
X74755000Y-134922142D02*
X74897857Y-134993571D01*
X75183572Y-134993571D01*
X75326429Y-134922142D01*
X75397857Y-134779285D01*
X75397857Y-134707857D01*
X75326429Y-134565000D01*
X75183572Y-134493571D01*
X74969286Y-134493571D01*
X74826429Y-134422142D01*
X74755000Y-134279285D01*
X74755000Y-134207857D01*
X74826429Y-134065000D01*
X74969286Y-133993571D01*
X75183572Y-133993571D01*
X75326429Y-134065000D01*
X76040715Y-133993571D02*
X76040715Y-135493571D01*
X76040715Y-134065000D02*
X76183572Y-133993571D01*
X76469286Y-133993571D01*
X76612143Y-134065000D01*
X76683572Y-134136428D01*
X76755000Y-134279285D01*
X76755000Y-134707857D01*
X76683572Y-134850714D01*
X76612143Y-134922142D01*
X76469286Y-134993571D01*
X76183572Y-134993571D01*
X76040715Y-134922142D01*
X77969286Y-134922142D02*
X77826429Y-134993571D01*
X77540715Y-134993571D01*
X77397857Y-134922142D01*
X77326429Y-134779285D01*
X77326429Y-134207857D01*
X77397857Y-134065000D01*
X77540715Y-133993571D01*
X77826429Y-133993571D01*
X77969286Y-134065000D01*
X78040715Y-134207857D01*
X78040715Y-134350714D01*
X77326429Y-134493571D01*
X79326429Y-134922142D02*
X79183572Y-134993571D01*
X78897857Y-134993571D01*
X78755000Y-134922142D01*
X78683572Y-134850714D01*
X78612143Y-134707857D01*
X78612143Y-134279285D01*
X78683572Y-134136428D01*
X78755000Y-134065000D01*
X78897857Y-133993571D01*
X79183572Y-133993571D01*
X79326429Y-134065000D01*
X79969286Y-134993571D02*
X79969286Y-133993571D01*
X79969286Y-133493571D02*
X79897857Y-133565000D01*
X79969286Y-133636428D01*
X80040715Y-133565000D01*
X79969286Y-133493571D01*
X79969286Y-133636428D01*
X80469286Y-133993571D02*
X81040715Y-133993571D01*
X80683572Y-134993571D02*
X80683572Y-133707857D01*
X80755000Y-133565000D01*
X80897857Y-133493571D01*
X81040715Y-133493571D01*
X81540715Y-134993571D02*
X81540715Y-133993571D01*
X81540715Y-133493571D02*
X81469286Y-133565000D01*
X81540715Y-133636428D01*
X81612143Y-133565000D01*
X81540715Y-133493571D01*
X81540715Y-133636428D01*
X82826429Y-134922142D02*
X82683572Y-134993571D01*
X82397857Y-134993571D01*
X82255000Y-134922142D01*
X82183572Y-134779285D01*
X82183572Y-134207857D01*
X82255000Y-134065000D01*
X82397857Y-133993571D01*
X82683572Y-133993571D01*
X82826429Y-134065000D01*
X82897857Y-134207857D01*
X82897857Y-134350714D01*
X82183572Y-134493571D01*
X84183572Y-134993571D02*
X84183572Y-133493571D01*
X84183572Y-134922142D02*
X84040715Y-134993571D01*
X83755000Y-134993571D01*
X83612143Y-134922142D01*
X83540715Y-134850714D01*
X83469286Y-134707857D01*
X83469286Y-134279285D01*
X83540715Y-134136428D01*
X83612143Y-134065000D01*
X83755000Y-133993571D01*
X84040715Y-133993571D01*
X84183572Y-134065000D01*
X29912142Y-170792857D02*
X30126428Y-170864285D01*
X30197857Y-170935714D01*
X30269285Y-171078571D01*
X30269285Y-171292857D01*
X30197857Y-171435714D01*
X30126428Y-171507142D01*
X29983571Y-171578571D01*
X29412142Y-171578571D01*
X29412142Y-170078571D01*
X29912142Y-170078571D01*
X30055000Y-170150000D01*
X30126428Y-170221428D01*
X30197857Y-170364285D01*
X30197857Y-170507142D01*
X30126428Y-170650000D01*
X30055000Y-170721428D01*
X29912142Y-170792857D01*
X29412142Y-170792857D01*
X30912142Y-171435714D02*
X30983571Y-171507142D01*
X30912142Y-171578571D01*
X30840714Y-171507142D01*
X30912142Y-171435714D01*
X30912142Y-171578571D01*
X32483571Y-171435714D02*
X32412142Y-171507142D01*
X32197857Y-171578571D01*
X32055000Y-171578571D01*
X31840714Y-171507142D01*
X31697857Y-171364285D01*
X31626428Y-171221428D01*
X31555000Y-170935714D01*
X31555000Y-170721428D01*
X31626428Y-170435714D01*
X31697857Y-170292857D01*
X31840714Y-170150000D01*
X32055000Y-170078571D01*
X32197857Y-170078571D01*
X32412142Y-170150000D01*
X32483571Y-170221428D01*
X33769285Y-170578571D02*
X33769285Y-171578571D01*
X33126428Y-170578571D02*
X33126428Y-171364285D01*
X33197857Y-171507142D01*
X33340714Y-171578571D01*
X33555000Y-171578571D01*
X33697857Y-171507142D01*
X33769285Y-171435714D01*
X106226428Y-183773571D02*
X106226428Y-182273571D01*
X107083571Y-183773571D01*
X107083571Y-182273571D01*
X108012143Y-183773571D02*
X107869286Y-183702142D01*
X107797857Y-183630714D01*
X107726428Y-183487857D01*
X107726428Y-183059285D01*
X107797857Y-182916428D01*
X107869286Y-182845000D01*
X108012143Y-182773571D01*
X108226428Y-182773571D01*
X108369286Y-182845000D01*
X108440714Y-182916428D01*
X108512143Y-183059285D01*
X108512143Y-183487857D01*
X108440714Y-183630714D01*
X108369286Y-183702142D01*
X108226428Y-183773571D01*
X108012143Y-183773571D01*
X108940714Y-182773571D02*
X109512143Y-182773571D01*
X109155000Y-182273571D02*
X109155000Y-183559285D01*
X109226428Y-183702142D01*
X109369286Y-183773571D01*
X109512143Y-183773571D01*
X111083571Y-183702142D02*
X111226428Y-183773571D01*
X111512143Y-183773571D01*
X111655000Y-183702142D01*
X111726428Y-183559285D01*
X111726428Y-183487857D01*
X111655000Y-183345000D01*
X111512143Y-183273571D01*
X111297857Y-183273571D01*
X111155000Y-183202142D01*
X111083571Y-183059285D01*
X111083571Y-182987857D01*
X111155000Y-182845000D01*
X111297857Y-182773571D01*
X111512143Y-182773571D01*
X111655000Y-182845000D01*
X112369286Y-182773571D02*
X112369286Y-184273571D01*
X112369286Y-182845000D02*
X112512143Y-182773571D01*
X112797857Y-182773571D01*
X112940714Y-182845000D01*
X113012143Y-182916428D01*
X113083571Y-183059285D01*
X113083571Y-183487857D01*
X113012143Y-183630714D01*
X112940714Y-183702142D01*
X112797857Y-183773571D01*
X112512143Y-183773571D01*
X112369286Y-183702142D01*
X114297857Y-183702142D02*
X114155000Y-183773571D01*
X113869286Y-183773571D01*
X113726428Y-183702142D01*
X113655000Y-183559285D01*
X113655000Y-182987857D01*
X113726428Y-182845000D01*
X113869286Y-182773571D01*
X114155000Y-182773571D01*
X114297857Y-182845000D01*
X114369286Y-182987857D01*
X114369286Y-183130714D01*
X113655000Y-183273571D01*
X115655000Y-183702142D02*
X115512143Y-183773571D01*
X115226428Y-183773571D01*
X115083571Y-183702142D01*
X115012143Y-183630714D01*
X114940714Y-183487857D01*
X114940714Y-183059285D01*
X115012143Y-182916428D01*
X115083571Y-182845000D01*
X115226428Y-182773571D01*
X115512143Y-182773571D01*
X115655000Y-182845000D01*
X116297857Y-183773571D02*
X116297857Y-182773571D01*
X116297857Y-182273571D02*
X116226428Y-182345000D01*
X116297857Y-182416428D01*
X116369286Y-182345000D01*
X116297857Y-182273571D01*
X116297857Y-182416428D01*
X116797857Y-182773571D02*
X117369286Y-182773571D01*
X117012143Y-183773571D02*
X117012143Y-182487857D01*
X117083571Y-182345000D01*
X117226428Y-182273571D01*
X117369286Y-182273571D01*
X117869286Y-183773571D02*
X117869286Y-182773571D01*
X117869286Y-182273571D02*
X117797857Y-182345000D01*
X117869286Y-182416428D01*
X117940714Y-182345000D01*
X117869286Y-182273571D01*
X117869286Y-182416428D01*
X119155000Y-183702142D02*
X119012143Y-183773571D01*
X118726428Y-183773571D01*
X118583571Y-183702142D01*
X118512143Y-183559285D01*
X118512143Y-182987857D01*
X118583571Y-182845000D01*
X118726428Y-182773571D01*
X119012143Y-182773571D01*
X119155000Y-182845000D01*
X119226428Y-182987857D01*
X119226428Y-183130714D01*
X118512143Y-183273571D01*
X120512143Y-183773571D02*
X120512143Y-182273571D01*
X120512143Y-183702142D02*
X120369286Y-183773571D01*
X120083571Y-183773571D01*
X119940714Y-183702142D01*
X119869286Y-183630714D01*
X119797857Y-183487857D01*
X119797857Y-183059285D01*
X119869286Y-182916428D01*
X119940714Y-182845000D01*
X120083571Y-182773571D01*
X120369286Y-182773571D01*
X120512143Y-182845000D01*
X70397857Y-150467857D02*
X69897857Y-150467857D01*
X69897857Y-151253571D02*
X69897857Y-149753571D01*
X70612143Y-149753571D01*
X72040715Y-151253571D02*
X71540715Y-150539285D01*
X71183572Y-151253571D02*
X71183572Y-149753571D01*
X71755000Y-149753571D01*
X71897857Y-149825000D01*
X71969286Y-149896428D01*
X72040715Y-150039285D01*
X72040715Y-150253571D01*
X71969286Y-150396428D01*
X71897857Y-150467857D01*
X71755000Y-150539285D01*
X71183572Y-150539285D01*
X73326429Y-150253571D02*
X73326429Y-151253571D01*
X72969286Y-149682142D02*
X72612143Y-150753571D01*
X73540715Y-150753571D01*
X44726428Y-158383571D02*
X44726428Y-159883571D01*
X44726428Y-158455000D02*
X44869286Y-158383571D01*
X45155000Y-158383571D01*
X45297857Y-158455000D01*
X45369286Y-158526428D01*
X45440714Y-158669285D01*
X45440714Y-159097857D01*
X45369286Y-159240714D01*
X45297857Y-159312142D01*
X45155000Y-159383571D01*
X44869286Y-159383571D01*
X44726428Y-159312142D01*
X46083571Y-159383571D02*
X46083571Y-158383571D01*
X46083571Y-158669285D02*
X46155000Y-158526428D01*
X46226428Y-158455000D01*
X46369286Y-158383571D01*
X46512143Y-158383571D01*
X47583571Y-159312142D02*
X47440714Y-159383571D01*
X47155000Y-159383571D01*
X47012143Y-159312142D01*
X46940714Y-159169285D01*
X46940714Y-158597857D01*
X47012143Y-158455000D01*
X47155000Y-158383571D01*
X47440714Y-158383571D01*
X47583571Y-158455000D01*
X47655000Y-158597857D01*
X47655000Y-158740714D01*
X46940714Y-158883571D01*
X48297857Y-158383571D02*
X48297857Y-159883571D01*
X48297857Y-158455000D02*
X48440714Y-158383571D01*
X48726428Y-158383571D01*
X48869286Y-158455000D01*
X48940714Y-158526428D01*
X49012143Y-158669285D01*
X49012143Y-159097857D01*
X48940714Y-159240714D01*
X48869286Y-159312142D01*
X48726428Y-159383571D01*
X48440714Y-159383571D01*
X48297857Y-159312142D01*
X49655000Y-159383571D02*
X49655000Y-158383571D01*
X49655000Y-158669285D02*
X49726428Y-158526428D01*
X49797857Y-158455000D01*
X49940714Y-158383571D01*
X50083571Y-158383571D01*
X51155000Y-159312142D02*
X51012143Y-159383571D01*
X50726428Y-159383571D01*
X50583571Y-159312142D01*
X50512143Y-159169285D01*
X50512143Y-158597857D01*
X50583571Y-158455000D01*
X50726428Y-158383571D01*
X51012143Y-158383571D01*
X51155000Y-158455000D01*
X51226428Y-158597857D01*
X51226428Y-158740714D01*
X50512143Y-158883571D01*
X52512143Y-158383571D02*
X52512143Y-159597857D01*
X52440714Y-159740714D01*
X52369286Y-159812142D01*
X52226428Y-159883571D01*
X52012143Y-159883571D01*
X51869286Y-159812142D01*
X52512143Y-159312142D02*
X52369286Y-159383571D01*
X52083571Y-159383571D01*
X51940714Y-159312142D01*
X51869286Y-159240714D01*
X51797857Y-159097857D01*
X51797857Y-158669285D01*
X51869286Y-158526428D01*
X51940714Y-158455000D01*
X52083571Y-158383571D01*
X52369286Y-158383571D01*
X52512143Y-158455000D01*
D11*
X44642143Y-129128571D02*
X45499286Y-129128571D01*
X45070714Y-130628571D02*
X45070714Y-129128571D01*
X45856428Y-129628571D02*
X46213571Y-130628571D01*
X46570714Y-129628571D02*
X46213571Y-130628571D01*
X46070714Y-130985714D01*
X45999286Y-131057142D01*
X45856428Y-131128571D01*
X47142143Y-129628571D02*
X47142143Y-131128571D01*
X47142143Y-129700000D02*
X47285000Y-129628571D01*
X47570714Y-129628571D01*
X47713571Y-129700000D01*
X47785000Y-129771428D01*
X47856428Y-129914285D01*
X47856428Y-130342857D01*
X47785000Y-130485714D01*
X47713571Y-130557142D01*
X47570714Y-130628571D01*
X47285000Y-130628571D01*
X47142143Y-130557142D01*
X49070714Y-130557142D02*
X48927857Y-130628571D01*
X48642143Y-130628571D01*
X48499286Y-130557142D01*
X48427857Y-130414285D01*
X48427857Y-129842857D01*
X48499286Y-129700000D01*
X48642143Y-129628571D01*
X48927857Y-129628571D01*
X49070714Y-129700000D01*
X49142143Y-129842857D01*
X49142143Y-129985714D01*
X48427857Y-130128571D01*
D10*
X45369286Y-155247142D02*
X45226428Y-155318571D01*
X44940714Y-155318571D01*
X44797857Y-155247142D01*
X44726428Y-155175714D01*
X44655000Y-155032857D01*
X44655000Y-154604285D01*
X44726428Y-154461428D01*
X44797857Y-154390000D01*
X44940714Y-154318571D01*
X45226428Y-154318571D01*
X45369286Y-154390000D01*
X46226428Y-155318571D02*
X46083571Y-155247142D01*
X46012143Y-155175714D01*
X45940714Y-155032857D01*
X45940714Y-154604285D01*
X46012143Y-154461428D01*
X46083571Y-154390000D01*
X46226428Y-154318571D01*
X46440714Y-154318571D01*
X46583571Y-154390000D01*
X46655000Y-154461428D01*
X46726428Y-154604285D01*
X46726428Y-155032857D01*
X46655000Y-155175714D01*
X46583571Y-155247142D01*
X46440714Y-155318571D01*
X46226428Y-155318571D01*
X47369286Y-154318571D02*
X47369286Y-155818571D01*
X47369286Y-154390000D02*
X47512143Y-154318571D01*
X47797857Y-154318571D01*
X47940714Y-154390000D01*
X48012143Y-154461428D01*
X48083571Y-154604285D01*
X48083571Y-155032857D01*
X48012143Y-155175714D01*
X47940714Y-155247142D01*
X47797857Y-155318571D01*
X47512143Y-155318571D01*
X47369286Y-155247142D01*
X48726428Y-154318571D02*
X48726428Y-155818571D01*
X48726428Y-154390000D02*
X48869286Y-154318571D01*
X49155000Y-154318571D01*
X49297857Y-154390000D01*
X49369286Y-154461428D01*
X49440714Y-154604285D01*
X49440714Y-155032857D01*
X49369286Y-155175714D01*
X49297857Y-155247142D01*
X49155000Y-155318571D01*
X48869286Y-155318571D01*
X48726428Y-155247142D01*
X50655000Y-155247142D02*
X50512143Y-155318571D01*
X50226428Y-155318571D01*
X50083571Y-155247142D01*
X50012143Y-155104285D01*
X50012143Y-154532857D01*
X50083571Y-154390000D01*
X50226428Y-154318571D01*
X50512143Y-154318571D01*
X50655000Y-154390000D01*
X50726428Y-154532857D01*
X50726428Y-154675714D01*
X50012143Y-154818571D01*
X51369286Y-155318571D02*
X51369286Y-154318571D01*
X51369286Y-154604285D02*
X51440714Y-154461428D01*
X51512143Y-154390000D01*
X51655000Y-154318571D01*
X51797857Y-154318571D01*
X86783572Y-145688571D02*
X86926429Y-145688571D01*
X87069286Y-145760000D01*
X87140715Y-145831428D01*
X87212143Y-145974285D01*
X87283572Y-146260000D01*
X87283572Y-146617142D01*
X87212143Y-146902857D01*
X87140715Y-147045714D01*
X87069286Y-147117142D01*
X86926429Y-147188571D01*
X86783572Y-147188571D01*
X86640715Y-147117142D01*
X86569286Y-147045714D01*
X86497857Y-146902857D01*
X86426429Y-146617142D01*
X86426429Y-146260000D01*
X86497857Y-145974285D01*
X86569286Y-145831428D01*
X86640715Y-145760000D01*
X86783572Y-145688571D01*
X87926429Y-147045714D02*
X87997857Y-147117142D01*
X87926429Y-147188571D01*
X87855000Y-147117142D01*
X87926429Y-147045714D01*
X87926429Y-147188571D01*
X88926429Y-145688571D02*
X89069286Y-145688571D01*
X89212143Y-145760000D01*
X89283572Y-145831428D01*
X89355000Y-145974285D01*
X89426429Y-146260000D01*
X89426429Y-146617142D01*
X89355000Y-146902857D01*
X89283572Y-147045714D01*
X89212143Y-147117142D01*
X89069286Y-147188571D01*
X88926429Y-147188571D01*
X88783572Y-147117142D01*
X88712143Y-147045714D01*
X88640715Y-146902857D01*
X88569286Y-146617142D01*
X88569286Y-146260000D01*
X88640715Y-145974285D01*
X88712143Y-145831428D01*
X88783572Y-145760000D01*
X88926429Y-145688571D01*
X89926429Y-145688571D02*
X90855000Y-145688571D01*
X90355000Y-146260000D01*
X90569286Y-146260000D01*
X90712143Y-146331428D01*
X90783572Y-146402857D01*
X90855000Y-146545714D01*
X90855000Y-146902857D01*
X90783572Y-147045714D01*
X90712143Y-147117142D01*
X90569286Y-147188571D01*
X90140715Y-147188571D01*
X89997857Y-147117142D01*
X89926429Y-147045714D01*
X92212143Y-145688571D02*
X91497857Y-145688571D01*
X91426429Y-146402857D01*
X91497857Y-146331428D01*
X91640715Y-146260000D01*
X91997857Y-146260000D01*
X92140715Y-146331428D01*
X92212143Y-146402857D01*
X92283572Y-146545714D01*
X92283572Y-146902857D01*
X92212143Y-147045714D01*
X92140715Y-147117142D01*
X91997857Y-147188571D01*
X91640715Y-147188571D01*
X91497857Y-147117142D01*
X91426429Y-147045714D01*
X94069286Y-147188571D02*
X94069286Y-146188571D01*
X94069286Y-146331428D02*
X94140715Y-146260000D01*
X94283572Y-146188571D01*
X94497857Y-146188571D01*
X94640715Y-146260000D01*
X94712143Y-146402857D01*
X94712143Y-147188571D01*
X94712143Y-146402857D02*
X94783572Y-146260000D01*
X94926429Y-146188571D01*
X95140715Y-146188571D01*
X95283572Y-146260000D01*
X95355000Y-146402857D01*
X95355000Y-147188571D01*
X96069286Y-147188571D02*
X96069286Y-146188571D01*
X96069286Y-146331428D02*
X96140715Y-146260000D01*
X96283572Y-146188571D01*
X96497857Y-146188571D01*
X96640715Y-146260000D01*
X96712143Y-146402857D01*
X96712143Y-147188571D01*
X96712143Y-146402857D02*
X96783572Y-146260000D01*
X96926429Y-146188571D01*
X97140715Y-146188571D01*
X97283572Y-146260000D01*
X97355000Y-146402857D01*
X97355000Y-147188571D01*
X123469286Y-166513571D02*
X123469286Y-167513571D01*
X123112143Y-165942142D02*
X122755000Y-167013571D01*
X123683571Y-167013571D01*
X124255000Y-167370714D02*
X124326428Y-167442142D01*
X124255000Y-167513571D01*
X124183571Y-167442142D01*
X124255000Y-167370714D01*
X124255000Y-167513571D01*
X125683571Y-166013571D02*
X124969286Y-166013571D01*
X124897857Y-166727857D01*
X124969286Y-166656428D01*
X125112143Y-166585000D01*
X125469286Y-166585000D01*
X125612143Y-166656428D01*
X125683571Y-166727857D01*
X125755000Y-166870714D01*
X125755000Y-167227857D01*
X125683571Y-167370714D01*
X125612143Y-167442142D01*
X125469286Y-167513571D01*
X125112143Y-167513571D01*
X124969286Y-167442142D01*
X124897857Y-167370714D01*
X135697857Y-153818571D02*
X135840714Y-153818571D01*
X135983571Y-153890000D01*
X136055000Y-153961428D01*
X136126428Y-154104285D01*
X136197857Y-154390000D01*
X136197857Y-154747142D01*
X136126428Y-155032857D01*
X136055000Y-155175714D01*
X135983571Y-155247142D01*
X135840714Y-155318571D01*
X135697857Y-155318571D01*
X135555000Y-155247142D01*
X135483571Y-155175714D01*
X135412142Y-155032857D01*
X135340714Y-154747142D01*
X135340714Y-154390000D01*
X135412142Y-154104285D01*
X135483571Y-153961428D01*
X135555000Y-153890000D01*
X135697857Y-153818571D01*
X45226428Y-174857857D02*
X45440714Y-174929285D01*
X45512143Y-175000714D01*
X45583571Y-175143571D01*
X45583571Y-175357857D01*
X45512143Y-175500714D01*
X45440714Y-175572142D01*
X45297857Y-175643571D01*
X44726428Y-175643571D01*
X44726428Y-174143571D01*
X45226428Y-174143571D01*
X45369286Y-174215000D01*
X45440714Y-174286428D01*
X45512143Y-174429285D01*
X45512143Y-174572142D01*
X45440714Y-174715000D01*
X45369286Y-174786428D01*
X45226428Y-174857857D01*
X44726428Y-174857857D01*
X46440714Y-175643571D02*
X46297857Y-175572142D01*
X46226428Y-175500714D01*
X46155000Y-175357857D01*
X46155000Y-174929285D01*
X46226428Y-174786428D01*
X46297857Y-174715000D01*
X46440714Y-174643571D01*
X46655000Y-174643571D01*
X46797857Y-174715000D01*
X46869286Y-174786428D01*
X46940714Y-174929285D01*
X46940714Y-175357857D01*
X46869286Y-175500714D01*
X46797857Y-175572142D01*
X46655000Y-175643571D01*
X46440714Y-175643571D01*
X47369286Y-174643571D02*
X47940714Y-174643571D01*
X47583571Y-174143571D02*
X47583571Y-175429285D01*
X47655000Y-175572142D01*
X47797857Y-175643571D01*
X47940714Y-175643571D01*
X48226428Y-174643571D02*
X48797857Y-174643571D01*
X48440714Y-174143571D02*
X48440714Y-175429285D01*
X48512143Y-175572142D01*
X48655000Y-175643571D01*
X48797857Y-175643571D01*
X49512143Y-175643571D02*
X49369286Y-175572142D01*
X49297857Y-175500714D01*
X49226428Y-175357857D01*
X49226428Y-174929285D01*
X49297857Y-174786428D01*
X49369286Y-174715000D01*
X49512143Y-174643571D01*
X49726428Y-174643571D01*
X49869286Y-174715000D01*
X49940714Y-174786428D01*
X50012143Y-174929285D01*
X50012143Y-175357857D01*
X49940714Y-175500714D01*
X49869286Y-175572142D01*
X49726428Y-175643571D01*
X49512143Y-175643571D01*
X50655000Y-175643571D02*
X50655000Y-174643571D01*
X50655000Y-174786428D02*
X50726428Y-174715000D01*
X50869286Y-174643571D01*
X51083571Y-174643571D01*
X51226428Y-174715000D01*
X51297857Y-174857857D01*
X51297857Y-175643571D01*
X51297857Y-174857857D02*
X51369286Y-174715000D01*
X51512143Y-174643571D01*
X51726428Y-174643571D01*
X51869286Y-174715000D01*
X51940714Y-174857857D01*
X51940714Y-175643571D01*
X53726428Y-175572142D02*
X53940714Y-175643571D01*
X54297857Y-175643571D01*
X54440714Y-175572142D01*
X54512143Y-175500714D01*
X54583571Y-175357857D01*
X54583571Y-175215000D01*
X54512143Y-175072142D01*
X54440714Y-175000714D01*
X54297857Y-174929285D01*
X54012143Y-174857857D01*
X53869286Y-174786428D01*
X53797857Y-174715000D01*
X53726428Y-174572142D01*
X53726428Y-174429285D01*
X53797857Y-174286428D01*
X53869286Y-174215000D01*
X54012143Y-174143571D01*
X54369286Y-174143571D01*
X54583571Y-174215000D01*
X55440714Y-175643571D02*
X55297857Y-175572142D01*
X55226428Y-175500714D01*
X55155000Y-175357857D01*
X55155000Y-174929285D01*
X55226428Y-174786428D01*
X55297857Y-174715000D01*
X55440714Y-174643571D01*
X55655000Y-174643571D01*
X55797857Y-174715000D01*
X55869286Y-174786428D01*
X55940714Y-174929285D01*
X55940714Y-175357857D01*
X55869286Y-175500714D01*
X55797857Y-175572142D01*
X55655000Y-175643571D01*
X55440714Y-175643571D01*
X56797857Y-175643571D02*
X56655000Y-175572142D01*
X56583571Y-175429285D01*
X56583571Y-174143571D01*
X58012143Y-175643571D02*
X58012143Y-174143571D01*
X58012143Y-175572142D02*
X57869286Y-175643571D01*
X57583571Y-175643571D01*
X57440714Y-175572142D01*
X57369286Y-175500714D01*
X57297857Y-175357857D01*
X57297857Y-174929285D01*
X57369286Y-174786428D01*
X57440714Y-174715000D01*
X57583571Y-174643571D01*
X57869286Y-174643571D01*
X58012143Y-174715000D01*
X59297857Y-175572142D02*
X59155000Y-175643571D01*
X58869286Y-175643571D01*
X58726428Y-175572142D01*
X58655000Y-175429285D01*
X58655000Y-174857857D01*
X58726428Y-174715000D01*
X58869286Y-174643571D01*
X59155000Y-174643571D01*
X59297857Y-174715000D01*
X59369286Y-174857857D01*
X59369286Y-175000714D01*
X58655000Y-175143571D01*
X60012143Y-175643571D02*
X60012143Y-174643571D01*
X60012143Y-174929285D02*
X60083571Y-174786428D01*
X60155000Y-174715000D01*
X60297857Y-174643571D01*
X60440714Y-174643571D01*
X62083571Y-175643571D02*
X62083571Y-174143571D01*
X62583571Y-175215000D01*
X63083571Y-174143571D01*
X63083571Y-175643571D01*
X64440714Y-175643571D02*
X64440714Y-174857857D01*
X64369286Y-174715000D01*
X64226428Y-174643571D01*
X63940714Y-174643571D01*
X63797857Y-174715000D01*
X64440714Y-175572142D02*
X64297857Y-175643571D01*
X63940714Y-175643571D01*
X63797857Y-175572142D01*
X63726428Y-175429285D01*
X63726428Y-175286428D01*
X63797857Y-175143571D01*
X63940714Y-175072142D01*
X64297857Y-175072142D01*
X64440714Y-175000714D01*
X65083571Y-175572142D02*
X65226428Y-175643571D01*
X65512143Y-175643571D01*
X65655000Y-175572142D01*
X65726428Y-175429285D01*
X65726428Y-175357857D01*
X65655000Y-175215000D01*
X65512143Y-175143571D01*
X65297857Y-175143571D01*
X65155000Y-175072142D01*
X65083571Y-174929285D01*
X65083571Y-174857857D01*
X65155000Y-174715000D01*
X65297857Y-174643571D01*
X65512143Y-174643571D01*
X65655000Y-174715000D01*
X66369286Y-175643571D02*
X66369286Y-174143571D01*
X66512143Y-175072142D02*
X66940714Y-175643571D01*
X66940714Y-174643571D02*
X66369286Y-175215000D01*
X123469286Y-150253571D02*
X123469286Y-151253571D01*
X123112143Y-149682142D02*
X122755000Y-150753571D01*
X123683571Y-150753571D01*
X124255000Y-151110714D02*
X124326428Y-151182142D01*
X124255000Y-151253571D01*
X124183571Y-151182142D01*
X124255000Y-151110714D01*
X124255000Y-151253571D01*
X125683571Y-149753571D02*
X124969286Y-149753571D01*
X124897857Y-150467857D01*
X124969286Y-150396428D01*
X125112143Y-150325000D01*
X125469286Y-150325000D01*
X125612143Y-150396428D01*
X125683571Y-150467857D01*
X125755000Y-150610714D01*
X125755000Y-150967857D01*
X125683571Y-151110714D01*
X125612143Y-151182142D01*
X125469286Y-151253571D01*
X125112143Y-151253571D01*
X124969286Y-151182142D01*
X124897857Y-151110714D01*
X123612143Y-171578571D02*
X122755000Y-171578571D01*
X123183571Y-171578571D02*
X123183571Y-170078571D01*
X123040714Y-170292857D01*
X122897857Y-170435714D01*
X122755000Y-170507142D01*
X44726428Y-150253571D02*
X44726428Y-151753571D01*
X44726428Y-150325000D02*
X44869286Y-150253571D01*
X45155000Y-150253571D01*
X45297857Y-150325000D01*
X45369286Y-150396428D01*
X45440714Y-150539285D01*
X45440714Y-150967857D01*
X45369286Y-151110714D01*
X45297857Y-151182142D01*
X45155000Y-151253571D01*
X44869286Y-151253571D01*
X44726428Y-151182142D01*
X46083571Y-151253571D02*
X46083571Y-150253571D01*
X46083571Y-150539285D02*
X46155000Y-150396428D01*
X46226428Y-150325000D01*
X46369286Y-150253571D01*
X46512143Y-150253571D01*
X47583571Y-151182142D02*
X47440714Y-151253571D01*
X47155000Y-151253571D01*
X47012143Y-151182142D01*
X46940714Y-151039285D01*
X46940714Y-150467857D01*
X47012143Y-150325000D01*
X47155000Y-150253571D01*
X47440714Y-150253571D01*
X47583571Y-150325000D01*
X47655000Y-150467857D01*
X47655000Y-150610714D01*
X46940714Y-150753571D01*
X48297857Y-150253571D02*
X48297857Y-151753571D01*
X48297857Y-150325000D02*
X48440714Y-150253571D01*
X48726428Y-150253571D01*
X48869286Y-150325000D01*
X48940714Y-150396428D01*
X49012143Y-150539285D01*
X49012143Y-150967857D01*
X48940714Y-151110714D01*
X48869286Y-151182142D01*
X48726428Y-151253571D01*
X48440714Y-151253571D01*
X48297857Y-151182142D01*
X49655000Y-151253571D02*
X49655000Y-150253571D01*
X49655000Y-150539285D02*
X49726428Y-150396428D01*
X49797857Y-150325000D01*
X49940714Y-150253571D01*
X50083571Y-150253571D01*
X51155000Y-151182142D02*
X51012143Y-151253571D01*
X50726428Y-151253571D01*
X50583571Y-151182142D01*
X50512143Y-151039285D01*
X50512143Y-150467857D01*
X50583571Y-150325000D01*
X50726428Y-150253571D01*
X51012143Y-150253571D01*
X51155000Y-150325000D01*
X51226428Y-150467857D01*
X51226428Y-150610714D01*
X50512143Y-150753571D01*
X52512143Y-150253571D02*
X52512143Y-151467857D01*
X52440714Y-151610714D01*
X52369286Y-151682142D01*
X52226428Y-151753571D01*
X52012143Y-151753571D01*
X51869286Y-151682142D01*
X52512143Y-151182142D02*
X52369286Y-151253571D01*
X52083571Y-151253571D01*
X51940714Y-151182142D01*
X51869286Y-151110714D01*
X51797857Y-150967857D01*
X51797857Y-150539285D01*
X51869286Y-150396428D01*
X51940714Y-150325000D01*
X52083571Y-150253571D01*
X52369286Y-150253571D01*
X52512143Y-150325000D01*
X45226428Y-182987857D02*
X45440714Y-183059285D01*
X45512143Y-183130714D01*
X45583571Y-183273571D01*
X45583571Y-183487857D01*
X45512143Y-183630714D01*
X45440714Y-183702142D01*
X45297857Y-183773571D01*
X44726428Y-183773571D01*
X44726428Y-182273571D01*
X45226428Y-182273571D01*
X45369286Y-182345000D01*
X45440714Y-182416428D01*
X45512143Y-182559285D01*
X45512143Y-182702142D01*
X45440714Y-182845000D01*
X45369286Y-182916428D01*
X45226428Y-182987857D01*
X44726428Y-182987857D01*
X46440714Y-183773571D02*
X46297857Y-183702142D01*
X46226428Y-183630714D01*
X46155000Y-183487857D01*
X46155000Y-183059285D01*
X46226428Y-182916428D01*
X46297857Y-182845000D01*
X46440714Y-182773571D01*
X46655000Y-182773571D01*
X46797857Y-182845000D01*
X46869286Y-182916428D01*
X46940714Y-183059285D01*
X46940714Y-183487857D01*
X46869286Y-183630714D01*
X46797857Y-183702142D01*
X46655000Y-183773571D01*
X46440714Y-183773571D01*
X47369286Y-182773571D02*
X47940714Y-182773571D01*
X47583571Y-182273571D02*
X47583571Y-183559285D01*
X47655000Y-183702142D01*
X47797857Y-183773571D01*
X47940714Y-183773571D01*
X48226428Y-182773571D02*
X48797857Y-182773571D01*
X48440714Y-182273571D02*
X48440714Y-183559285D01*
X48512143Y-183702142D01*
X48655000Y-183773571D01*
X48797857Y-183773571D01*
X49512143Y-183773571D02*
X49369286Y-183702142D01*
X49297857Y-183630714D01*
X49226428Y-183487857D01*
X49226428Y-183059285D01*
X49297857Y-182916428D01*
X49369286Y-182845000D01*
X49512143Y-182773571D01*
X49726428Y-182773571D01*
X49869286Y-182845000D01*
X49940714Y-182916428D01*
X50012143Y-183059285D01*
X50012143Y-183487857D01*
X49940714Y-183630714D01*
X49869286Y-183702142D01*
X49726428Y-183773571D01*
X49512143Y-183773571D01*
X50655000Y-183773571D02*
X50655000Y-182773571D01*
X50655000Y-182916428D02*
X50726428Y-182845000D01*
X50869286Y-182773571D01*
X51083571Y-182773571D01*
X51226428Y-182845000D01*
X51297857Y-182987857D01*
X51297857Y-183773571D01*
X51297857Y-182987857D02*
X51369286Y-182845000D01*
X51512143Y-182773571D01*
X51726428Y-182773571D01*
X51869286Y-182845000D01*
X51940714Y-182987857D01*
X51940714Y-183773571D01*
X53726428Y-183702142D02*
X53940714Y-183773571D01*
X54297857Y-183773571D01*
X54440714Y-183702142D01*
X54512143Y-183630714D01*
X54583571Y-183487857D01*
X54583571Y-183345000D01*
X54512143Y-183202142D01*
X54440714Y-183130714D01*
X54297857Y-183059285D01*
X54012143Y-182987857D01*
X53869286Y-182916428D01*
X53797857Y-182845000D01*
X53726428Y-182702142D01*
X53726428Y-182559285D01*
X53797857Y-182416428D01*
X53869286Y-182345000D01*
X54012143Y-182273571D01*
X54369286Y-182273571D01*
X54583571Y-182345000D01*
X55226428Y-183773571D02*
X55226428Y-182773571D01*
X55226428Y-182273571D02*
X55155000Y-182345000D01*
X55226428Y-182416428D01*
X55297857Y-182345000D01*
X55226428Y-182273571D01*
X55226428Y-182416428D01*
X56155000Y-183773571D02*
X56012143Y-183702142D01*
X55940714Y-183559285D01*
X55940714Y-182273571D01*
X56726428Y-183773571D02*
X56726428Y-182273571D01*
X56869286Y-183202142D02*
X57297857Y-183773571D01*
X57297857Y-182773571D02*
X56726428Y-183345000D01*
X59012143Y-183702142D02*
X59226428Y-183773571D01*
X59583571Y-183773571D01*
X59726428Y-183702142D01*
X59797857Y-183630714D01*
X59869286Y-183487857D01*
X59869286Y-183345000D01*
X59797857Y-183202142D01*
X59726428Y-183130714D01*
X59583571Y-183059285D01*
X59297857Y-182987857D01*
X59155000Y-182916428D01*
X59083571Y-182845000D01*
X59012143Y-182702142D01*
X59012143Y-182559285D01*
X59083571Y-182416428D01*
X59155000Y-182345000D01*
X59297857Y-182273571D01*
X59655000Y-182273571D01*
X59869286Y-182345000D01*
X61155000Y-183702142D02*
X61012143Y-183773571D01*
X60726428Y-183773571D01*
X60583571Y-183702142D01*
X60512143Y-183630714D01*
X60440714Y-183487857D01*
X60440714Y-183059285D01*
X60512143Y-182916428D01*
X60583571Y-182845000D01*
X60726428Y-182773571D01*
X61012143Y-182773571D01*
X61155000Y-182845000D01*
X61797857Y-183773571D02*
X61797857Y-182773571D01*
X61797857Y-183059285D02*
X61869286Y-182916428D01*
X61940714Y-182845000D01*
X62083571Y-182773571D01*
X62226428Y-182773571D01*
X63297857Y-183702142D02*
X63155000Y-183773571D01*
X62869286Y-183773571D01*
X62726428Y-183702142D01*
X62655000Y-183559285D01*
X62655000Y-182987857D01*
X62726428Y-182845000D01*
X62869286Y-182773571D01*
X63155000Y-182773571D01*
X63297857Y-182845000D01*
X63369286Y-182987857D01*
X63369286Y-183130714D01*
X62655000Y-183273571D01*
X64583571Y-183702142D02*
X64440714Y-183773571D01*
X64155000Y-183773571D01*
X64012143Y-183702142D01*
X63940714Y-183559285D01*
X63940714Y-182987857D01*
X64012143Y-182845000D01*
X64155000Y-182773571D01*
X64440714Y-182773571D01*
X64583571Y-182845000D01*
X64655000Y-182987857D01*
X64655000Y-183130714D01*
X63940714Y-183273571D01*
X65297857Y-182773571D02*
X65297857Y-183773571D01*
X65297857Y-182916428D02*
X65369286Y-182845000D01*
X65512143Y-182773571D01*
X65726428Y-182773571D01*
X65869286Y-182845000D01*
X65940714Y-182987857D01*
X65940714Y-183773571D01*
X70397857Y-166727857D02*
X69897857Y-166727857D01*
X69897857Y-167513571D02*
X69897857Y-166013571D01*
X70612143Y-166013571D01*
X72040715Y-167513571D02*
X71540715Y-166799285D01*
X71183572Y-167513571D02*
X71183572Y-166013571D01*
X71755000Y-166013571D01*
X71897857Y-166085000D01*
X71969286Y-166156428D01*
X72040715Y-166299285D01*
X72040715Y-166513571D01*
X71969286Y-166656428D01*
X71897857Y-166727857D01*
X71755000Y-166799285D01*
X71183572Y-166799285D01*
X73326429Y-166513571D02*
X73326429Y-167513571D01*
X72969286Y-165942142D02*
X72612143Y-167013571D01*
X73540715Y-167013571D01*
X86783572Y-161948571D02*
X86926429Y-161948571D01*
X87069286Y-162020000D01*
X87140715Y-162091428D01*
X87212143Y-162234285D01*
X87283572Y-162520000D01*
X87283572Y-162877142D01*
X87212143Y-163162857D01*
X87140715Y-163305714D01*
X87069286Y-163377142D01*
X86926429Y-163448571D01*
X86783572Y-163448571D01*
X86640715Y-163377142D01*
X86569286Y-163305714D01*
X86497857Y-163162857D01*
X86426429Y-162877142D01*
X86426429Y-162520000D01*
X86497857Y-162234285D01*
X86569286Y-162091428D01*
X86640715Y-162020000D01*
X86783572Y-161948571D01*
X87926429Y-163305714D02*
X87997857Y-163377142D01*
X87926429Y-163448571D01*
X87855000Y-163377142D01*
X87926429Y-163305714D01*
X87926429Y-163448571D01*
X88926429Y-161948571D02*
X89069286Y-161948571D01*
X89212143Y-162020000D01*
X89283572Y-162091428D01*
X89355000Y-162234285D01*
X89426429Y-162520000D01*
X89426429Y-162877142D01*
X89355000Y-163162857D01*
X89283572Y-163305714D01*
X89212143Y-163377142D01*
X89069286Y-163448571D01*
X88926429Y-163448571D01*
X88783572Y-163377142D01*
X88712143Y-163305714D01*
X88640715Y-163162857D01*
X88569286Y-162877142D01*
X88569286Y-162520000D01*
X88640715Y-162234285D01*
X88712143Y-162091428D01*
X88783572Y-162020000D01*
X88926429Y-161948571D01*
X89926429Y-161948571D02*
X90855000Y-161948571D01*
X90355000Y-162520000D01*
X90569286Y-162520000D01*
X90712143Y-162591428D01*
X90783572Y-162662857D01*
X90855000Y-162805714D01*
X90855000Y-163162857D01*
X90783572Y-163305714D01*
X90712143Y-163377142D01*
X90569286Y-163448571D01*
X90140715Y-163448571D01*
X89997857Y-163377142D01*
X89926429Y-163305714D01*
X92212143Y-161948571D02*
X91497857Y-161948571D01*
X91426429Y-162662857D01*
X91497857Y-162591428D01*
X91640715Y-162520000D01*
X91997857Y-162520000D01*
X92140715Y-162591428D01*
X92212143Y-162662857D01*
X92283572Y-162805714D01*
X92283572Y-163162857D01*
X92212143Y-163305714D01*
X92140715Y-163377142D01*
X91997857Y-163448571D01*
X91640715Y-163448571D01*
X91497857Y-163377142D01*
X91426429Y-163305714D01*
X94069286Y-163448571D02*
X94069286Y-162448571D01*
X94069286Y-162591428D02*
X94140715Y-162520000D01*
X94283572Y-162448571D01*
X94497857Y-162448571D01*
X94640715Y-162520000D01*
X94712143Y-162662857D01*
X94712143Y-163448571D01*
X94712143Y-162662857D02*
X94783572Y-162520000D01*
X94926429Y-162448571D01*
X95140715Y-162448571D01*
X95283572Y-162520000D01*
X95355000Y-162662857D01*
X95355000Y-163448571D01*
X96069286Y-163448571D02*
X96069286Y-162448571D01*
X96069286Y-162591428D02*
X96140715Y-162520000D01*
X96283572Y-162448571D01*
X96497857Y-162448571D01*
X96640715Y-162520000D01*
X96712143Y-162662857D01*
X96712143Y-163448571D01*
X96712143Y-162662857D02*
X96783572Y-162520000D01*
X96926429Y-162448571D01*
X97140715Y-162448571D01*
X97283572Y-162520000D01*
X97355000Y-162662857D01*
X97355000Y-163448571D01*
X135697857Y-149753571D02*
X135840714Y-149753571D01*
X135983571Y-149825000D01*
X136055000Y-149896428D01*
X136126428Y-150039285D01*
X136197857Y-150325000D01*
X136197857Y-150682142D01*
X136126428Y-150967857D01*
X136055000Y-151110714D01*
X135983571Y-151182142D01*
X135840714Y-151253571D01*
X135697857Y-151253571D01*
X135555000Y-151182142D01*
X135483571Y-151110714D01*
X135412142Y-150967857D01*
X135340714Y-150682142D01*
X135340714Y-150325000D01*
X135412142Y-150039285D01*
X135483571Y-149896428D01*
X135555000Y-149825000D01*
X135697857Y-149753571D01*
X136840714Y-151110714D02*
X136912142Y-151182142D01*
X136840714Y-151253571D01*
X136769285Y-151182142D01*
X136840714Y-151110714D01*
X136840714Y-151253571D01*
X137840714Y-149753571D02*
X137983571Y-149753571D01*
X138126428Y-149825000D01*
X138197857Y-149896428D01*
X138269285Y-150039285D01*
X138340714Y-150325000D01*
X138340714Y-150682142D01*
X138269285Y-150967857D01*
X138197857Y-151110714D01*
X138126428Y-151182142D01*
X137983571Y-151253571D01*
X137840714Y-151253571D01*
X137697857Y-151182142D01*
X137626428Y-151110714D01*
X137555000Y-150967857D01*
X137483571Y-150682142D01*
X137483571Y-150325000D01*
X137555000Y-150039285D01*
X137626428Y-149896428D01*
X137697857Y-149825000D01*
X137840714Y-149753571D01*
X138912142Y-149896428D02*
X138983571Y-149825000D01*
X139126428Y-149753571D01*
X139483571Y-149753571D01*
X139626428Y-149825000D01*
X139697857Y-149896428D01*
X139769285Y-150039285D01*
X139769285Y-150182142D01*
X139697857Y-150396428D01*
X138840714Y-151253571D01*
X139769285Y-151253571D01*
X29412142Y-167513571D02*
X29412142Y-166013571D01*
X29769285Y-166013571D01*
X29983571Y-166085000D01*
X30126428Y-166227857D01*
X30197857Y-166370714D01*
X30269285Y-166656428D01*
X30269285Y-166870714D01*
X30197857Y-167156428D01*
X30126428Y-167299285D01*
X29983571Y-167442142D01*
X29769285Y-167513571D01*
X29412142Y-167513571D01*
X30912142Y-167513571D02*
X30912142Y-166513571D01*
X30912142Y-166013571D02*
X30840714Y-166085000D01*
X30912142Y-166156428D01*
X30983571Y-166085000D01*
X30912142Y-166013571D01*
X30912142Y-166156428D01*
X32197857Y-167442142D02*
X32055000Y-167513571D01*
X31769285Y-167513571D01*
X31626428Y-167442142D01*
X31555000Y-167299285D01*
X31555000Y-166727857D01*
X31626428Y-166585000D01*
X31769285Y-166513571D01*
X32055000Y-166513571D01*
X32197857Y-166585000D01*
X32269285Y-166727857D01*
X32269285Y-166870714D01*
X31555000Y-167013571D01*
X33126428Y-167513571D02*
X32983571Y-167442142D01*
X32912142Y-167299285D01*
X32912142Y-166013571D01*
X34269285Y-167442142D02*
X34126428Y-167513571D01*
X33840714Y-167513571D01*
X33697857Y-167442142D01*
X33626428Y-167299285D01*
X33626428Y-166727857D01*
X33697857Y-166585000D01*
X33840714Y-166513571D01*
X34126428Y-166513571D01*
X34269285Y-166585000D01*
X34340714Y-166727857D01*
X34340714Y-166870714D01*
X33626428Y-167013571D01*
X35626428Y-167442142D02*
X35483571Y-167513571D01*
X35197857Y-167513571D01*
X35055000Y-167442142D01*
X34983571Y-167370714D01*
X34912142Y-167227857D01*
X34912142Y-166799285D01*
X34983571Y-166656428D01*
X35055000Y-166585000D01*
X35197857Y-166513571D01*
X35483571Y-166513571D01*
X35626428Y-166585000D01*
X36055000Y-166513571D02*
X36626428Y-166513571D01*
X36269285Y-166013571D02*
X36269285Y-167299285D01*
X36340714Y-167442142D01*
X36483571Y-167513571D01*
X36626428Y-167513571D01*
X37126428Y-167513571D02*
X37126428Y-166513571D01*
X37126428Y-166799285D02*
X37197857Y-166656428D01*
X37269285Y-166585000D01*
X37412142Y-166513571D01*
X37555000Y-166513571D01*
X38055000Y-167513571D02*
X38055000Y-166513571D01*
X38055000Y-166013571D02*
X37983571Y-166085000D01*
X38055000Y-166156428D01*
X38126428Y-166085000D01*
X38055000Y-166013571D01*
X38055000Y-166156428D01*
X39412142Y-167442142D02*
X39269285Y-167513571D01*
X38983571Y-167513571D01*
X38840714Y-167442142D01*
X38769285Y-167370714D01*
X38697857Y-167227857D01*
X38697857Y-166799285D01*
X38769285Y-166656428D01*
X38840714Y-166585000D01*
X38983571Y-166513571D01*
X39269285Y-166513571D01*
X39412142Y-166585000D01*
X45369286Y-163377142D02*
X45226428Y-163448571D01*
X44940714Y-163448571D01*
X44797857Y-163377142D01*
X44726428Y-163305714D01*
X44655000Y-163162857D01*
X44655000Y-162734285D01*
X44726428Y-162591428D01*
X44797857Y-162520000D01*
X44940714Y-162448571D01*
X45226428Y-162448571D01*
X45369286Y-162520000D01*
X46226428Y-163448571D02*
X46083571Y-163377142D01*
X46012143Y-163305714D01*
X45940714Y-163162857D01*
X45940714Y-162734285D01*
X46012143Y-162591428D01*
X46083571Y-162520000D01*
X46226428Y-162448571D01*
X46440714Y-162448571D01*
X46583571Y-162520000D01*
X46655000Y-162591428D01*
X46726428Y-162734285D01*
X46726428Y-163162857D01*
X46655000Y-163305714D01*
X46583571Y-163377142D01*
X46440714Y-163448571D01*
X46226428Y-163448571D01*
X47369286Y-162448571D02*
X47369286Y-163948571D01*
X47369286Y-162520000D02*
X47512143Y-162448571D01*
X47797857Y-162448571D01*
X47940714Y-162520000D01*
X48012143Y-162591428D01*
X48083571Y-162734285D01*
X48083571Y-163162857D01*
X48012143Y-163305714D01*
X47940714Y-163377142D01*
X47797857Y-163448571D01*
X47512143Y-163448571D01*
X47369286Y-163377142D01*
X48726428Y-162448571D02*
X48726428Y-163948571D01*
X48726428Y-162520000D02*
X48869286Y-162448571D01*
X49155000Y-162448571D01*
X49297857Y-162520000D01*
X49369286Y-162591428D01*
X49440714Y-162734285D01*
X49440714Y-163162857D01*
X49369286Y-163305714D01*
X49297857Y-163377142D01*
X49155000Y-163448571D01*
X48869286Y-163448571D01*
X48726428Y-163377142D01*
X50655000Y-163377142D02*
X50512143Y-163448571D01*
X50226428Y-163448571D01*
X50083571Y-163377142D01*
X50012143Y-163234285D01*
X50012143Y-162662857D01*
X50083571Y-162520000D01*
X50226428Y-162448571D01*
X50512143Y-162448571D01*
X50655000Y-162520000D01*
X50726428Y-162662857D01*
X50726428Y-162805714D01*
X50012143Y-162948571D01*
X51369286Y-163448571D02*
X51369286Y-162448571D01*
X51369286Y-162734285D02*
X51440714Y-162591428D01*
X51512143Y-162520000D01*
X51655000Y-162448571D01*
X51797857Y-162448571D01*
X135697857Y-170078571D02*
X135840714Y-170078571D01*
X135983571Y-170150000D01*
X136055000Y-170221428D01*
X136126428Y-170364285D01*
X136197857Y-170650000D01*
X136197857Y-171007142D01*
X136126428Y-171292857D01*
X136055000Y-171435714D01*
X135983571Y-171507142D01*
X135840714Y-171578571D01*
X135697857Y-171578571D01*
X135555000Y-171507142D01*
X135483571Y-171435714D01*
X135412142Y-171292857D01*
X135340714Y-171007142D01*
X135340714Y-170650000D01*
X135412142Y-170364285D01*
X135483571Y-170221428D01*
X135555000Y-170150000D01*
X135697857Y-170078571D01*
X122683571Y-141623571D02*
X123612143Y-141623571D01*
X123112143Y-142195000D01*
X123326428Y-142195000D01*
X123469286Y-142266428D01*
X123540714Y-142337857D01*
X123612143Y-142480714D01*
X123612143Y-142837857D01*
X123540714Y-142980714D01*
X123469286Y-143052142D01*
X123326428Y-143123571D01*
X122897857Y-143123571D01*
X122755000Y-143052142D01*
X122683571Y-142980714D01*
X124255000Y-142980714D02*
X124326428Y-143052142D01*
X124255000Y-143123571D01*
X124183571Y-143052142D01*
X124255000Y-142980714D01*
X124255000Y-143123571D01*
X124826428Y-141623571D02*
X125755000Y-141623571D01*
X125255000Y-142195000D01*
X125469286Y-142195000D01*
X125612143Y-142266428D01*
X125683571Y-142337857D01*
X125755000Y-142480714D01*
X125755000Y-142837857D01*
X125683571Y-142980714D01*
X125612143Y-143052142D01*
X125469286Y-143123571D01*
X125040714Y-143123571D01*
X124897857Y-143052142D01*
X124826428Y-142980714D01*
X45369286Y-147117142D02*
X45226428Y-147188571D01*
X44940714Y-147188571D01*
X44797857Y-147117142D01*
X44726428Y-147045714D01*
X44655000Y-146902857D01*
X44655000Y-146474285D01*
X44726428Y-146331428D01*
X44797857Y-146260000D01*
X44940714Y-146188571D01*
X45226428Y-146188571D01*
X45369286Y-146260000D01*
X46226428Y-147188571D02*
X46083571Y-147117142D01*
X46012143Y-147045714D01*
X45940714Y-146902857D01*
X45940714Y-146474285D01*
X46012143Y-146331428D01*
X46083571Y-146260000D01*
X46226428Y-146188571D01*
X46440714Y-146188571D01*
X46583571Y-146260000D01*
X46655000Y-146331428D01*
X46726428Y-146474285D01*
X46726428Y-146902857D01*
X46655000Y-147045714D01*
X46583571Y-147117142D01*
X46440714Y-147188571D01*
X46226428Y-147188571D01*
X47369286Y-146188571D02*
X47369286Y-147688571D01*
X47369286Y-146260000D02*
X47512143Y-146188571D01*
X47797857Y-146188571D01*
X47940714Y-146260000D01*
X48012143Y-146331428D01*
X48083571Y-146474285D01*
X48083571Y-146902857D01*
X48012143Y-147045714D01*
X47940714Y-147117142D01*
X47797857Y-147188571D01*
X47512143Y-147188571D01*
X47369286Y-147117142D01*
X48726428Y-146188571D02*
X48726428Y-147688571D01*
X48726428Y-146260000D02*
X48869286Y-146188571D01*
X49155000Y-146188571D01*
X49297857Y-146260000D01*
X49369286Y-146331428D01*
X49440714Y-146474285D01*
X49440714Y-146902857D01*
X49369286Y-147045714D01*
X49297857Y-147117142D01*
X49155000Y-147188571D01*
X48869286Y-147188571D01*
X48726428Y-147117142D01*
X50655000Y-147117142D02*
X50512143Y-147188571D01*
X50226428Y-147188571D01*
X50083571Y-147117142D01*
X50012143Y-146974285D01*
X50012143Y-146402857D01*
X50083571Y-146260000D01*
X50226428Y-146188571D01*
X50512143Y-146188571D01*
X50655000Y-146260000D01*
X50726428Y-146402857D01*
X50726428Y-146545714D01*
X50012143Y-146688571D01*
X51369286Y-147188571D02*
X51369286Y-146188571D01*
X51369286Y-146474285D02*
X51440714Y-146331428D01*
X51512143Y-146260000D01*
X51655000Y-146188571D01*
X51797857Y-146188571D01*
X122683571Y-174143571D02*
X123612143Y-174143571D01*
X123112143Y-174715000D01*
X123326428Y-174715000D01*
X123469286Y-174786428D01*
X123540714Y-174857857D01*
X123612143Y-175000714D01*
X123612143Y-175357857D01*
X123540714Y-175500714D01*
X123469286Y-175572142D01*
X123326428Y-175643571D01*
X122897857Y-175643571D01*
X122755000Y-175572142D01*
X122683571Y-175500714D01*
X124255000Y-175500714D02*
X124326428Y-175572142D01*
X124255000Y-175643571D01*
X124183571Y-175572142D01*
X124255000Y-175500714D01*
X124255000Y-175643571D01*
X124826428Y-174143571D02*
X125755000Y-174143571D01*
X125255000Y-174715000D01*
X125469286Y-174715000D01*
X125612143Y-174786428D01*
X125683571Y-174857857D01*
X125755000Y-175000714D01*
X125755000Y-175357857D01*
X125683571Y-175500714D01*
X125612143Y-175572142D01*
X125469286Y-175643571D01*
X125040714Y-175643571D01*
X124897857Y-175572142D01*
X124826428Y-175500714D01*
X123612143Y-147188571D02*
X122755000Y-147188571D01*
X123183571Y-147188571D02*
X123183571Y-145688571D01*
X123040714Y-145902857D01*
X122897857Y-146045714D01*
X122755000Y-146117142D01*
D11*
X86413572Y-129128571D02*
X87270715Y-129128571D01*
X86842143Y-130628571D02*
X86842143Y-129128571D01*
X87770715Y-130628571D02*
X87770715Y-129128571D01*
X88413572Y-130628571D02*
X88413572Y-129842857D01*
X88342143Y-129700000D01*
X88199286Y-129628571D01*
X87985000Y-129628571D01*
X87842143Y-129700000D01*
X87770715Y-129771428D01*
X89127857Y-130628571D02*
X89127857Y-129628571D01*
X89127857Y-129128571D02*
X89056429Y-129200000D01*
X89127857Y-129271428D01*
X89199286Y-129200000D01*
X89127857Y-129128571D01*
X89127857Y-129271428D01*
X90485000Y-130557142D02*
X90342143Y-130628571D01*
X90056429Y-130628571D01*
X89913572Y-130557142D01*
X89842143Y-130485714D01*
X89770715Y-130342857D01*
X89770715Y-129914285D01*
X89842143Y-129771428D01*
X89913572Y-129700000D01*
X90056429Y-129628571D01*
X90342143Y-129628571D01*
X90485000Y-129700000D01*
X91127857Y-130628571D02*
X91127857Y-129128571D01*
X91270715Y-130057142D02*
X91699286Y-130628571D01*
X91699286Y-129628571D02*
X91127857Y-130200000D01*
X92342143Y-129628571D02*
X92342143Y-130628571D01*
X92342143Y-129771428D02*
X92413572Y-129700000D01*
X92556429Y-129628571D01*
X92770715Y-129628571D01*
X92913572Y-129700000D01*
X92985000Y-129842857D01*
X92985000Y-130628571D01*
X94270715Y-130557142D02*
X94127857Y-130628571D01*
X93842143Y-130628571D01*
X93699286Y-130557142D01*
X93627857Y-130414285D01*
X93627857Y-129842857D01*
X93699286Y-129700000D01*
X93842143Y-129628571D01*
X94127857Y-129628571D01*
X94270715Y-129700000D01*
X94342143Y-129842857D01*
X94342143Y-129985714D01*
X93627857Y-130128571D01*
X94913572Y-130557142D02*
X95056429Y-130628571D01*
X95342143Y-130628571D01*
X95485000Y-130557142D01*
X95556429Y-130414285D01*
X95556429Y-130342857D01*
X95485000Y-130200000D01*
X95342143Y-130128571D01*
X95127857Y-130128571D01*
X94985000Y-130057142D01*
X94913572Y-129914285D01*
X94913572Y-129842857D01*
X94985000Y-129700000D01*
X95127857Y-129628571D01*
X95342143Y-129628571D01*
X95485000Y-129700000D01*
X96127857Y-130557142D02*
X96270715Y-130628571D01*
X96556429Y-130628571D01*
X96699286Y-130557142D01*
X96770715Y-130414285D01*
X96770715Y-130342857D01*
X96699286Y-130200000D01*
X96556429Y-130128571D01*
X96342143Y-130128571D01*
X96199286Y-130057142D01*
X96127857Y-129914285D01*
X96127857Y-129842857D01*
X96199286Y-129700000D01*
X96342143Y-129628571D01*
X96556429Y-129628571D01*
X96699286Y-129700000D01*
X98985000Y-131200000D02*
X98913572Y-131128571D01*
X98770715Y-130914285D01*
X98699286Y-130771428D01*
X98627857Y-130557142D01*
X98556429Y-130200000D01*
X98556429Y-129914285D01*
X98627857Y-129557142D01*
X98699286Y-129342857D01*
X98770715Y-129200000D01*
X98913572Y-128985714D01*
X98985000Y-128914285D01*
X99556429Y-130628571D02*
X99556429Y-129628571D01*
X99556429Y-129771428D02*
X99627857Y-129700000D01*
X99770715Y-129628571D01*
X99985000Y-129628571D01*
X100127857Y-129700000D01*
X100199286Y-129842857D01*
X100199286Y-130628571D01*
X100199286Y-129842857D02*
X100270715Y-129700000D01*
X100413572Y-129628571D01*
X100627857Y-129628571D01*
X100770715Y-129700000D01*
X100842143Y-129842857D01*
X100842143Y-130628571D01*
X101556429Y-130628571D02*
X101556429Y-129628571D01*
X101556429Y-129771428D02*
X101627857Y-129700000D01*
X101770715Y-129628571D01*
X101985000Y-129628571D01*
X102127857Y-129700000D01*
X102199286Y-129842857D01*
X102199286Y-130628571D01*
X102199286Y-129842857D02*
X102270715Y-129700000D01*
X102413572Y-129628571D01*
X102627857Y-129628571D01*
X102770715Y-129700000D01*
X102842143Y-129842857D01*
X102842143Y-130628571D01*
X103413572Y-131200000D02*
X103485000Y-131128571D01*
X103627857Y-130914285D01*
X103699286Y-130771428D01*
X103770715Y-130557142D01*
X103842143Y-130200000D01*
X103842143Y-129914285D01*
X103770715Y-129557142D01*
X103699286Y-129342857D01*
X103627857Y-129200000D01*
X103485000Y-128985714D01*
X103413572Y-128914285D01*
D10*
X135697857Y-161948571D02*
X135840714Y-161948571D01*
X135983571Y-162020000D01*
X136055000Y-162091428D01*
X136126428Y-162234285D01*
X136197857Y-162520000D01*
X136197857Y-162877142D01*
X136126428Y-163162857D01*
X136055000Y-163305714D01*
X135983571Y-163377142D01*
X135840714Y-163448571D01*
X135697857Y-163448571D01*
X135555000Y-163377142D01*
X135483571Y-163305714D01*
X135412142Y-163162857D01*
X135340714Y-162877142D01*
X135340714Y-162520000D01*
X135412142Y-162234285D01*
X135483571Y-162091428D01*
X135555000Y-162020000D01*
X135697857Y-161948571D01*
X69897857Y-143123571D02*
X69897857Y-141623571D01*
X70755000Y-143123571D01*
X70755000Y-141623571D01*
X71683572Y-143123571D02*
X71540715Y-143052142D01*
X71469286Y-142980714D01*
X71397857Y-142837857D01*
X71397857Y-142409285D01*
X71469286Y-142266428D01*
X71540715Y-142195000D01*
X71683572Y-142123571D01*
X71897857Y-142123571D01*
X72040715Y-142195000D01*
X72112143Y-142266428D01*
X72183572Y-142409285D01*
X72183572Y-142837857D01*
X72112143Y-142980714D01*
X72040715Y-143052142D01*
X71897857Y-143123571D01*
X71683572Y-143123571D01*
X72612143Y-142123571D02*
X73183572Y-142123571D01*
X72826429Y-141623571D02*
X72826429Y-142909285D01*
X72897857Y-143052142D01*
X73040715Y-143123571D01*
X73183572Y-143123571D01*
X74755000Y-143052142D02*
X74897857Y-143123571D01*
X75183572Y-143123571D01*
X75326429Y-143052142D01*
X75397857Y-142909285D01*
X75397857Y-142837857D01*
X75326429Y-142695000D01*
X75183572Y-142623571D01*
X74969286Y-142623571D01*
X74826429Y-142552142D01*
X74755000Y-142409285D01*
X74755000Y-142337857D01*
X74826429Y-142195000D01*
X74969286Y-142123571D01*
X75183572Y-142123571D01*
X75326429Y-142195000D01*
X76040715Y-142123571D02*
X76040715Y-143623571D01*
X76040715Y-142195000D02*
X76183572Y-142123571D01*
X76469286Y-142123571D01*
X76612143Y-142195000D01*
X76683572Y-142266428D01*
X76755000Y-142409285D01*
X76755000Y-142837857D01*
X76683572Y-142980714D01*
X76612143Y-143052142D01*
X76469286Y-143123571D01*
X76183572Y-143123571D01*
X76040715Y-143052142D01*
X77969286Y-143052142D02*
X77826429Y-143123571D01*
X77540715Y-143123571D01*
X77397857Y-143052142D01*
X77326429Y-142909285D01*
X77326429Y-142337857D01*
X77397857Y-142195000D01*
X77540715Y-142123571D01*
X77826429Y-142123571D01*
X77969286Y-142195000D01*
X78040715Y-142337857D01*
X78040715Y-142480714D01*
X77326429Y-142623571D01*
X79326429Y-143052142D02*
X79183572Y-143123571D01*
X78897857Y-143123571D01*
X78755000Y-143052142D01*
X78683572Y-142980714D01*
X78612143Y-142837857D01*
X78612143Y-142409285D01*
X78683572Y-142266428D01*
X78755000Y-142195000D01*
X78897857Y-142123571D01*
X79183572Y-142123571D01*
X79326429Y-142195000D01*
X79969286Y-143123571D02*
X79969286Y-142123571D01*
X79969286Y-141623571D02*
X79897857Y-141695000D01*
X79969286Y-141766428D01*
X80040715Y-141695000D01*
X79969286Y-141623571D01*
X79969286Y-141766428D01*
X80469286Y-142123571D02*
X81040715Y-142123571D01*
X80683572Y-143123571D02*
X80683572Y-141837857D01*
X80755000Y-141695000D01*
X80897857Y-141623571D01*
X81040715Y-141623571D01*
X81540715Y-143123571D02*
X81540715Y-142123571D01*
X81540715Y-141623571D02*
X81469286Y-141695000D01*
X81540715Y-141766428D01*
X81612143Y-141695000D01*
X81540715Y-141623571D01*
X81540715Y-141766428D01*
X82826429Y-143052142D02*
X82683572Y-143123571D01*
X82397857Y-143123571D01*
X82255000Y-143052142D01*
X82183572Y-142909285D01*
X82183572Y-142337857D01*
X82255000Y-142195000D01*
X82397857Y-142123571D01*
X82683572Y-142123571D01*
X82826429Y-142195000D01*
X82897857Y-142337857D01*
X82897857Y-142480714D01*
X82183572Y-142623571D01*
X84183572Y-143123571D02*
X84183572Y-141623571D01*
X84183572Y-143052142D02*
X84040715Y-143123571D01*
X83755000Y-143123571D01*
X83612143Y-143052142D01*
X83540715Y-142980714D01*
X83469286Y-142837857D01*
X83469286Y-142409285D01*
X83540715Y-142266428D01*
X83612143Y-142195000D01*
X83755000Y-142123571D01*
X84040715Y-142123571D01*
X84183572Y-142195000D01*
X135697857Y-182273571D02*
X135840714Y-182273571D01*
X135983571Y-182345000D01*
X136055000Y-182416428D01*
X136126428Y-182559285D01*
X136197857Y-182845000D01*
X136197857Y-183202142D01*
X136126428Y-183487857D01*
X136055000Y-183630714D01*
X135983571Y-183702142D01*
X135840714Y-183773571D01*
X135697857Y-183773571D01*
X135555000Y-183702142D01*
X135483571Y-183630714D01*
X135412142Y-183487857D01*
X135340714Y-183202142D01*
X135340714Y-182845000D01*
X135412142Y-182559285D01*
X135483571Y-182416428D01*
X135555000Y-182345000D01*
X135697857Y-182273571D01*
X123612143Y-179708571D02*
X122755000Y-179708571D01*
X123183571Y-179708571D02*
X123183571Y-178208571D01*
X123040714Y-178422857D01*
X122897857Y-178565714D01*
X122755000Y-178637142D01*
D11*
X107213571Y-130485714D02*
X107142143Y-130557142D01*
X106927857Y-130628571D01*
X106785000Y-130628571D01*
X106570714Y-130557142D01*
X106427857Y-130414285D01*
X106356428Y-130271428D01*
X106285000Y-129985714D01*
X106285000Y-129771428D01*
X106356428Y-129485714D01*
X106427857Y-129342857D01*
X106570714Y-129200000D01*
X106785000Y-129128571D01*
X106927857Y-129128571D01*
X107142143Y-129200000D01*
X107213571Y-129271428D01*
X108070714Y-130628571D02*
X107927857Y-130557142D01*
X107856428Y-130485714D01*
X107785000Y-130342857D01*
X107785000Y-129914285D01*
X107856428Y-129771428D01*
X107927857Y-129700000D01*
X108070714Y-129628571D01*
X108285000Y-129628571D01*
X108427857Y-129700000D01*
X108499286Y-129771428D01*
X108570714Y-129914285D01*
X108570714Y-130342857D01*
X108499286Y-130485714D01*
X108427857Y-130557142D01*
X108285000Y-130628571D01*
X108070714Y-130628571D01*
X109427857Y-130628571D02*
X109285000Y-130557142D01*
X109213571Y-130414285D01*
X109213571Y-129128571D01*
X110213571Y-130628571D02*
X110070714Y-130557142D01*
X109999286Y-130485714D01*
X109927857Y-130342857D01*
X109927857Y-129914285D01*
X109999286Y-129771428D01*
X110070714Y-129700000D01*
X110213571Y-129628571D01*
X110427857Y-129628571D01*
X110570714Y-129700000D01*
X110642143Y-129771428D01*
X110713571Y-129914285D01*
X110713571Y-130342857D01*
X110642143Y-130485714D01*
X110570714Y-130557142D01*
X110427857Y-130628571D01*
X110213571Y-130628571D01*
X111356428Y-130628571D02*
X111356428Y-129628571D01*
X111356428Y-129914285D02*
X111427857Y-129771428D01*
X111499286Y-129700000D01*
X111642143Y-129628571D01*
X111785000Y-129628571D01*
D10*
X69897857Y-183773571D02*
X69897857Y-182273571D01*
X70755000Y-183773571D01*
X70755000Y-182273571D01*
X71683572Y-183773571D02*
X71540715Y-183702142D01*
X71469286Y-183630714D01*
X71397857Y-183487857D01*
X71397857Y-183059285D01*
X71469286Y-182916428D01*
X71540715Y-182845000D01*
X71683572Y-182773571D01*
X71897857Y-182773571D01*
X72040715Y-182845000D01*
X72112143Y-182916428D01*
X72183572Y-183059285D01*
X72183572Y-183487857D01*
X72112143Y-183630714D01*
X72040715Y-183702142D01*
X71897857Y-183773571D01*
X71683572Y-183773571D01*
X72612143Y-182773571D02*
X73183572Y-182773571D01*
X72826429Y-182273571D02*
X72826429Y-183559285D01*
X72897857Y-183702142D01*
X73040715Y-183773571D01*
X73183572Y-183773571D01*
X74755000Y-183702142D02*
X74897857Y-183773571D01*
X75183572Y-183773571D01*
X75326429Y-183702142D01*
X75397857Y-183559285D01*
X75397857Y-183487857D01*
X75326429Y-183345000D01*
X75183572Y-183273571D01*
X74969286Y-183273571D01*
X74826429Y-183202142D01*
X74755000Y-183059285D01*
X74755000Y-182987857D01*
X74826429Y-182845000D01*
X74969286Y-182773571D01*
X75183572Y-182773571D01*
X75326429Y-182845000D01*
X76040715Y-182773571D02*
X76040715Y-184273571D01*
X76040715Y-182845000D02*
X76183572Y-182773571D01*
X76469286Y-182773571D01*
X76612143Y-182845000D01*
X76683572Y-182916428D01*
X76755000Y-183059285D01*
X76755000Y-183487857D01*
X76683572Y-183630714D01*
X76612143Y-183702142D01*
X76469286Y-183773571D01*
X76183572Y-183773571D01*
X76040715Y-183702142D01*
X77969286Y-183702142D02*
X77826429Y-183773571D01*
X77540715Y-183773571D01*
X77397857Y-183702142D01*
X77326429Y-183559285D01*
X77326429Y-182987857D01*
X77397857Y-182845000D01*
X77540715Y-182773571D01*
X77826429Y-182773571D01*
X77969286Y-182845000D01*
X78040715Y-182987857D01*
X78040715Y-183130714D01*
X77326429Y-183273571D01*
X79326429Y-183702142D02*
X79183572Y-183773571D01*
X78897857Y-183773571D01*
X78755000Y-183702142D01*
X78683572Y-183630714D01*
X78612143Y-183487857D01*
X78612143Y-183059285D01*
X78683572Y-182916428D01*
X78755000Y-182845000D01*
X78897857Y-182773571D01*
X79183572Y-182773571D01*
X79326429Y-182845000D01*
X79969286Y-183773571D02*
X79969286Y-182773571D01*
X79969286Y-182273571D02*
X79897857Y-182345000D01*
X79969286Y-182416428D01*
X80040715Y-182345000D01*
X79969286Y-182273571D01*
X79969286Y-182416428D01*
X80469286Y-182773571D02*
X81040715Y-182773571D01*
X80683572Y-183773571D02*
X80683572Y-182487857D01*
X80755000Y-182345000D01*
X80897857Y-182273571D01*
X81040715Y-182273571D01*
X81540715Y-183773571D02*
X81540715Y-182773571D01*
X81540715Y-182273571D02*
X81469286Y-182345000D01*
X81540715Y-182416428D01*
X81612143Y-182345000D01*
X81540715Y-182273571D01*
X81540715Y-182416428D01*
X82826429Y-183702142D02*
X82683572Y-183773571D01*
X82397857Y-183773571D01*
X82255000Y-183702142D01*
X82183572Y-183559285D01*
X82183572Y-182987857D01*
X82255000Y-182845000D01*
X82397857Y-182773571D01*
X82683572Y-182773571D01*
X82826429Y-182845000D01*
X82897857Y-182987857D01*
X82897857Y-183130714D01*
X82183572Y-183273571D01*
X84183572Y-183773571D02*
X84183572Y-182273571D01*
X84183572Y-183702142D02*
X84040715Y-183773571D01*
X83755000Y-183773571D01*
X83612143Y-183702142D01*
X83540715Y-183630714D01*
X83469286Y-183487857D01*
X83469286Y-183059285D01*
X83540715Y-182916428D01*
X83612143Y-182845000D01*
X83755000Y-182773571D01*
X84040715Y-182773571D01*
X84183572Y-182845000D01*
X135697857Y-166013571D02*
X135840714Y-166013571D01*
X135983571Y-166085000D01*
X136055000Y-166156428D01*
X136126428Y-166299285D01*
X136197857Y-166585000D01*
X136197857Y-166942142D01*
X136126428Y-167227857D01*
X136055000Y-167370714D01*
X135983571Y-167442142D01*
X135840714Y-167513571D01*
X135697857Y-167513571D01*
X135555000Y-167442142D01*
X135483571Y-167370714D01*
X135412142Y-167227857D01*
X135340714Y-166942142D01*
X135340714Y-166585000D01*
X135412142Y-166299285D01*
X135483571Y-166156428D01*
X135555000Y-166085000D01*
X135697857Y-166013571D01*
X136840714Y-167370714D02*
X136912142Y-167442142D01*
X136840714Y-167513571D01*
X136769285Y-167442142D01*
X136840714Y-167370714D01*
X136840714Y-167513571D01*
X137840714Y-166013571D02*
X137983571Y-166013571D01*
X138126428Y-166085000D01*
X138197857Y-166156428D01*
X138269285Y-166299285D01*
X138340714Y-166585000D01*
X138340714Y-166942142D01*
X138269285Y-167227857D01*
X138197857Y-167370714D01*
X138126428Y-167442142D01*
X137983571Y-167513571D01*
X137840714Y-167513571D01*
X137697857Y-167442142D01*
X137626428Y-167370714D01*
X137555000Y-167227857D01*
X137483571Y-166942142D01*
X137483571Y-166585000D01*
X137555000Y-166299285D01*
X137626428Y-166156428D01*
X137697857Y-166085000D01*
X137840714Y-166013571D01*
X138912142Y-166156428D02*
X138983571Y-166085000D01*
X139126428Y-166013571D01*
X139483571Y-166013571D01*
X139626428Y-166085000D01*
X139697857Y-166156428D01*
X139769285Y-166299285D01*
X139769285Y-166442142D01*
X139697857Y-166656428D01*
X138840714Y-167513571D01*
X139769285Y-167513571D01*
X106226428Y-143123571D02*
X106226428Y-141623571D01*
X107083571Y-143123571D01*
X107083571Y-141623571D01*
X108012143Y-143123571D02*
X107869286Y-143052142D01*
X107797857Y-142980714D01*
X107726428Y-142837857D01*
X107726428Y-142409285D01*
X107797857Y-142266428D01*
X107869286Y-142195000D01*
X108012143Y-142123571D01*
X108226428Y-142123571D01*
X108369286Y-142195000D01*
X108440714Y-142266428D01*
X108512143Y-142409285D01*
X108512143Y-142837857D01*
X108440714Y-142980714D01*
X108369286Y-143052142D01*
X108226428Y-143123571D01*
X108012143Y-143123571D01*
X108940714Y-142123571D02*
X109512143Y-142123571D01*
X109155000Y-141623571D02*
X109155000Y-142909285D01*
X109226428Y-143052142D01*
X109369286Y-143123571D01*
X109512143Y-143123571D01*
X111083571Y-143052142D02*
X111226428Y-143123571D01*
X111512143Y-143123571D01*
X111655000Y-143052142D01*
X111726428Y-142909285D01*
X111726428Y-142837857D01*
X111655000Y-142695000D01*
X111512143Y-142623571D01*
X111297857Y-142623571D01*
X111155000Y-142552142D01*
X111083571Y-142409285D01*
X111083571Y-142337857D01*
X111155000Y-142195000D01*
X111297857Y-142123571D01*
X111512143Y-142123571D01*
X111655000Y-142195000D01*
X112369286Y-142123571D02*
X112369286Y-143623571D01*
X112369286Y-142195000D02*
X112512143Y-142123571D01*
X112797857Y-142123571D01*
X112940714Y-142195000D01*
X113012143Y-142266428D01*
X113083571Y-142409285D01*
X113083571Y-142837857D01*
X113012143Y-142980714D01*
X112940714Y-143052142D01*
X112797857Y-143123571D01*
X112512143Y-143123571D01*
X112369286Y-143052142D01*
X114297857Y-143052142D02*
X114155000Y-143123571D01*
X113869286Y-143123571D01*
X113726428Y-143052142D01*
X113655000Y-142909285D01*
X113655000Y-142337857D01*
X113726428Y-142195000D01*
X113869286Y-142123571D01*
X114155000Y-142123571D01*
X114297857Y-142195000D01*
X114369286Y-142337857D01*
X114369286Y-142480714D01*
X113655000Y-142623571D01*
X115655000Y-143052142D02*
X115512143Y-143123571D01*
X115226428Y-143123571D01*
X115083571Y-143052142D01*
X115012143Y-142980714D01*
X114940714Y-142837857D01*
X114940714Y-142409285D01*
X115012143Y-142266428D01*
X115083571Y-142195000D01*
X115226428Y-142123571D01*
X115512143Y-142123571D01*
X115655000Y-142195000D01*
X116297857Y-143123571D02*
X116297857Y-142123571D01*
X116297857Y-141623571D02*
X116226428Y-141695000D01*
X116297857Y-141766428D01*
X116369286Y-141695000D01*
X116297857Y-141623571D01*
X116297857Y-141766428D01*
X116797857Y-142123571D02*
X117369286Y-142123571D01*
X117012143Y-143123571D02*
X117012143Y-141837857D01*
X117083571Y-141695000D01*
X117226428Y-141623571D01*
X117369286Y-141623571D01*
X117869286Y-143123571D02*
X117869286Y-142123571D01*
X117869286Y-141623571D02*
X117797857Y-141695000D01*
X117869286Y-141766428D01*
X117940714Y-141695000D01*
X117869286Y-141623571D01*
X117869286Y-141766428D01*
X119155000Y-143052142D02*
X119012143Y-143123571D01*
X118726428Y-143123571D01*
X118583571Y-143052142D01*
X118512143Y-142909285D01*
X118512143Y-142337857D01*
X118583571Y-142195000D01*
X118726428Y-142123571D01*
X119012143Y-142123571D01*
X119155000Y-142195000D01*
X119226428Y-142337857D01*
X119226428Y-142480714D01*
X118512143Y-142623571D01*
X120512143Y-143123571D02*
X120512143Y-141623571D01*
X120512143Y-143052142D02*
X120369286Y-143123571D01*
X120083571Y-143123571D01*
X119940714Y-143052142D01*
X119869286Y-142980714D01*
X119797857Y-142837857D01*
X119797857Y-142409285D01*
X119869286Y-142266428D01*
X119940714Y-142195000D01*
X120083571Y-142123571D01*
X120369286Y-142123571D01*
X120512143Y-142195000D01*
X86783572Y-174143571D02*
X86926429Y-174143571D01*
X87069286Y-174215000D01*
X87140715Y-174286428D01*
X87212143Y-174429285D01*
X87283572Y-174715000D01*
X87283572Y-175072142D01*
X87212143Y-175357857D01*
X87140715Y-175500714D01*
X87069286Y-175572142D01*
X86926429Y-175643571D01*
X86783572Y-175643571D01*
X86640715Y-175572142D01*
X86569286Y-175500714D01*
X86497857Y-175357857D01*
X86426429Y-175072142D01*
X86426429Y-174715000D01*
X86497857Y-174429285D01*
X86569286Y-174286428D01*
X86640715Y-174215000D01*
X86783572Y-174143571D01*
X87926429Y-175500714D02*
X87997857Y-175572142D01*
X87926429Y-175643571D01*
X87855000Y-175572142D01*
X87926429Y-175500714D01*
X87926429Y-175643571D01*
X88926429Y-174143571D02*
X89069286Y-174143571D01*
X89212143Y-174215000D01*
X89283572Y-174286428D01*
X89355000Y-174429285D01*
X89426429Y-174715000D01*
X89426429Y-175072142D01*
X89355000Y-175357857D01*
X89283572Y-175500714D01*
X89212143Y-175572142D01*
X89069286Y-175643571D01*
X88926429Y-175643571D01*
X88783572Y-175572142D01*
X88712143Y-175500714D01*
X88640715Y-175357857D01*
X88569286Y-175072142D01*
X88569286Y-174715000D01*
X88640715Y-174429285D01*
X88712143Y-174286428D01*
X88783572Y-174215000D01*
X88926429Y-174143571D01*
X90855000Y-175643571D02*
X89997857Y-175643571D01*
X90426429Y-175643571D02*
X90426429Y-174143571D01*
X90283572Y-174357857D01*
X90140715Y-174500714D01*
X89997857Y-174572142D01*
X92640715Y-175643571D02*
X92640715Y-174643571D01*
X92640715Y-174786428D02*
X92712143Y-174715000D01*
X92855000Y-174643571D01*
X93069286Y-174643571D01*
X93212143Y-174715000D01*
X93283572Y-174857857D01*
X93283572Y-175643571D01*
X93283572Y-174857857D02*
X93355000Y-174715000D01*
X93497857Y-174643571D01*
X93712143Y-174643571D01*
X93855000Y-174715000D01*
X93926429Y-174857857D01*
X93926429Y-175643571D01*
X94640715Y-175643571D02*
X94640715Y-174643571D01*
X94640715Y-174786428D02*
X94712143Y-174715000D01*
X94855000Y-174643571D01*
X95069286Y-174643571D01*
X95212143Y-174715000D01*
X95283572Y-174857857D01*
X95283572Y-175643571D01*
X95283572Y-174857857D02*
X95355000Y-174715000D01*
X95497857Y-174643571D01*
X95712143Y-174643571D01*
X95855000Y-174715000D01*
X95926429Y-174857857D01*
X95926429Y-175643571D01*
X86783572Y-170078571D02*
X86926429Y-170078571D01*
X87069286Y-170150000D01*
X87140715Y-170221428D01*
X87212143Y-170364285D01*
X87283572Y-170650000D01*
X87283572Y-171007142D01*
X87212143Y-171292857D01*
X87140715Y-171435714D01*
X87069286Y-171507142D01*
X86926429Y-171578571D01*
X86783572Y-171578571D01*
X86640715Y-171507142D01*
X86569286Y-171435714D01*
X86497857Y-171292857D01*
X86426429Y-171007142D01*
X86426429Y-170650000D01*
X86497857Y-170364285D01*
X86569286Y-170221428D01*
X86640715Y-170150000D01*
X86783572Y-170078571D01*
X87926429Y-171435714D02*
X87997857Y-171507142D01*
X87926429Y-171578571D01*
X87855000Y-171507142D01*
X87926429Y-171435714D01*
X87926429Y-171578571D01*
X88926429Y-170078571D02*
X89069286Y-170078571D01*
X89212143Y-170150000D01*
X89283572Y-170221428D01*
X89355000Y-170364285D01*
X89426429Y-170650000D01*
X89426429Y-171007142D01*
X89355000Y-171292857D01*
X89283572Y-171435714D01*
X89212143Y-171507142D01*
X89069286Y-171578571D01*
X88926429Y-171578571D01*
X88783572Y-171507142D01*
X88712143Y-171435714D01*
X88640715Y-171292857D01*
X88569286Y-171007142D01*
X88569286Y-170650000D01*
X88640715Y-170364285D01*
X88712143Y-170221428D01*
X88783572Y-170150000D01*
X88926429Y-170078571D01*
X89926429Y-170078571D02*
X90855000Y-170078571D01*
X90355000Y-170650000D01*
X90569286Y-170650000D01*
X90712143Y-170721428D01*
X90783572Y-170792857D01*
X90855000Y-170935714D01*
X90855000Y-171292857D01*
X90783572Y-171435714D01*
X90712143Y-171507142D01*
X90569286Y-171578571D01*
X90140715Y-171578571D01*
X89997857Y-171507142D01*
X89926429Y-171435714D01*
X92212143Y-170078571D02*
X91497857Y-170078571D01*
X91426429Y-170792857D01*
X91497857Y-170721428D01*
X91640715Y-170650000D01*
X91997857Y-170650000D01*
X92140715Y-170721428D01*
X92212143Y-170792857D01*
X92283572Y-170935714D01*
X92283572Y-171292857D01*
X92212143Y-171435714D01*
X92140715Y-171507142D01*
X91997857Y-171578571D01*
X91640715Y-171578571D01*
X91497857Y-171507142D01*
X91426429Y-171435714D01*
X94069286Y-171578571D02*
X94069286Y-170578571D01*
X94069286Y-170721428D02*
X94140715Y-170650000D01*
X94283572Y-170578571D01*
X94497857Y-170578571D01*
X94640715Y-170650000D01*
X94712143Y-170792857D01*
X94712143Y-171578571D01*
X94712143Y-170792857D02*
X94783572Y-170650000D01*
X94926429Y-170578571D01*
X95140715Y-170578571D01*
X95283572Y-170650000D01*
X95355000Y-170792857D01*
X95355000Y-171578571D01*
X96069286Y-171578571D02*
X96069286Y-170578571D01*
X96069286Y-170721428D02*
X96140715Y-170650000D01*
X96283572Y-170578571D01*
X96497857Y-170578571D01*
X96640715Y-170650000D01*
X96712143Y-170792857D01*
X96712143Y-171578571D01*
X96712143Y-170792857D02*
X96783572Y-170650000D01*
X96926429Y-170578571D01*
X97140715Y-170578571D01*
X97283572Y-170650000D01*
X97355000Y-170792857D01*
X97355000Y-171578571D01*
D11*
X70027857Y-130628571D02*
X70027857Y-129128571D01*
X70527857Y-130200000D01*
X71027857Y-129128571D01*
X71027857Y-130628571D01*
X72385000Y-130628571D02*
X72385000Y-129842857D01*
X72313572Y-129700000D01*
X72170715Y-129628571D01*
X71885000Y-129628571D01*
X71742143Y-129700000D01*
X72385000Y-130557142D02*
X72242143Y-130628571D01*
X71885000Y-130628571D01*
X71742143Y-130557142D01*
X71670715Y-130414285D01*
X71670715Y-130271428D01*
X71742143Y-130128571D01*
X71885000Y-130057142D01*
X72242143Y-130057142D01*
X72385000Y-129985714D01*
X72885000Y-129628571D02*
X73456429Y-129628571D01*
X73099286Y-129128571D02*
X73099286Y-130414285D01*
X73170715Y-130557142D01*
X73313572Y-130628571D01*
X73456429Y-130628571D01*
X74527857Y-130557142D02*
X74385000Y-130628571D01*
X74099286Y-130628571D01*
X73956429Y-130557142D01*
X73885000Y-130414285D01*
X73885000Y-129842857D01*
X73956429Y-129700000D01*
X74099286Y-129628571D01*
X74385000Y-129628571D01*
X74527857Y-129700000D01*
X74599286Y-129842857D01*
X74599286Y-129985714D01*
X73885000Y-130128571D01*
X75242143Y-130628571D02*
X75242143Y-129628571D01*
X75242143Y-129914285D02*
X75313572Y-129771428D01*
X75385000Y-129700000D01*
X75527857Y-129628571D01*
X75670715Y-129628571D01*
X76170715Y-130628571D02*
X76170715Y-129628571D01*
X76170715Y-129128571D02*
X76099286Y-129200000D01*
X76170715Y-129271428D01*
X76242143Y-129200000D01*
X76170715Y-129128571D01*
X76170715Y-129271428D01*
X77527857Y-130628571D02*
X77527857Y-129842857D01*
X77456429Y-129700000D01*
X77313572Y-129628571D01*
X77027857Y-129628571D01*
X76885000Y-129700000D01*
X77527857Y-130557142D02*
X77385000Y-130628571D01*
X77027857Y-130628571D01*
X76885000Y-130557142D01*
X76813572Y-130414285D01*
X76813572Y-130271428D01*
X76885000Y-130128571D01*
X77027857Y-130057142D01*
X77385000Y-130057142D01*
X77527857Y-129985714D01*
X78456429Y-130628571D02*
X78313572Y-130557142D01*
X78242143Y-130414285D01*
X78242143Y-129128571D01*
D10*
X29412142Y-159383571D02*
X29412142Y-157883571D01*
X29769285Y-157883571D01*
X29983571Y-157955000D01*
X30126428Y-158097857D01*
X30197857Y-158240714D01*
X30269285Y-158526428D01*
X30269285Y-158740714D01*
X30197857Y-159026428D01*
X30126428Y-159169285D01*
X29983571Y-159312142D01*
X29769285Y-159383571D01*
X29412142Y-159383571D01*
X30912142Y-159383571D02*
X30912142Y-158383571D01*
X30912142Y-157883571D02*
X30840714Y-157955000D01*
X30912142Y-158026428D01*
X30983571Y-157955000D01*
X30912142Y-157883571D01*
X30912142Y-158026428D01*
X32197857Y-159312142D02*
X32055000Y-159383571D01*
X31769285Y-159383571D01*
X31626428Y-159312142D01*
X31555000Y-159169285D01*
X31555000Y-158597857D01*
X31626428Y-158455000D01*
X31769285Y-158383571D01*
X32055000Y-158383571D01*
X32197857Y-158455000D01*
X32269285Y-158597857D01*
X32269285Y-158740714D01*
X31555000Y-158883571D01*
X33126428Y-159383571D02*
X32983571Y-159312142D01*
X32912142Y-159169285D01*
X32912142Y-157883571D01*
X34269285Y-159312142D02*
X34126428Y-159383571D01*
X33840714Y-159383571D01*
X33697857Y-159312142D01*
X33626428Y-159169285D01*
X33626428Y-158597857D01*
X33697857Y-158455000D01*
X33840714Y-158383571D01*
X34126428Y-158383571D01*
X34269285Y-158455000D01*
X34340714Y-158597857D01*
X34340714Y-158740714D01*
X33626428Y-158883571D01*
X35626428Y-159312142D02*
X35483571Y-159383571D01*
X35197857Y-159383571D01*
X35055000Y-159312142D01*
X34983571Y-159240714D01*
X34912142Y-159097857D01*
X34912142Y-158669285D01*
X34983571Y-158526428D01*
X35055000Y-158455000D01*
X35197857Y-158383571D01*
X35483571Y-158383571D01*
X35626428Y-158455000D01*
X36055000Y-158383571D02*
X36626428Y-158383571D01*
X36269285Y-157883571D02*
X36269285Y-159169285D01*
X36340714Y-159312142D01*
X36483571Y-159383571D01*
X36626428Y-159383571D01*
X37126428Y-159383571D02*
X37126428Y-158383571D01*
X37126428Y-158669285D02*
X37197857Y-158526428D01*
X37269285Y-158455000D01*
X37412142Y-158383571D01*
X37555000Y-158383571D01*
X38055000Y-159383571D02*
X38055000Y-158383571D01*
X38055000Y-157883571D02*
X37983571Y-157955000D01*
X38055000Y-158026428D01*
X38126428Y-157955000D01*
X38055000Y-157883571D01*
X38055000Y-158026428D01*
X39412142Y-159312142D02*
X39269285Y-159383571D01*
X38983571Y-159383571D01*
X38840714Y-159312142D01*
X38769285Y-159240714D01*
X38697857Y-159097857D01*
X38697857Y-158669285D01*
X38769285Y-158526428D01*
X38840714Y-158455000D01*
X38983571Y-158383571D01*
X39269285Y-158383571D01*
X39412142Y-158455000D01*
X106226428Y-134993571D02*
X106226428Y-133493571D01*
X107083571Y-134993571D01*
X107083571Y-133493571D01*
X108012143Y-134993571D02*
X107869286Y-134922142D01*
X107797857Y-134850714D01*
X107726428Y-134707857D01*
X107726428Y-134279285D01*
X107797857Y-134136428D01*
X107869286Y-134065000D01*
X108012143Y-133993571D01*
X108226428Y-133993571D01*
X108369286Y-134065000D01*
X108440714Y-134136428D01*
X108512143Y-134279285D01*
X108512143Y-134707857D01*
X108440714Y-134850714D01*
X108369286Y-134922142D01*
X108226428Y-134993571D01*
X108012143Y-134993571D01*
X108940714Y-133993571D02*
X109512143Y-133993571D01*
X109155000Y-133493571D02*
X109155000Y-134779285D01*
X109226428Y-134922142D01*
X109369286Y-134993571D01*
X109512143Y-134993571D01*
X111083571Y-134922142D02*
X111226428Y-134993571D01*
X111512143Y-134993571D01*
X111655000Y-134922142D01*
X111726428Y-134779285D01*
X111726428Y-134707857D01*
X111655000Y-134565000D01*
X111512143Y-134493571D01*
X111297857Y-134493571D01*
X111155000Y-134422142D01*
X111083571Y-134279285D01*
X111083571Y-134207857D01*
X111155000Y-134065000D01*
X111297857Y-133993571D01*
X111512143Y-133993571D01*
X111655000Y-134065000D01*
X112369286Y-133993571D02*
X112369286Y-135493571D01*
X112369286Y-134065000D02*
X112512143Y-133993571D01*
X112797857Y-133993571D01*
X112940714Y-134065000D01*
X113012143Y-134136428D01*
X113083571Y-134279285D01*
X113083571Y-134707857D01*
X113012143Y-134850714D01*
X112940714Y-134922142D01*
X112797857Y-134993571D01*
X112512143Y-134993571D01*
X112369286Y-134922142D01*
X114297857Y-134922142D02*
X114155000Y-134993571D01*
X113869286Y-134993571D01*
X113726428Y-134922142D01*
X113655000Y-134779285D01*
X113655000Y-134207857D01*
X113726428Y-134065000D01*
X113869286Y-133993571D01*
X114155000Y-133993571D01*
X114297857Y-134065000D01*
X114369286Y-134207857D01*
X114369286Y-134350714D01*
X113655000Y-134493571D01*
X115655000Y-134922142D02*
X115512143Y-134993571D01*
X115226428Y-134993571D01*
X115083571Y-134922142D01*
X115012143Y-134850714D01*
X114940714Y-134707857D01*
X114940714Y-134279285D01*
X115012143Y-134136428D01*
X115083571Y-134065000D01*
X115226428Y-133993571D01*
X115512143Y-133993571D01*
X115655000Y-134065000D01*
X116297857Y-134993571D02*
X116297857Y-133993571D01*
X116297857Y-133493571D02*
X116226428Y-133565000D01*
X116297857Y-133636428D01*
X116369286Y-133565000D01*
X116297857Y-133493571D01*
X116297857Y-133636428D01*
X116797857Y-133993571D02*
X117369286Y-133993571D01*
X117012143Y-134993571D02*
X117012143Y-133707857D01*
X117083571Y-133565000D01*
X117226428Y-133493571D01*
X117369286Y-133493571D01*
X117869286Y-134993571D02*
X117869286Y-133993571D01*
X117869286Y-133493571D02*
X117797857Y-133565000D01*
X117869286Y-133636428D01*
X117940714Y-133565000D01*
X117869286Y-133493571D01*
X117869286Y-133636428D01*
X119155000Y-134922142D02*
X119012143Y-134993571D01*
X118726428Y-134993571D01*
X118583571Y-134922142D01*
X118512143Y-134779285D01*
X118512143Y-134207857D01*
X118583571Y-134065000D01*
X118726428Y-133993571D01*
X119012143Y-133993571D01*
X119155000Y-134065000D01*
X119226428Y-134207857D01*
X119226428Y-134350714D01*
X118512143Y-134493571D01*
X120512143Y-134993571D02*
X120512143Y-133493571D01*
X120512143Y-134922142D02*
X120369286Y-134993571D01*
X120083571Y-134993571D01*
X119940714Y-134922142D01*
X119869286Y-134850714D01*
X119797857Y-134707857D01*
X119797857Y-134279285D01*
X119869286Y-134136428D01*
X119940714Y-134065000D01*
X120083571Y-133993571D01*
X120369286Y-133993571D01*
X120512143Y-134065000D01*
X45369286Y-167442142D02*
X45226428Y-167513571D01*
X44940714Y-167513571D01*
X44797857Y-167442142D01*
X44726428Y-167370714D01*
X44655000Y-167227857D01*
X44655000Y-166799285D01*
X44726428Y-166656428D01*
X44797857Y-166585000D01*
X44940714Y-166513571D01*
X45226428Y-166513571D01*
X45369286Y-166585000D01*
X46226428Y-167513571D02*
X46083571Y-167442142D01*
X46012143Y-167370714D01*
X45940714Y-167227857D01*
X45940714Y-166799285D01*
X46012143Y-166656428D01*
X46083571Y-166585000D01*
X46226428Y-166513571D01*
X46440714Y-166513571D01*
X46583571Y-166585000D01*
X46655000Y-166656428D01*
X46726428Y-166799285D01*
X46726428Y-167227857D01*
X46655000Y-167370714D01*
X46583571Y-167442142D01*
X46440714Y-167513571D01*
X46226428Y-167513571D01*
X47369286Y-167513571D02*
X47369286Y-166513571D01*
X47369286Y-166799285D02*
X47440714Y-166656428D01*
X47512143Y-166585000D01*
X47655000Y-166513571D01*
X47797857Y-166513571D01*
X48869286Y-167442142D02*
X48726428Y-167513571D01*
X48440714Y-167513571D01*
X48297857Y-167442142D01*
X48226428Y-167299285D01*
X48226428Y-166727857D01*
X48297857Y-166585000D01*
X48440714Y-166513571D01*
X48726428Y-166513571D01*
X48869286Y-166585000D01*
X48940714Y-166727857D01*
X48940714Y-166870714D01*
X48226428Y-167013571D01*
X29912142Y-146402857D02*
X29412142Y-146402857D01*
X29412142Y-147188571D02*
X29412142Y-145688571D01*
X30126428Y-145688571D01*
X30697857Y-147045714D02*
X30769285Y-147117142D01*
X30697857Y-147188571D01*
X30626428Y-147117142D01*
X30697857Y-147045714D01*
X30697857Y-147188571D01*
X32269285Y-147045714D02*
X32197857Y-147117142D01*
X31983571Y-147188571D01*
X31840714Y-147188571D01*
X31626428Y-147117142D01*
X31483571Y-146974285D01*
X31412142Y-146831428D01*
X31340714Y-146545714D01*
X31340714Y-146331428D01*
X31412142Y-146045714D01*
X31483571Y-145902857D01*
X31626428Y-145760000D01*
X31840714Y-145688571D01*
X31983571Y-145688571D01*
X32197857Y-145760000D01*
X32269285Y-145831428D01*
X33555000Y-146188571D02*
X33555000Y-147188571D01*
X32912142Y-146188571D02*
X32912142Y-146974285D01*
X32983571Y-147117142D01*
X33126428Y-147188571D01*
X33340714Y-147188571D01*
X33483571Y-147117142D01*
X33555000Y-147045714D01*
X29912142Y-178922857D02*
X30126428Y-178994285D01*
X30197857Y-179065714D01*
X30269285Y-179208571D01*
X30269285Y-179422857D01*
X30197857Y-179565714D01*
X30126428Y-179637142D01*
X29983571Y-179708571D01*
X29412142Y-179708571D01*
X29412142Y-178208571D01*
X29912142Y-178208571D01*
X30055000Y-178280000D01*
X30126428Y-178351428D01*
X30197857Y-178494285D01*
X30197857Y-178637142D01*
X30126428Y-178780000D01*
X30055000Y-178851428D01*
X29912142Y-178922857D01*
X29412142Y-178922857D01*
X30912142Y-179565714D02*
X30983571Y-179637142D01*
X30912142Y-179708571D01*
X30840714Y-179637142D01*
X30912142Y-179565714D01*
X30912142Y-179708571D01*
X31626428Y-179708571D02*
X31626428Y-178208571D01*
X32197857Y-178208571D01*
X32340714Y-178280000D01*
X32412142Y-178351428D01*
X32483571Y-178494285D01*
X32483571Y-178708571D01*
X32412142Y-178851428D01*
X32340714Y-178922857D01*
X32197857Y-178994285D01*
X31626428Y-178994285D01*
X33769285Y-179708571D02*
X33769285Y-178922857D01*
X33697857Y-178780000D01*
X33555000Y-178708571D01*
X33269285Y-178708571D01*
X33126428Y-178780000D01*
X33769285Y-179637142D02*
X33626428Y-179708571D01*
X33269285Y-179708571D01*
X33126428Y-179637142D01*
X33055000Y-179494285D01*
X33055000Y-179351428D01*
X33126428Y-179208571D01*
X33269285Y-179137142D01*
X33626428Y-179137142D01*
X33769285Y-179065714D01*
X34412142Y-179637142D02*
X34555000Y-179708571D01*
X34840714Y-179708571D01*
X34983571Y-179637142D01*
X35055000Y-179494285D01*
X35055000Y-179422857D01*
X34983571Y-179280000D01*
X34840714Y-179208571D01*
X34626428Y-179208571D01*
X34483571Y-179137142D01*
X34412142Y-178994285D01*
X34412142Y-178922857D01*
X34483571Y-178780000D01*
X34626428Y-178708571D01*
X34840714Y-178708571D01*
X34983571Y-178780000D01*
X35483571Y-178708571D02*
X36055000Y-178708571D01*
X35697857Y-178208571D02*
X35697857Y-179494285D01*
X35769285Y-179637142D01*
X35912142Y-179708571D01*
X36055000Y-179708571D01*
X37126428Y-179637142D02*
X36983571Y-179708571D01*
X36697857Y-179708571D01*
X36555000Y-179637142D01*
X36483571Y-179494285D01*
X36483571Y-178922857D01*
X36555000Y-178780000D01*
X36697857Y-178708571D01*
X36983571Y-178708571D01*
X37126428Y-178780000D01*
X37197857Y-178922857D01*
X37197857Y-179065714D01*
X36483571Y-179208571D01*
X86783572Y-149753571D02*
X86926429Y-149753571D01*
X87069286Y-149825000D01*
X87140715Y-149896428D01*
X87212143Y-150039285D01*
X87283572Y-150325000D01*
X87283572Y-150682142D01*
X87212143Y-150967857D01*
X87140715Y-151110714D01*
X87069286Y-151182142D01*
X86926429Y-151253571D01*
X86783572Y-151253571D01*
X86640715Y-151182142D01*
X86569286Y-151110714D01*
X86497857Y-150967857D01*
X86426429Y-150682142D01*
X86426429Y-150325000D01*
X86497857Y-150039285D01*
X86569286Y-149896428D01*
X86640715Y-149825000D01*
X86783572Y-149753571D01*
X87926429Y-151110714D02*
X87997857Y-151182142D01*
X87926429Y-151253571D01*
X87855000Y-151182142D01*
X87926429Y-151110714D01*
X87926429Y-151253571D01*
X89426429Y-151253571D02*
X88569286Y-151253571D01*
X88997857Y-151253571D02*
X88997857Y-149753571D01*
X88855000Y-149967857D01*
X88712143Y-150110714D01*
X88569286Y-150182142D01*
X90140715Y-151253571D02*
X90426429Y-151253571D01*
X90569286Y-151182142D01*
X90640715Y-151110714D01*
X90783572Y-150896428D01*
X90855000Y-150610714D01*
X90855000Y-150039285D01*
X90783572Y-149896428D01*
X90712143Y-149825000D01*
X90569286Y-149753571D01*
X90283572Y-149753571D01*
X90140715Y-149825000D01*
X90069286Y-149896428D01*
X89997857Y-150039285D01*
X89997857Y-150396428D01*
X90069286Y-150539285D01*
X90140715Y-150610714D01*
X90283572Y-150682142D01*
X90569286Y-150682142D01*
X90712143Y-150610714D01*
X90783572Y-150539285D01*
X90855000Y-150396428D01*
X92140715Y-149753571D02*
X91855000Y-149753571D01*
X91712143Y-149825000D01*
X91640715Y-149896428D01*
X91497857Y-150110714D01*
X91426429Y-150396428D01*
X91426429Y-150967857D01*
X91497857Y-151110714D01*
X91569286Y-151182142D01*
X91712143Y-151253571D01*
X91997857Y-151253571D01*
X92140715Y-151182142D01*
X92212143Y-151110714D01*
X92283572Y-150967857D01*
X92283572Y-150610714D01*
X92212143Y-150467857D01*
X92140715Y-150396428D01*
X91997857Y-150325000D01*
X91712143Y-150325000D01*
X91569286Y-150396428D01*
X91497857Y-150467857D01*
X91426429Y-150610714D01*
X94069286Y-151253571D02*
X94069286Y-150253571D01*
X94069286Y-150396428D02*
X94140715Y-150325000D01*
X94283572Y-150253571D01*
X94497857Y-150253571D01*
X94640715Y-150325000D01*
X94712143Y-150467857D01*
X94712143Y-151253571D01*
X94712143Y-150467857D02*
X94783572Y-150325000D01*
X94926429Y-150253571D01*
X95140715Y-150253571D01*
X95283572Y-150325000D01*
X95355000Y-150467857D01*
X95355000Y-151253571D01*
X96069286Y-151253571D02*
X96069286Y-150253571D01*
X96069286Y-150396428D02*
X96140715Y-150325000D01*
X96283572Y-150253571D01*
X96497857Y-150253571D01*
X96640715Y-150325000D01*
X96712143Y-150467857D01*
X96712143Y-151253571D01*
X96712143Y-150467857D02*
X96783572Y-150325000D01*
X96926429Y-150253571D01*
X97140715Y-150253571D01*
X97283572Y-150325000D01*
X97355000Y-150467857D01*
X97355000Y-151253571D01*
X86783572Y-178208571D02*
X86926429Y-178208571D01*
X87069286Y-178280000D01*
X87140715Y-178351428D01*
X87212143Y-178494285D01*
X87283572Y-178780000D01*
X87283572Y-179137142D01*
X87212143Y-179422857D01*
X87140715Y-179565714D01*
X87069286Y-179637142D01*
X86926429Y-179708571D01*
X86783572Y-179708571D01*
X86640715Y-179637142D01*
X86569286Y-179565714D01*
X86497857Y-179422857D01*
X86426429Y-179137142D01*
X86426429Y-178780000D01*
X86497857Y-178494285D01*
X86569286Y-178351428D01*
X86640715Y-178280000D01*
X86783572Y-178208571D01*
X89069286Y-179708571D02*
X89069286Y-178708571D01*
X89069286Y-178851428D02*
X89140715Y-178780000D01*
X89283572Y-178708571D01*
X89497857Y-178708571D01*
X89640715Y-178780000D01*
X89712143Y-178922857D01*
X89712143Y-179708571D01*
X89712143Y-178922857D02*
X89783572Y-178780000D01*
X89926429Y-178708571D01*
X90140715Y-178708571D01*
X90283572Y-178780000D01*
X90355000Y-178922857D01*
X90355000Y-179708571D01*
X91069286Y-179708571D02*
X91069286Y-178708571D01*
X91069286Y-178851428D02*
X91140715Y-178780000D01*
X91283572Y-178708571D01*
X91497857Y-178708571D01*
X91640715Y-178780000D01*
X91712143Y-178922857D01*
X91712143Y-179708571D01*
X91712143Y-178922857D02*
X91783572Y-178780000D01*
X91926429Y-178708571D01*
X92140715Y-178708571D01*
X92283572Y-178780000D01*
X92355000Y-178922857D01*
X92355000Y-179708571D01*
X135697857Y-145688571D02*
X135840714Y-145688571D01*
X135983571Y-145760000D01*
X136055000Y-145831428D01*
X136126428Y-145974285D01*
X136197857Y-146260000D01*
X136197857Y-146617142D01*
X136126428Y-146902857D01*
X136055000Y-147045714D01*
X135983571Y-147117142D01*
X135840714Y-147188571D01*
X135697857Y-147188571D01*
X135555000Y-147117142D01*
X135483571Y-147045714D01*
X135412142Y-146902857D01*
X135340714Y-146617142D01*
X135340714Y-146260000D01*
X135412142Y-145974285D01*
X135483571Y-145831428D01*
X135555000Y-145760000D01*
X135697857Y-145688571D01*
X135697857Y-133493571D02*
X135840714Y-133493571D01*
X135983571Y-133565000D01*
X136055000Y-133636428D01*
X136126428Y-133779285D01*
X136197857Y-134065000D01*
X136197857Y-134422142D01*
X136126428Y-134707857D01*
X136055000Y-134850714D01*
X135983571Y-134922142D01*
X135840714Y-134993571D01*
X135697857Y-134993571D01*
X135555000Y-134922142D01*
X135483571Y-134850714D01*
X135412142Y-134707857D01*
X135340714Y-134422142D01*
X135340714Y-134065000D01*
X135412142Y-133779285D01*
X135483571Y-133636428D01*
X135555000Y-133565000D01*
X135697857Y-133493571D01*
X44512143Y-137558571D02*
X45369286Y-137558571D01*
X44940714Y-139058571D02*
X44940714Y-137558571D01*
X46083571Y-139058571D02*
X45940714Y-138987142D01*
X45869286Y-138915714D01*
X45797857Y-138772857D01*
X45797857Y-138344285D01*
X45869286Y-138201428D01*
X45940714Y-138130000D01*
X46083571Y-138058571D01*
X46297857Y-138058571D01*
X46440714Y-138130000D01*
X46512143Y-138201428D01*
X46583571Y-138344285D01*
X46583571Y-138772857D01*
X46512143Y-138915714D01*
X46440714Y-138987142D01*
X46297857Y-139058571D01*
X46083571Y-139058571D01*
X47226428Y-138058571D02*
X47226428Y-139558571D01*
X47226428Y-138130000D02*
X47369286Y-138058571D01*
X47655000Y-138058571D01*
X47797857Y-138130000D01*
X47869286Y-138201428D01*
X47940714Y-138344285D01*
X47940714Y-138772857D01*
X47869286Y-138915714D01*
X47797857Y-138987142D01*
X47655000Y-139058571D01*
X47369286Y-139058571D01*
X47226428Y-138987142D01*
X49655000Y-138987142D02*
X49869286Y-139058571D01*
X50226428Y-139058571D01*
X50369286Y-138987142D01*
X50440714Y-138915714D01*
X50512143Y-138772857D01*
X50512143Y-138630000D01*
X50440714Y-138487142D01*
X50369286Y-138415714D01*
X50226428Y-138344285D01*
X49940714Y-138272857D01*
X49797857Y-138201428D01*
X49726428Y-138130000D01*
X49655000Y-137987142D01*
X49655000Y-137844285D01*
X49726428Y-137701428D01*
X49797857Y-137630000D01*
X49940714Y-137558571D01*
X50297857Y-137558571D01*
X50512143Y-137630000D01*
X51369286Y-139058571D02*
X51226428Y-138987142D01*
X51155000Y-138915714D01*
X51083571Y-138772857D01*
X51083571Y-138344285D01*
X51155000Y-138201428D01*
X51226428Y-138130000D01*
X51369286Y-138058571D01*
X51583571Y-138058571D01*
X51726428Y-138130000D01*
X51797857Y-138201428D01*
X51869286Y-138344285D01*
X51869286Y-138772857D01*
X51797857Y-138915714D01*
X51726428Y-138987142D01*
X51583571Y-139058571D01*
X51369286Y-139058571D01*
X52726428Y-139058571D02*
X52583571Y-138987142D01*
X52512143Y-138844285D01*
X52512143Y-137558571D01*
X53940714Y-139058571D02*
X53940714Y-137558571D01*
X53940714Y-138987142D02*
X53797857Y-139058571D01*
X53512143Y-139058571D01*
X53369286Y-138987142D01*
X53297857Y-138915714D01*
X53226428Y-138772857D01*
X53226428Y-138344285D01*
X53297857Y-138201428D01*
X53369286Y-138130000D01*
X53512143Y-138058571D01*
X53797857Y-138058571D01*
X53940714Y-138130000D01*
X55226428Y-138987142D02*
X55083571Y-139058571D01*
X54797857Y-139058571D01*
X54655000Y-138987142D01*
X54583571Y-138844285D01*
X54583571Y-138272857D01*
X54655000Y-138130000D01*
X54797857Y-138058571D01*
X55083571Y-138058571D01*
X55226428Y-138130000D01*
X55297857Y-138272857D01*
X55297857Y-138415714D01*
X54583571Y-138558571D01*
X55940714Y-139058571D02*
X55940714Y-138058571D01*
X55940714Y-138344285D02*
X56012143Y-138201428D01*
X56083571Y-138130000D01*
X56226428Y-138058571D01*
X56369286Y-138058571D01*
X58012143Y-139058571D02*
X58012143Y-137558571D01*
X58583571Y-137558571D01*
X58726428Y-137630000D01*
X58797857Y-137701428D01*
X58869286Y-137844285D01*
X58869286Y-138058571D01*
X58797857Y-138201428D01*
X58726428Y-138272857D01*
X58583571Y-138344285D01*
X58012143Y-138344285D01*
X60155000Y-139058571D02*
X60155000Y-138272857D01*
X60083571Y-138130000D01*
X59940714Y-138058571D01*
X59655000Y-138058571D01*
X59512143Y-138130000D01*
X60155000Y-138987142D02*
X60012143Y-139058571D01*
X59655000Y-139058571D01*
X59512143Y-138987142D01*
X59440714Y-138844285D01*
X59440714Y-138701428D01*
X59512143Y-138558571D01*
X59655000Y-138487142D01*
X60012143Y-138487142D01*
X60155000Y-138415714D01*
X60797857Y-138987142D02*
X60940714Y-139058571D01*
X61226428Y-139058571D01*
X61369286Y-138987142D01*
X61440714Y-138844285D01*
X61440714Y-138772857D01*
X61369286Y-138630000D01*
X61226428Y-138558571D01*
X61012143Y-138558571D01*
X60869286Y-138487142D01*
X60797857Y-138344285D01*
X60797857Y-138272857D01*
X60869286Y-138130000D01*
X61012143Y-138058571D01*
X61226428Y-138058571D01*
X61369286Y-138130000D01*
X61869286Y-138058571D02*
X62440714Y-138058571D01*
X62083571Y-137558571D02*
X62083571Y-138844285D01*
X62155000Y-138987142D01*
X62297857Y-139058571D01*
X62440714Y-139058571D01*
X63512143Y-138987142D02*
X63369286Y-139058571D01*
X63083571Y-139058571D01*
X62940714Y-138987142D01*
X62869286Y-138844285D01*
X62869286Y-138272857D01*
X62940714Y-138130000D01*
X63083571Y-138058571D01*
X63369286Y-138058571D01*
X63512143Y-138130000D01*
X63583571Y-138272857D01*
X63583571Y-138415714D01*
X62869286Y-138558571D01*
X69897857Y-175643571D02*
X69897857Y-174143571D01*
X70755000Y-175643571D01*
X70755000Y-174143571D01*
X71683572Y-175643571D02*
X71540715Y-175572142D01*
X71469286Y-175500714D01*
X71397857Y-175357857D01*
X71397857Y-174929285D01*
X71469286Y-174786428D01*
X71540715Y-174715000D01*
X71683572Y-174643571D01*
X71897857Y-174643571D01*
X72040715Y-174715000D01*
X72112143Y-174786428D01*
X72183572Y-174929285D01*
X72183572Y-175357857D01*
X72112143Y-175500714D01*
X72040715Y-175572142D01*
X71897857Y-175643571D01*
X71683572Y-175643571D01*
X72612143Y-174643571D02*
X73183572Y-174643571D01*
X72826429Y-174143571D02*
X72826429Y-175429285D01*
X72897857Y-175572142D01*
X73040715Y-175643571D01*
X73183572Y-175643571D01*
X74755000Y-175572142D02*
X74897857Y-175643571D01*
X75183572Y-175643571D01*
X75326429Y-175572142D01*
X75397857Y-175429285D01*
X75397857Y-175357857D01*
X75326429Y-175215000D01*
X75183572Y-175143571D01*
X74969286Y-175143571D01*
X74826429Y-175072142D01*
X74755000Y-174929285D01*
X74755000Y-174857857D01*
X74826429Y-174715000D01*
X74969286Y-174643571D01*
X75183572Y-174643571D01*
X75326429Y-174715000D01*
X76040715Y-174643571D02*
X76040715Y-176143571D01*
X76040715Y-174715000D02*
X76183572Y-174643571D01*
X76469286Y-174643571D01*
X76612143Y-174715000D01*
X76683572Y-174786428D01*
X76755000Y-174929285D01*
X76755000Y-175357857D01*
X76683572Y-175500714D01*
X76612143Y-175572142D01*
X76469286Y-175643571D01*
X76183572Y-175643571D01*
X76040715Y-175572142D01*
X77969286Y-175572142D02*
X77826429Y-175643571D01*
X77540715Y-175643571D01*
X77397857Y-175572142D01*
X77326429Y-175429285D01*
X77326429Y-174857857D01*
X77397857Y-174715000D01*
X77540715Y-174643571D01*
X77826429Y-174643571D01*
X77969286Y-174715000D01*
X78040715Y-174857857D01*
X78040715Y-175000714D01*
X77326429Y-175143571D01*
X79326429Y-175572142D02*
X79183572Y-175643571D01*
X78897857Y-175643571D01*
X78755000Y-175572142D01*
X78683572Y-175500714D01*
X78612143Y-175357857D01*
X78612143Y-174929285D01*
X78683572Y-174786428D01*
X78755000Y-174715000D01*
X78897857Y-174643571D01*
X79183572Y-174643571D01*
X79326429Y-174715000D01*
X79969286Y-175643571D02*
X79969286Y-174643571D01*
X79969286Y-174143571D02*
X79897857Y-174215000D01*
X79969286Y-174286428D01*
X80040715Y-174215000D01*
X79969286Y-174143571D01*
X79969286Y-174286428D01*
X80469286Y-174643571D02*
X81040715Y-174643571D01*
X80683572Y-175643571D02*
X80683572Y-174357857D01*
X80755000Y-174215000D01*
X80897857Y-174143571D01*
X81040715Y-174143571D01*
X81540715Y-175643571D02*
X81540715Y-174643571D01*
X81540715Y-174143571D02*
X81469286Y-174215000D01*
X81540715Y-174286428D01*
X81612143Y-174215000D01*
X81540715Y-174143571D01*
X81540715Y-174286428D01*
X82826429Y-175572142D02*
X82683572Y-175643571D01*
X82397857Y-175643571D01*
X82255000Y-175572142D01*
X82183572Y-175429285D01*
X82183572Y-174857857D01*
X82255000Y-174715000D01*
X82397857Y-174643571D01*
X82683572Y-174643571D01*
X82826429Y-174715000D01*
X82897857Y-174857857D01*
X82897857Y-175000714D01*
X82183572Y-175143571D01*
X84183572Y-175643571D02*
X84183572Y-174143571D01*
X84183572Y-175572142D02*
X84040715Y-175643571D01*
X83755000Y-175643571D01*
X83612143Y-175572142D01*
X83540715Y-175500714D01*
X83469286Y-175357857D01*
X83469286Y-174929285D01*
X83540715Y-174786428D01*
X83612143Y-174715000D01*
X83755000Y-174643571D01*
X84040715Y-174643571D01*
X84183572Y-174715000D01*
X135697857Y-141623571D02*
X135840714Y-141623571D01*
X135983571Y-141695000D01*
X136055000Y-141766428D01*
X136126428Y-141909285D01*
X136197857Y-142195000D01*
X136197857Y-142552142D01*
X136126428Y-142837857D01*
X136055000Y-142980714D01*
X135983571Y-143052142D01*
X135840714Y-143123571D01*
X135697857Y-143123571D01*
X135555000Y-143052142D01*
X135483571Y-142980714D01*
X135412142Y-142837857D01*
X135340714Y-142552142D01*
X135340714Y-142195000D01*
X135412142Y-141909285D01*
X135483571Y-141766428D01*
X135555000Y-141695000D01*
X135697857Y-141623571D01*
X29912142Y-134207857D02*
X29412142Y-134207857D01*
X29412142Y-134993571D02*
X29412142Y-133493571D01*
X30126428Y-133493571D01*
X30697857Y-134850714D02*
X30769285Y-134922142D01*
X30697857Y-134993571D01*
X30626428Y-134922142D01*
X30697857Y-134850714D01*
X30697857Y-134993571D01*
X31340714Y-134922142D02*
X31555000Y-134993571D01*
X31912142Y-134993571D01*
X32055000Y-134922142D01*
X32126428Y-134850714D01*
X32197857Y-134707857D01*
X32197857Y-134565000D01*
X32126428Y-134422142D01*
X32055000Y-134350714D01*
X31912142Y-134279285D01*
X31626428Y-134207857D01*
X31483571Y-134136428D01*
X31412142Y-134065000D01*
X31340714Y-133922142D01*
X31340714Y-133779285D01*
X31412142Y-133636428D01*
X31483571Y-133565000D01*
X31626428Y-133493571D01*
X31983571Y-133493571D01*
X32197857Y-133565000D01*
X32840714Y-134993571D02*
X32840714Y-133993571D01*
X32840714Y-133493571D02*
X32769285Y-133565000D01*
X32840714Y-133636428D01*
X32912142Y-133565000D01*
X32840714Y-133493571D01*
X32840714Y-133636428D01*
X33769285Y-134993571D02*
X33626428Y-134922142D01*
X33555000Y-134779285D01*
X33555000Y-133493571D01*
X34340714Y-134993571D02*
X34340714Y-133493571D01*
X34483571Y-134422142D02*
X34912142Y-134993571D01*
X34912142Y-133993571D02*
X34340714Y-134565000D01*
X35483571Y-134922142D02*
X35626428Y-134993571D01*
X35912142Y-134993571D01*
X36055000Y-134922142D01*
X36126428Y-134779285D01*
X36126428Y-134707857D01*
X36055000Y-134565000D01*
X35912142Y-134493571D01*
X35697857Y-134493571D01*
X35555000Y-134422142D01*
X35483571Y-134279285D01*
X35483571Y-134207857D01*
X35555000Y-134065000D01*
X35697857Y-133993571D01*
X35912142Y-133993571D01*
X36055000Y-134065000D01*
X37412142Y-134922142D02*
X37269285Y-134993571D01*
X36983571Y-134993571D01*
X36840714Y-134922142D01*
X36769285Y-134850714D01*
X36697857Y-134707857D01*
X36697857Y-134279285D01*
X36769285Y-134136428D01*
X36840714Y-134065000D01*
X36983571Y-133993571D01*
X37269285Y-133993571D01*
X37412142Y-134065000D01*
X38055000Y-134993571D02*
X38055000Y-133993571D01*
X38055000Y-134279285D02*
X38126428Y-134136428D01*
X38197857Y-134065000D01*
X38340714Y-133993571D01*
X38483571Y-133993571D01*
X39555000Y-134922142D02*
X39412142Y-134993571D01*
X39126428Y-134993571D01*
X38983571Y-134922142D01*
X38912142Y-134779285D01*
X38912142Y-134207857D01*
X38983571Y-134065000D01*
X39126428Y-133993571D01*
X39412142Y-133993571D01*
X39555000Y-134065000D01*
X39626428Y-134207857D01*
X39626428Y-134350714D01*
X38912142Y-134493571D01*
X40840714Y-134922142D02*
X40697857Y-134993571D01*
X40412142Y-134993571D01*
X40269285Y-134922142D01*
X40197857Y-134779285D01*
X40197857Y-134207857D01*
X40269285Y-134065000D01*
X40412142Y-133993571D01*
X40697857Y-133993571D01*
X40840714Y-134065000D01*
X40912142Y-134207857D01*
X40912142Y-134350714D01*
X40197857Y-134493571D01*
X41555000Y-133993571D02*
X41555000Y-134993571D01*
X41555000Y-134136428D02*
X41626428Y-134065000D01*
X41769285Y-133993571D01*
X41983571Y-133993571D01*
X42126428Y-134065000D01*
X42197857Y-134207857D01*
X42197857Y-134993571D01*
X45226428Y-178922857D02*
X45440714Y-178994285D01*
X45512143Y-179065714D01*
X45583571Y-179208571D01*
X45583571Y-179422857D01*
X45512143Y-179565714D01*
X45440714Y-179637142D01*
X45297857Y-179708571D01*
X44726428Y-179708571D01*
X44726428Y-178208571D01*
X45226428Y-178208571D01*
X45369286Y-178280000D01*
X45440714Y-178351428D01*
X45512143Y-178494285D01*
X45512143Y-178637142D01*
X45440714Y-178780000D01*
X45369286Y-178851428D01*
X45226428Y-178922857D01*
X44726428Y-178922857D01*
X46440714Y-179708571D02*
X46297857Y-179637142D01*
X46226428Y-179565714D01*
X46155000Y-179422857D01*
X46155000Y-178994285D01*
X46226428Y-178851428D01*
X46297857Y-178780000D01*
X46440714Y-178708571D01*
X46655000Y-178708571D01*
X46797857Y-178780000D01*
X46869286Y-178851428D01*
X46940714Y-178994285D01*
X46940714Y-179422857D01*
X46869286Y-179565714D01*
X46797857Y-179637142D01*
X46655000Y-179708571D01*
X46440714Y-179708571D01*
X47369286Y-178708571D02*
X47940714Y-178708571D01*
X47583571Y-178208571D02*
X47583571Y-179494285D01*
X47655000Y-179637142D01*
X47797857Y-179708571D01*
X47940714Y-179708571D01*
X48226428Y-178708571D02*
X48797857Y-178708571D01*
X48440714Y-178208571D02*
X48440714Y-179494285D01*
X48512143Y-179637142D01*
X48655000Y-179708571D01*
X48797857Y-179708571D01*
X49512143Y-179708571D02*
X49369286Y-179637142D01*
X49297857Y-179565714D01*
X49226428Y-179422857D01*
X49226428Y-178994285D01*
X49297857Y-178851428D01*
X49369286Y-178780000D01*
X49512143Y-178708571D01*
X49726428Y-178708571D01*
X49869286Y-178780000D01*
X49940714Y-178851428D01*
X50012143Y-178994285D01*
X50012143Y-179422857D01*
X49940714Y-179565714D01*
X49869286Y-179637142D01*
X49726428Y-179708571D01*
X49512143Y-179708571D01*
X50655000Y-179708571D02*
X50655000Y-178708571D01*
X50655000Y-178851428D02*
X50726428Y-178780000D01*
X50869286Y-178708571D01*
X51083571Y-178708571D01*
X51226428Y-178780000D01*
X51297857Y-178922857D01*
X51297857Y-179708571D01*
X51297857Y-178922857D02*
X51369286Y-178780000D01*
X51512143Y-178708571D01*
X51726428Y-178708571D01*
X51869286Y-178780000D01*
X51940714Y-178922857D01*
X51940714Y-179708571D01*
X53726428Y-179637142D02*
X53940714Y-179708571D01*
X54297857Y-179708571D01*
X54440714Y-179637142D01*
X54512143Y-179565714D01*
X54583571Y-179422857D01*
X54583571Y-179280000D01*
X54512143Y-179137142D01*
X54440714Y-179065714D01*
X54297857Y-178994285D01*
X54012143Y-178922857D01*
X53869286Y-178851428D01*
X53797857Y-178780000D01*
X53726428Y-178637142D01*
X53726428Y-178494285D01*
X53797857Y-178351428D01*
X53869286Y-178280000D01*
X54012143Y-178208571D01*
X54369286Y-178208571D01*
X54583571Y-178280000D01*
X55440714Y-179708571D02*
X55297857Y-179637142D01*
X55226428Y-179565714D01*
X55155000Y-179422857D01*
X55155000Y-178994285D01*
X55226428Y-178851428D01*
X55297857Y-178780000D01*
X55440714Y-178708571D01*
X55655000Y-178708571D01*
X55797857Y-178780000D01*
X55869286Y-178851428D01*
X55940714Y-178994285D01*
X55940714Y-179422857D01*
X55869286Y-179565714D01*
X55797857Y-179637142D01*
X55655000Y-179708571D01*
X55440714Y-179708571D01*
X56797857Y-179708571D02*
X56655000Y-179637142D01*
X56583571Y-179494285D01*
X56583571Y-178208571D01*
X58012143Y-179708571D02*
X58012143Y-178208571D01*
X58012143Y-179637142D02*
X57869286Y-179708571D01*
X57583571Y-179708571D01*
X57440714Y-179637142D01*
X57369286Y-179565714D01*
X57297857Y-179422857D01*
X57297857Y-178994285D01*
X57369286Y-178851428D01*
X57440714Y-178780000D01*
X57583571Y-178708571D01*
X57869286Y-178708571D01*
X58012143Y-178780000D01*
X59297857Y-179637142D02*
X59155000Y-179708571D01*
X58869286Y-179708571D01*
X58726428Y-179637142D01*
X58655000Y-179494285D01*
X58655000Y-178922857D01*
X58726428Y-178780000D01*
X58869286Y-178708571D01*
X59155000Y-178708571D01*
X59297857Y-178780000D01*
X59369286Y-178922857D01*
X59369286Y-179065714D01*
X58655000Y-179208571D01*
X60012143Y-179708571D02*
X60012143Y-178708571D01*
X60012143Y-178994285D02*
X60083571Y-178851428D01*
X60155000Y-178780000D01*
X60297857Y-178708571D01*
X60440714Y-178708571D01*
X62083571Y-179708571D02*
X62083571Y-178208571D01*
X62655000Y-178208571D01*
X62797857Y-178280000D01*
X62869286Y-178351428D01*
X62940714Y-178494285D01*
X62940714Y-178708571D01*
X62869286Y-178851428D01*
X62797857Y-178922857D01*
X62655000Y-178994285D01*
X62083571Y-178994285D01*
X64226428Y-179708571D02*
X64226428Y-178922857D01*
X64155000Y-178780000D01*
X64012143Y-178708571D01*
X63726428Y-178708571D01*
X63583571Y-178780000D01*
X64226428Y-179637142D02*
X64083571Y-179708571D01*
X63726428Y-179708571D01*
X63583571Y-179637142D01*
X63512143Y-179494285D01*
X63512143Y-179351428D01*
X63583571Y-179208571D01*
X63726428Y-179137142D01*
X64083571Y-179137142D01*
X64226428Y-179065714D01*
X64869286Y-179637142D02*
X65012143Y-179708571D01*
X65297857Y-179708571D01*
X65440714Y-179637142D01*
X65512143Y-179494285D01*
X65512143Y-179422857D01*
X65440714Y-179280000D01*
X65297857Y-179208571D01*
X65083571Y-179208571D01*
X64940714Y-179137142D01*
X64869286Y-178994285D01*
X64869286Y-178922857D01*
X64940714Y-178780000D01*
X65083571Y-178708571D01*
X65297857Y-178708571D01*
X65440714Y-178780000D01*
X65940714Y-178708571D02*
X66512143Y-178708571D01*
X66155000Y-178208571D02*
X66155000Y-179494285D01*
X66226428Y-179637142D01*
X66369286Y-179708571D01*
X66512143Y-179708571D01*
X67583571Y-179637142D02*
X67440714Y-179708571D01*
X67155000Y-179708571D01*
X67012143Y-179637142D01*
X66940714Y-179494285D01*
X66940714Y-178922857D01*
X67012143Y-178780000D01*
X67155000Y-178708571D01*
X67440714Y-178708571D01*
X67583571Y-178780000D01*
X67655000Y-178922857D01*
X67655000Y-179065714D01*
X66940714Y-179208571D01*
X123612143Y-134993571D02*
X122755000Y-134993571D01*
X123183571Y-134993571D02*
X123183571Y-133493571D01*
X123040714Y-133707857D01*
X122897857Y-133850714D01*
X122755000Y-133922142D01*
X123612143Y-183773571D02*
X122755000Y-183773571D01*
X123183571Y-183773571D02*
X123183571Y-182273571D01*
X123040714Y-182487857D01*
X122897857Y-182630714D01*
X122755000Y-182702142D01*
X86783572Y-166013571D02*
X86926429Y-166013571D01*
X87069286Y-166085000D01*
X87140715Y-166156428D01*
X87212143Y-166299285D01*
X87283572Y-166585000D01*
X87283572Y-166942142D01*
X87212143Y-167227857D01*
X87140715Y-167370714D01*
X87069286Y-167442142D01*
X86926429Y-167513571D01*
X86783572Y-167513571D01*
X86640715Y-167442142D01*
X86569286Y-167370714D01*
X86497857Y-167227857D01*
X86426429Y-166942142D01*
X86426429Y-166585000D01*
X86497857Y-166299285D01*
X86569286Y-166156428D01*
X86640715Y-166085000D01*
X86783572Y-166013571D01*
X87926429Y-167370714D02*
X87997857Y-167442142D01*
X87926429Y-167513571D01*
X87855000Y-167442142D01*
X87926429Y-167370714D01*
X87926429Y-167513571D01*
X89426429Y-167513571D02*
X88569286Y-167513571D01*
X88997857Y-167513571D02*
X88997857Y-166013571D01*
X88855000Y-166227857D01*
X88712143Y-166370714D01*
X88569286Y-166442142D01*
X90140715Y-167513571D02*
X90426429Y-167513571D01*
X90569286Y-167442142D01*
X90640715Y-167370714D01*
X90783572Y-167156428D01*
X90855000Y-166870714D01*
X90855000Y-166299285D01*
X90783572Y-166156428D01*
X90712143Y-166085000D01*
X90569286Y-166013571D01*
X90283572Y-166013571D01*
X90140715Y-166085000D01*
X90069286Y-166156428D01*
X89997857Y-166299285D01*
X89997857Y-166656428D01*
X90069286Y-166799285D01*
X90140715Y-166870714D01*
X90283572Y-166942142D01*
X90569286Y-166942142D01*
X90712143Y-166870714D01*
X90783572Y-166799285D01*
X90855000Y-166656428D01*
X92140715Y-166013571D02*
X91855000Y-166013571D01*
X91712143Y-166085000D01*
X91640715Y-166156428D01*
X91497857Y-166370714D01*
X91426429Y-166656428D01*
X91426429Y-167227857D01*
X91497857Y-167370714D01*
X91569286Y-167442142D01*
X91712143Y-167513571D01*
X91997857Y-167513571D01*
X92140715Y-167442142D01*
X92212143Y-167370714D01*
X92283572Y-167227857D01*
X92283572Y-166870714D01*
X92212143Y-166727857D01*
X92140715Y-166656428D01*
X91997857Y-166585000D01*
X91712143Y-166585000D01*
X91569286Y-166656428D01*
X91497857Y-166727857D01*
X91426429Y-166870714D01*
X94069286Y-167513571D02*
X94069286Y-166513571D01*
X94069286Y-166656428D02*
X94140715Y-166585000D01*
X94283572Y-166513571D01*
X94497857Y-166513571D01*
X94640715Y-166585000D01*
X94712143Y-166727857D01*
X94712143Y-167513571D01*
X94712143Y-166727857D02*
X94783572Y-166585000D01*
X94926429Y-166513571D01*
X95140715Y-166513571D01*
X95283572Y-166585000D01*
X95355000Y-166727857D01*
X95355000Y-167513571D01*
X96069286Y-167513571D02*
X96069286Y-166513571D01*
X96069286Y-166656428D02*
X96140715Y-166585000D01*
X96283572Y-166513571D01*
X96497857Y-166513571D01*
X96640715Y-166585000D01*
X96712143Y-166727857D01*
X96712143Y-167513571D01*
X96712143Y-166727857D02*
X96783572Y-166585000D01*
X96926429Y-166513571D01*
X97140715Y-166513571D01*
X97283572Y-166585000D01*
X97355000Y-166727857D01*
X97355000Y-167513571D01*
X29412142Y-151253571D02*
X29412142Y-149753571D01*
X29769285Y-149753571D01*
X29983571Y-149825000D01*
X30126428Y-149967857D01*
X30197857Y-150110714D01*
X30269285Y-150396428D01*
X30269285Y-150610714D01*
X30197857Y-150896428D01*
X30126428Y-151039285D01*
X29983571Y-151182142D01*
X29769285Y-151253571D01*
X29412142Y-151253571D01*
X30912142Y-151253571D02*
X30912142Y-150253571D01*
X30912142Y-149753571D02*
X30840714Y-149825000D01*
X30912142Y-149896428D01*
X30983571Y-149825000D01*
X30912142Y-149753571D01*
X30912142Y-149896428D01*
X32197857Y-151182142D02*
X32055000Y-151253571D01*
X31769285Y-151253571D01*
X31626428Y-151182142D01*
X31555000Y-151039285D01*
X31555000Y-150467857D01*
X31626428Y-150325000D01*
X31769285Y-150253571D01*
X32055000Y-150253571D01*
X32197857Y-150325000D01*
X32269285Y-150467857D01*
X32269285Y-150610714D01*
X31555000Y-150753571D01*
X33126428Y-151253571D02*
X32983571Y-151182142D01*
X32912142Y-151039285D01*
X32912142Y-149753571D01*
X34269285Y-151182142D02*
X34126428Y-151253571D01*
X33840714Y-151253571D01*
X33697857Y-151182142D01*
X33626428Y-151039285D01*
X33626428Y-150467857D01*
X33697857Y-150325000D01*
X33840714Y-150253571D01*
X34126428Y-150253571D01*
X34269285Y-150325000D01*
X34340714Y-150467857D01*
X34340714Y-150610714D01*
X33626428Y-150753571D01*
X35626428Y-151182142D02*
X35483571Y-151253571D01*
X35197857Y-151253571D01*
X35055000Y-151182142D01*
X34983571Y-151110714D01*
X34912142Y-150967857D01*
X34912142Y-150539285D01*
X34983571Y-150396428D01*
X35055000Y-150325000D01*
X35197857Y-150253571D01*
X35483571Y-150253571D01*
X35626428Y-150325000D01*
X36055000Y-150253571D02*
X36626428Y-150253571D01*
X36269285Y-149753571D02*
X36269285Y-151039285D01*
X36340714Y-151182142D01*
X36483571Y-151253571D01*
X36626428Y-151253571D01*
X37126428Y-151253571D02*
X37126428Y-150253571D01*
X37126428Y-150539285D02*
X37197857Y-150396428D01*
X37269285Y-150325000D01*
X37412142Y-150253571D01*
X37555000Y-150253571D01*
X38055000Y-151253571D02*
X38055000Y-150253571D01*
X38055000Y-149753571D02*
X37983571Y-149825000D01*
X38055000Y-149896428D01*
X38126428Y-149825000D01*
X38055000Y-149753571D01*
X38055000Y-149896428D01*
X39412142Y-151182142D02*
X39269285Y-151253571D01*
X38983571Y-151253571D01*
X38840714Y-151182142D01*
X38769285Y-151110714D01*
X38697857Y-150967857D01*
X38697857Y-150539285D01*
X38769285Y-150396428D01*
X38840714Y-150325000D01*
X38983571Y-150253571D01*
X39269285Y-150253571D01*
X39412142Y-150325000D01*
X44512143Y-141623571D02*
X45369286Y-141623571D01*
X44940714Y-143123571D02*
X44940714Y-141623571D01*
X46083571Y-143123571D02*
X45940714Y-143052142D01*
X45869286Y-142980714D01*
X45797857Y-142837857D01*
X45797857Y-142409285D01*
X45869286Y-142266428D01*
X45940714Y-142195000D01*
X46083571Y-142123571D01*
X46297857Y-142123571D01*
X46440714Y-142195000D01*
X46512143Y-142266428D01*
X46583571Y-142409285D01*
X46583571Y-142837857D01*
X46512143Y-142980714D01*
X46440714Y-143052142D01*
X46297857Y-143123571D01*
X46083571Y-143123571D01*
X47226428Y-142123571D02*
X47226428Y-143623571D01*
X47226428Y-142195000D02*
X47369286Y-142123571D01*
X47655000Y-142123571D01*
X47797857Y-142195000D01*
X47869286Y-142266428D01*
X47940714Y-142409285D01*
X47940714Y-142837857D01*
X47869286Y-142980714D01*
X47797857Y-143052142D01*
X47655000Y-143123571D01*
X47369286Y-143123571D01*
X47226428Y-143052142D01*
X49655000Y-143052142D02*
X49869286Y-143123571D01*
X50226428Y-143123571D01*
X50369286Y-143052142D01*
X50440714Y-142980714D01*
X50512143Y-142837857D01*
X50512143Y-142695000D01*
X50440714Y-142552142D01*
X50369286Y-142480714D01*
X50226428Y-142409285D01*
X49940714Y-142337857D01*
X49797857Y-142266428D01*
X49726428Y-142195000D01*
X49655000Y-142052142D01*
X49655000Y-141909285D01*
X49726428Y-141766428D01*
X49797857Y-141695000D01*
X49940714Y-141623571D01*
X50297857Y-141623571D01*
X50512143Y-141695000D01*
X51369286Y-143123571D02*
X51226428Y-143052142D01*
X51155000Y-142980714D01*
X51083571Y-142837857D01*
X51083571Y-142409285D01*
X51155000Y-142266428D01*
X51226428Y-142195000D01*
X51369286Y-142123571D01*
X51583571Y-142123571D01*
X51726428Y-142195000D01*
X51797857Y-142266428D01*
X51869286Y-142409285D01*
X51869286Y-142837857D01*
X51797857Y-142980714D01*
X51726428Y-143052142D01*
X51583571Y-143123571D01*
X51369286Y-143123571D01*
X52726428Y-143123571D02*
X52583571Y-143052142D01*
X52512143Y-142909285D01*
X52512143Y-141623571D01*
X53940714Y-143123571D02*
X53940714Y-141623571D01*
X53940714Y-143052142D02*
X53797857Y-143123571D01*
X53512143Y-143123571D01*
X53369286Y-143052142D01*
X53297857Y-142980714D01*
X53226428Y-142837857D01*
X53226428Y-142409285D01*
X53297857Y-142266428D01*
X53369286Y-142195000D01*
X53512143Y-142123571D01*
X53797857Y-142123571D01*
X53940714Y-142195000D01*
X55226428Y-143052142D02*
X55083571Y-143123571D01*
X54797857Y-143123571D01*
X54655000Y-143052142D01*
X54583571Y-142909285D01*
X54583571Y-142337857D01*
X54655000Y-142195000D01*
X54797857Y-142123571D01*
X55083571Y-142123571D01*
X55226428Y-142195000D01*
X55297857Y-142337857D01*
X55297857Y-142480714D01*
X54583571Y-142623571D01*
X55940714Y-143123571D02*
X55940714Y-142123571D01*
X55940714Y-142409285D02*
X56012143Y-142266428D01*
X56083571Y-142195000D01*
X56226428Y-142123571D01*
X56369286Y-142123571D01*
X58012143Y-143123571D02*
X58012143Y-141623571D01*
X58512143Y-142695000D01*
X59012143Y-141623571D01*
X59012143Y-143123571D01*
X60369286Y-143123571D02*
X60369286Y-142337857D01*
X60297857Y-142195000D01*
X60155000Y-142123571D01*
X59869286Y-142123571D01*
X59726428Y-142195000D01*
X60369286Y-143052142D02*
X60226428Y-143123571D01*
X59869286Y-143123571D01*
X59726428Y-143052142D01*
X59655000Y-142909285D01*
X59655000Y-142766428D01*
X59726428Y-142623571D01*
X59869286Y-142552142D01*
X60226428Y-142552142D01*
X60369286Y-142480714D01*
X61012143Y-143052142D02*
X61155000Y-143123571D01*
X61440714Y-143123571D01*
X61583571Y-143052142D01*
X61655000Y-142909285D01*
X61655000Y-142837857D01*
X61583571Y-142695000D01*
X61440714Y-142623571D01*
X61226428Y-142623571D01*
X61083571Y-142552142D01*
X61012143Y-142409285D01*
X61012143Y-142337857D01*
X61083571Y-142195000D01*
X61226428Y-142123571D01*
X61440714Y-142123571D01*
X61583571Y-142195000D01*
X62297857Y-143123571D02*
X62297857Y-141623571D01*
X62440714Y-142552142D02*
X62869286Y-143123571D01*
X62869286Y-142123571D02*
X62297857Y-142695000D01*
D11*
X136256428Y-130628571D02*
X135542142Y-130628571D01*
X135542142Y-129128571D01*
X136970714Y-130628571D02*
X136827857Y-130557142D01*
X136756428Y-130485714D01*
X136685000Y-130342857D01*
X136685000Y-129914285D01*
X136756428Y-129771428D01*
X136827857Y-129700000D01*
X136970714Y-129628571D01*
X137185000Y-129628571D01*
X137327857Y-129700000D01*
X137399285Y-129771428D01*
X137470714Y-129914285D01*
X137470714Y-130342857D01*
X137399285Y-130485714D01*
X137327857Y-130557142D01*
X137185000Y-130628571D01*
X136970714Y-130628571D01*
X138042142Y-130557142D02*
X138185000Y-130628571D01*
X138470714Y-130628571D01*
X138613571Y-130557142D01*
X138685000Y-130414285D01*
X138685000Y-130342857D01*
X138613571Y-130200000D01*
X138470714Y-130128571D01*
X138256428Y-130128571D01*
X138113571Y-130057142D01*
X138042142Y-129914285D01*
X138042142Y-129842857D01*
X138113571Y-129700000D01*
X138256428Y-129628571D01*
X138470714Y-129628571D01*
X138613571Y-129700000D01*
X139256428Y-130557142D02*
X139399285Y-130628571D01*
X139685000Y-130628571D01*
X139827857Y-130557142D01*
X139899285Y-130414285D01*
X139899285Y-130342857D01*
X139827857Y-130200000D01*
X139685000Y-130128571D01*
X139470714Y-130128571D01*
X139327857Y-130057142D01*
X139256428Y-129914285D01*
X139256428Y-129842857D01*
X139327857Y-129700000D01*
X139470714Y-129628571D01*
X139685000Y-129628571D01*
X139827857Y-129700000D01*
X141470714Y-129128571D02*
X142327857Y-129128571D01*
X141899285Y-130628571D02*
X141899285Y-129128571D01*
X143470714Y-130628571D02*
X143470714Y-129842857D01*
X143399285Y-129700000D01*
X143256428Y-129628571D01*
X142970714Y-129628571D01*
X142827857Y-129700000D01*
X143470714Y-130557142D02*
X143327857Y-130628571D01*
X142970714Y-130628571D01*
X142827857Y-130557142D01*
X142756428Y-130414285D01*
X142756428Y-130271428D01*
X142827857Y-130128571D01*
X142970714Y-130057142D01*
X143327857Y-130057142D01*
X143470714Y-129985714D01*
X144185000Y-129628571D02*
X144185000Y-130628571D01*
X144185000Y-129771428D02*
X144256428Y-129700000D01*
X144399285Y-129628571D01*
X144613571Y-129628571D01*
X144756428Y-129700000D01*
X144827857Y-129842857D01*
X144827857Y-130628571D01*
X146185000Y-129628571D02*
X146185000Y-130842857D01*
X146113571Y-130985714D01*
X146042142Y-131057142D01*
X145899285Y-131128571D01*
X145685000Y-131128571D01*
X145542142Y-131057142D01*
X146185000Y-130557142D02*
X146042142Y-130628571D01*
X145756428Y-130628571D01*
X145613571Y-130557142D01*
X145542142Y-130485714D01*
X145470714Y-130342857D01*
X145470714Y-129914285D01*
X145542142Y-129771428D01*
X145613571Y-129700000D01*
X145756428Y-129628571D01*
X146042142Y-129628571D01*
X146185000Y-129700000D01*
X147470714Y-130557142D02*
X147327857Y-130628571D01*
X147042142Y-130628571D01*
X146899285Y-130557142D01*
X146827857Y-130414285D01*
X146827857Y-129842857D01*
X146899285Y-129700000D01*
X147042142Y-129628571D01*
X147327857Y-129628571D01*
X147470714Y-129700000D01*
X147542142Y-129842857D01*
X147542142Y-129985714D01*
X146827857Y-130128571D01*
X148185000Y-129628571D02*
X148185000Y-130628571D01*
X148185000Y-129771428D02*
X148256428Y-129700000D01*
X148399285Y-129628571D01*
X148613571Y-129628571D01*
X148756428Y-129700000D01*
X148827857Y-129842857D01*
X148827857Y-130628571D01*
X149327857Y-129628571D02*
X149899285Y-129628571D01*
X149542142Y-129128571D02*
X149542142Y-130414285D01*
X149613571Y-130557142D01*
X149756428Y-130628571D01*
X149899285Y-130628571D01*
D10*
X106226428Y-175643571D02*
X106226428Y-174143571D01*
X107083571Y-175643571D01*
X107083571Y-174143571D01*
X108012143Y-175643571D02*
X107869286Y-175572142D01*
X107797857Y-175500714D01*
X107726428Y-175357857D01*
X107726428Y-174929285D01*
X107797857Y-174786428D01*
X107869286Y-174715000D01*
X108012143Y-174643571D01*
X108226428Y-174643571D01*
X108369286Y-174715000D01*
X108440714Y-174786428D01*
X108512143Y-174929285D01*
X108512143Y-175357857D01*
X108440714Y-175500714D01*
X108369286Y-175572142D01*
X108226428Y-175643571D01*
X108012143Y-175643571D01*
X108940714Y-174643571D02*
X109512143Y-174643571D01*
X109155000Y-174143571D02*
X109155000Y-175429285D01*
X109226428Y-175572142D01*
X109369286Y-175643571D01*
X109512143Y-175643571D01*
X111083571Y-175572142D02*
X111226428Y-175643571D01*
X111512143Y-175643571D01*
X111655000Y-175572142D01*
X111726428Y-175429285D01*
X111726428Y-175357857D01*
X111655000Y-175215000D01*
X111512143Y-175143571D01*
X111297857Y-175143571D01*
X111155000Y-175072142D01*
X111083571Y-174929285D01*
X111083571Y-174857857D01*
X111155000Y-174715000D01*
X111297857Y-174643571D01*
X111512143Y-174643571D01*
X111655000Y-174715000D01*
X112369286Y-174643571D02*
X112369286Y-176143571D01*
X112369286Y-174715000D02*
X112512143Y-174643571D01*
X112797857Y-174643571D01*
X112940714Y-174715000D01*
X113012143Y-174786428D01*
X113083571Y-174929285D01*
X113083571Y-175357857D01*
X113012143Y-175500714D01*
X112940714Y-175572142D01*
X112797857Y-175643571D01*
X112512143Y-175643571D01*
X112369286Y-175572142D01*
X114297857Y-175572142D02*
X114155000Y-175643571D01*
X113869286Y-175643571D01*
X113726428Y-175572142D01*
X113655000Y-175429285D01*
X113655000Y-174857857D01*
X113726428Y-174715000D01*
X113869286Y-174643571D01*
X114155000Y-174643571D01*
X114297857Y-174715000D01*
X114369286Y-174857857D01*
X114369286Y-175000714D01*
X113655000Y-175143571D01*
X115655000Y-175572142D02*
X115512143Y-175643571D01*
X115226428Y-175643571D01*
X115083571Y-175572142D01*
X115012143Y-175500714D01*
X114940714Y-175357857D01*
X114940714Y-174929285D01*
X115012143Y-174786428D01*
X115083571Y-174715000D01*
X115226428Y-174643571D01*
X115512143Y-174643571D01*
X115655000Y-174715000D01*
X116297857Y-175643571D02*
X116297857Y-174643571D01*
X116297857Y-174143571D02*
X116226428Y-174215000D01*
X116297857Y-174286428D01*
X116369286Y-174215000D01*
X116297857Y-174143571D01*
X116297857Y-174286428D01*
X116797857Y-174643571D02*
X117369286Y-174643571D01*
X117012143Y-175643571D02*
X117012143Y-174357857D01*
X117083571Y-174215000D01*
X117226428Y-174143571D01*
X117369286Y-174143571D01*
X117869286Y-175643571D02*
X117869286Y-174643571D01*
X117869286Y-174143571D02*
X117797857Y-174215000D01*
X117869286Y-174286428D01*
X117940714Y-174215000D01*
X117869286Y-174143571D01*
X117869286Y-174286428D01*
X119155000Y-175572142D02*
X119012143Y-175643571D01*
X118726428Y-175643571D01*
X118583571Y-175572142D01*
X118512143Y-175429285D01*
X118512143Y-174857857D01*
X118583571Y-174715000D01*
X118726428Y-174643571D01*
X119012143Y-174643571D01*
X119155000Y-174715000D01*
X119226428Y-174857857D01*
X119226428Y-175000714D01*
X118512143Y-175143571D01*
X120512143Y-175643571D02*
X120512143Y-174143571D01*
X120512143Y-175572142D02*
X120369286Y-175643571D01*
X120083571Y-175643571D01*
X119940714Y-175572142D01*
X119869286Y-175500714D01*
X119797857Y-175357857D01*
X119797857Y-174929285D01*
X119869286Y-174786428D01*
X119940714Y-174715000D01*
X120083571Y-174643571D01*
X120369286Y-174643571D01*
X120512143Y-174715000D01*
X86783572Y-141623571D02*
X86926429Y-141623571D01*
X87069286Y-141695000D01*
X87140715Y-141766428D01*
X87212143Y-141909285D01*
X87283572Y-142195000D01*
X87283572Y-142552142D01*
X87212143Y-142837857D01*
X87140715Y-142980714D01*
X87069286Y-143052142D01*
X86926429Y-143123571D01*
X86783572Y-143123571D01*
X86640715Y-143052142D01*
X86569286Y-142980714D01*
X86497857Y-142837857D01*
X86426429Y-142552142D01*
X86426429Y-142195000D01*
X86497857Y-141909285D01*
X86569286Y-141766428D01*
X86640715Y-141695000D01*
X86783572Y-141623571D01*
X87926429Y-142980714D02*
X87997857Y-143052142D01*
X87926429Y-143123571D01*
X87855000Y-143052142D01*
X87926429Y-142980714D01*
X87926429Y-143123571D01*
X88926429Y-141623571D02*
X89069286Y-141623571D01*
X89212143Y-141695000D01*
X89283572Y-141766428D01*
X89355000Y-141909285D01*
X89426429Y-142195000D01*
X89426429Y-142552142D01*
X89355000Y-142837857D01*
X89283572Y-142980714D01*
X89212143Y-143052142D01*
X89069286Y-143123571D01*
X88926429Y-143123571D01*
X88783572Y-143052142D01*
X88712143Y-142980714D01*
X88640715Y-142837857D01*
X88569286Y-142552142D01*
X88569286Y-142195000D01*
X88640715Y-141909285D01*
X88712143Y-141766428D01*
X88783572Y-141695000D01*
X88926429Y-141623571D01*
X90855000Y-143123571D02*
X89997857Y-143123571D01*
X90426429Y-143123571D02*
X90426429Y-141623571D01*
X90283572Y-141837857D01*
X90140715Y-141980714D01*
X89997857Y-142052142D01*
X91355000Y-141623571D02*
X92355000Y-141623571D01*
X91712143Y-143123571D01*
X93640715Y-141623571D02*
X92926429Y-141623571D01*
X92855000Y-142337857D01*
X92926429Y-142266428D01*
X93069286Y-142195000D01*
X93426429Y-142195000D01*
X93569286Y-142266428D01*
X93640715Y-142337857D01*
X93712143Y-142480714D01*
X93712143Y-142837857D01*
X93640715Y-142980714D01*
X93569286Y-143052142D01*
X93426429Y-143123571D01*
X93069286Y-143123571D01*
X92926429Y-143052142D01*
X92855000Y-142980714D01*
X95497857Y-143123571D02*
X95497857Y-142123571D01*
X95497857Y-142266428D02*
X95569286Y-142195000D01*
X95712143Y-142123571D01*
X95926429Y-142123571D01*
X96069286Y-142195000D01*
X96140715Y-142337857D01*
X96140715Y-143123571D01*
X96140715Y-142337857D02*
X96212143Y-142195000D01*
X96355000Y-142123571D01*
X96569286Y-142123571D01*
X96712143Y-142195000D01*
X96783572Y-142337857D01*
X96783572Y-143123571D01*
X97497857Y-143123571D02*
X97497857Y-142123571D01*
X97497857Y-142266428D02*
X97569286Y-142195000D01*
X97712143Y-142123571D01*
X97926429Y-142123571D01*
X98069286Y-142195000D01*
X98140715Y-142337857D01*
X98140715Y-143123571D01*
X98140715Y-142337857D02*
X98212143Y-142195000D01*
X98355000Y-142123571D01*
X98569286Y-142123571D01*
X98712143Y-142195000D01*
X98783572Y-142337857D01*
X98783572Y-143123571D01*
X135697857Y-137558571D02*
X135840714Y-137558571D01*
X135983571Y-137630000D01*
X136055000Y-137701428D01*
X136126428Y-137844285D01*
X136197857Y-138130000D01*
X136197857Y-138487142D01*
X136126428Y-138772857D01*
X136055000Y-138915714D01*
X135983571Y-138987142D01*
X135840714Y-139058571D01*
X135697857Y-139058571D01*
X135555000Y-138987142D01*
X135483571Y-138915714D01*
X135412142Y-138772857D01*
X135340714Y-138487142D01*
X135340714Y-138130000D01*
X135412142Y-137844285D01*
X135483571Y-137701428D01*
X135555000Y-137630000D01*
X135697857Y-137558571D01*
X29412142Y-155318571D02*
X29412142Y-153818571D01*
X30126428Y-154318571D02*
X30126428Y-155318571D01*
X30126428Y-154461428D02*
X30197857Y-154390000D01*
X30340714Y-154318571D01*
X30555000Y-154318571D01*
X30697857Y-154390000D01*
X30769285Y-154532857D01*
X30769285Y-155318571D01*
X32269285Y-155318571D02*
X31412142Y-155318571D01*
X31840714Y-155318571D02*
X31840714Y-153818571D01*
X31697857Y-154032857D01*
X31555000Y-154175714D01*
X31412142Y-154247142D01*
X32912142Y-155175714D02*
X32983571Y-155247142D01*
X32912142Y-155318571D01*
X32840714Y-155247142D01*
X32912142Y-155175714D01*
X32912142Y-155318571D01*
X34483571Y-155175714D02*
X34412142Y-155247142D01*
X34197857Y-155318571D01*
X34055000Y-155318571D01*
X33840714Y-155247142D01*
X33697857Y-155104285D01*
X33626428Y-154961428D01*
X33555000Y-154675714D01*
X33555000Y-154461428D01*
X33626428Y-154175714D01*
X33697857Y-154032857D01*
X33840714Y-153890000D01*
X34055000Y-153818571D01*
X34197857Y-153818571D01*
X34412142Y-153890000D01*
X34483571Y-153961428D01*
X35769285Y-154318571D02*
X35769285Y-155318571D01*
X35126428Y-154318571D02*
X35126428Y-155104285D01*
X35197857Y-155247142D01*
X35340714Y-155318571D01*
X35555000Y-155318571D01*
X35697857Y-155247142D01*
X35769285Y-155175714D01*
X29912142Y-174857857D02*
X30126428Y-174929285D01*
X30197857Y-175000714D01*
X30269285Y-175143571D01*
X30269285Y-175357857D01*
X30197857Y-175500714D01*
X30126428Y-175572142D01*
X29983571Y-175643571D01*
X29412142Y-175643571D01*
X29412142Y-174143571D01*
X29912142Y-174143571D01*
X30055000Y-174215000D01*
X30126428Y-174286428D01*
X30197857Y-174429285D01*
X30197857Y-174572142D01*
X30126428Y-174715000D01*
X30055000Y-174786428D01*
X29912142Y-174857857D01*
X29412142Y-174857857D01*
X30912142Y-175500714D02*
X30983571Y-175572142D01*
X30912142Y-175643571D01*
X30840714Y-175572142D01*
X30912142Y-175500714D01*
X30912142Y-175643571D01*
X31626428Y-175643571D02*
X31626428Y-174143571D01*
X32126428Y-175215000D01*
X32626428Y-174143571D01*
X32626428Y-175643571D01*
X33983571Y-175643571D02*
X33983571Y-174857857D01*
X33912142Y-174715000D01*
X33769285Y-174643571D01*
X33483571Y-174643571D01*
X33340714Y-174715000D01*
X33983571Y-175572142D02*
X33840714Y-175643571D01*
X33483571Y-175643571D01*
X33340714Y-175572142D01*
X33269285Y-175429285D01*
X33269285Y-175286428D01*
X33340714Y-175143571D01*
X33483571Y-175072142D01*
X33840714Y-175072142D01*
X33983571Y-175000714D01*
X34626428Y-175572142D02*
X34769285Y-175643571D01*
X35055000Y-175643571D01*
X35197857Y-175572142D01*
X35269285Y-175429285D01*
X35269285Y-175357857D01*
X35197857Y-175215000D01*
X35055000Y-175143571D01*
X34840714Y-175143571D01*
X34697857Y-175072142D01*
X34626428Y-174929285D01*
X34626428Y-174857857D01*
X34697857Y-174715000D01*
X34840714Y-174643571D01*
X35055000Y-174643571D01*
X35197857Y-174715000D01*
X35912142Y-175643571D02*
X35912142Y-174143571D01*
X36055000Y-175072142D02*
X36483571Y-175643571D01*
X36483571Y-174643571D02*
X35912142Y-175215000D01*
X86783572Y-153818571D02*
X86926429Y-153818571D01*
X87069286Y-153890000D01*
X87140715Y-153961428D01*
X87212143Y-154104285D01*
X87283572Y-154390000D01*
X87283572Y-154747142D01*
X87212143Y-155032857D01*
X87140715Y-155175714D01*
X87069286Y-155247142D01*
X86926429Y-155318571D01*
X86783572Y-155318571D01*
X86640715Y-155247142D01*
X86569286Y-155175714D01*
X86497857Y-155032857D01*
X86426429Y-154747142D01*
X86426429Y-154390000D01*
X86497857Y-154104285D01*
X86569286Y-153961428D01*
X86640715Y-153890000D01*
X86783572Y-153818571D01*
X87926429Y-155175714D02*
X87997857Y-155247142D01*
X87926429Y-155318571D01*
X87855000Y-155247142D01*
X87926429Y-155175714D01*
X87926429Y-155318571D01*
X88926429Y-153818571D02*
X89069286Y-153818571D01*
X89212143Y-153890000D01*
X89283572Y-153961428D01*
X89355000Y-154104285D01*
X89426429Y-154390000D01*
X89426429Y-154747142D01*
X89355000Y-155032857D01*
X89283572Y-155175714D01*
X89212143Y-155247142D01*
X89069286Y-155318571D01*
X88926429Y-155318571D01*
X88783572Y-155247142D01*
X88712143Y-155175714D01*
X88640715Y-155032857D01*
X88569286Y-154747142D01*
X88569286Y-154390000D01*
X88640715Y-154104285D01*
X88712143Y-153961428D01*
X88783572Y-153890000D01*
X88926429Y-153818571D01*
X89926429Y-153818571D02*
X90855000Y-153818571D01*
X90355000Y-154390000D01*
X90569286Y-154390000D01*
X90712143Y-154461428D01*
X90783572Y-154532857D01*
X90855000Y-154675714D01*
X90855000Y-155032857D01*
X90783572Y-155175714D01*
X90712143Y-155247142D01*
X90569286Y-155318571D01*
X90140715Y-155318571D01*
X89997857Y-155247142D01*
X89926429Y-155175714D01*
X92212143Y-153818571D02*
X91497857Y-153818571D01*
X91426429Y-154532857D01*
X91497857Y-154461428D01*
X91640715Y-154390000D01*
X91997857Y-154390000D01*
X92140715Y-154461428D01*
X92212143Y-154532857D01*
X92283572Y-154675714D01*
X92283572Y-155032857D01*
X92212143Y-155175714D01*
X92140715Y-155247142D01*
X91997857Y-155318571D01*
X91640715Y-155318571D01*
X91497857Y-155247142D01*
X91426429Y-155175714D01*
X94069286Y-155318571D02*
X94069286Y-154318571D01*
X94069286Y-154461428D02*
X94140715Y-154390000D01*
X94283572Y-154318571D01*
X94497857Y-154318571D01*
X94640715Y-154390000D01*
X94712143Y-154532857D01*
X94712143Y-155318571D01*
X94712143Y-154532857D02*
X94783572Y-154390000D01*
X94926429Y-154318571D01*
X95140715Y-154318571D01*
X95283572Y-154390000D01*
X95355000Y-154532857D01*
X95355000Y-155318571D01*
X96069286Y-155318571D02*
X96069286Y-154318571D01*
X96069286Y-154461428D02*
X96140715Y-154390000D01*
X96283572Y-154318571D01*
X96497857Y-154318571D01*
X96640715Y-154390000D01*
X96712143Y-154532857D01*
X96712143Y-155318571D01*
X96712143Y-154532857D02*
X96783572Y-154390000D01*
X96926429Y-154318571D01*
X97140715Y-154318571D01*
X97283572Y-154390000D01*
X97355000Y-154532857D01*
X97355000Y-155318571D01*
X29912142Y-138272857D02*
X29412142Y-138272857D01*
X29412142Y-139058571D02*
X29412142Y-137558571D01*
X30126428Y-137558571D01*
X30697857Y-138915714D02*
X30769285Y-138987142D01*
X30697857Y-139058571D01*
X30626428Y-138987142D01*
X30697857Y-138915714D01*
X30697857Y-139058571D01*
X31412142Y-139058571D02*
X31412142Y-137558571D01*
X31983571Y-137558571D01*
X32126428Y-137630000D01*
X32197857Y-137701428D01*
X32269285Y-137844285D01*
X32269285Y-138058571D01*
X32197857Y-138201428D01*
X32126428Y-138272857D01*
X31983571Y-138344285D01*
X31412142Y-138344285D01*
X33555000Y-139058571D02*
X33555000Y-138272857D01*
X33483571Y-138130000D01*
X33340714Y-138058571D01*
X33055000Y-138058571D01*
X32912142Y-138130000D01*
X33555000Y-138987142D02*
X33412142Y-139058571D01*
X33055000Y-139058571D01*
X32912142Y-138987142D01*
X32840714Y-138844285D01*
X32840714Y-138701428D01*
X32912142Y-138558571D01*
X33055000Y-138487142D01*
X33412142Y-138487142D01*
X33555000Y-138415714D01*
X34197857Y-138987142D02*
X34340714Y-139058571D01*
X34626428Y-139058571D01*
X34769285Y-138987142D01*
X34840714Y-138844285D01*
X34840714Y-138772857D01*
X34769285Y-138630000D01*
X34626428Y-138558571D01*
X34412142Y-138558571D01*
X34269285Y-138487142D01*
X34197857Y-138344285D01*
X34197857Y-138272857D01*
X34269285Y-138130000D01*
X34412142Y-138058571D01*
X34626428Y-138058571D01*
X34769285Y-138130000D01*
X35269285Y-138058571D02*
X35840714Y-138058571D01*
X35483571Y-137558571D02*
X35483571Y-138844285D01*
X35555000Y-138987142D01*
X35697857Y-139058571D01*
X35840714Y-139058571D01*
X36912142Y-138987142D02*
X36769285Y-139058571D01*
X36483571Y-139058571D01*
X36340714Y-138987142D01*
X36269285Y-138844285D01*
X36269285Y-138272857D01*
X36340714Y-138130000D01*
X36483571Y-138058571D01*
X36769285Y-138058571D01*
X36912142Y-138130000D01*
X36983571Y-138272857D01*
X36983571Y-138415714D01*
X36269285Y-138558571D01*
X29912142Y-182987857D02*
X30126428Y-183059285D01*
X30197857Y-183130714D01*
X30269285Y-183273571D01*
X30269285Y-183487857D01*
X30197857Y-183630714D01*
X30126428Y-183702142D01*
X29983571Y-183773571D01*
X29412142Y-183773571D01*
X29412142Y-182273571D01*
X29912142Y-182273571D01*
X30055000Y-182345000D01*
X30126428Y-182416428D01*
X30197857Y-182559285D01*
X30197857Y-182702142D01*
X30126428Y-182845000D01*
X30055000Y-182916428D01*
X29912142Y-182987857D01*
X29412142Y-182987857D01*
X30912142Y-183630714D02*
X30983571Y-183702142D01*
X30912142Y-183773571D01*
X30840714Y-183702142D01*
X30912142Y-183630714D01*
X30912142Y-183773571D01*
X31555000Y-183702142D02*
X31769285Y-183773571D01*
X32126428Y-183773571D01*
X32269285Y-183702142D01*
X32340714Y-183630714D01*
X32412142Y-183487857D01*
X32412142Y-183345000D01*
X32340714Y-183202142D01*
X32269285Y-183130714D01*
X32126428Y-183059285D01*
X31840714Y-182987857D01*
X31697857Y-182916428D01*
X31626428Y-182845000D01*
X31555000Y-182702142D01*
X31555000Y-182559285D01*
X31626428Y-182416428D01*
X31697857Y-182345000D01*
X31840714Y-182273571D01*
X32197857Y-182273571D01*
X32412142Y-182345000D01*
X33055000Y-183773571D02*
X33055000Y-182773571D01*
X33055000Y-182273571D02*
X32983571Y-182345000D01*
X33055000Y-182416428D01*
X33126428Y-182345000D01*
X33055000Y-182273571D01*
X33055000Y-182416428D01*
X33983571Y-183773571D02*
X33840714Y-183702142D01*
X33769285Y-183559285D01*
X33769285Y-182273571D01*
X34555000Y-183773571D02*
X34555000Y-182273571D01*
X34697857Y-183202142D02*
X35126428Y-183773571D01*
X35126428Y-182773571D02*
X34555000Y-183345000D01*
X35697857Y-183702142D02*
X35840714Y-183773571D01*
X36126428Y-183773571D01*
X36269285Y-183702142D01*
X36340714Y-183559285D01*
X36340714Y-183487857D01*
X36269285Y-183345000D01*
X36126428Y-183273571D01*
X35912142Y-183273571D01*
X35769285Y-183202142D01*
X35697857Y-183059285D01*
X35697857Y-182987857D01*
X35769285Y-182845000D01*
X35912142Y-182773571D01*
X36126428Y-182773571D01*
X36269285Y-182845000D01*
X37626428Y-183702142D02*
X37483571Y-183773571D01*
X37197857Y-183773571D01*
X37055000Y-183702142D01*
X36983571Y-183630714D01*
X36912142Y-183487857D01*
X36912142Y-183059285D01*
X36983571Y-182916428D01*
X37055000Y-182845000D01*
X37197857Y-182773571D01*
X37483571Y-182773571D01*
X37626428Y-182845000D01*
X38269285Y-183773571D02*
X38269285Y-182773571D01*
X38269285Y-183059285D02*
X38340714Y-182916428D01*
X38412142Y-182845000D01*
X38555000Y-182773571D01*
X38697857Y-182773571D01*
X39769285Y-183702142D02*
X39626428Y-183773571D01*
X39340714Y-183773571D01*
X39197857Y-183702142D01*
X39126428Y-183559285D01*
X39126428Y-182987857D01*
X39197857Y-182845000D01*
X39340714Y-182773571D01*
X39626428Y-182773571D01*
X39769285Y-182845000D01*
X39840714Y-182987857D01*
X39840714Y-183130714D01*
X39126428Y-183273571D01*
X41055000Y-183702142D02*
X40912142Y-183773571D01*
X40626428Y-183773571D01*
X40483571Y-183702142D01*
X40412142Y-183559285D01*
X40412142Y-182987857D01*
X40483571Y-182845000D01*
X40626428Y-182773571D01*
X40912142Y-182773571D01*
X41055000Y-182845000D01*
X41126428Y-182987857D01*
X41126428Y-183130714D01*
X40412142Y-183273571D01*
X41769285Y-182773571D02*
X41769285Y-183773571D01*
X41769285Y-182916428D02*
X41840714Y-182845000D01*
X41983571Y-182773571D01*
X42197857Y-182773571D01*
X42340714Y-182845000D01*
X42412142Y-182987857D01*
X42412142Y-183773571D01*
X135697857Y-157883571D02*
X135840714Y-157883571D01*
X135983571Y-157955000D01*
X136055000Y-158026428D01*
X136126428Y-158169285D01*
X136197857Y-158455000D01*
X136197857Y-158812142D01*
X136126428Y-159097857D01*
X136055000Y-159240714D01*
X135983571Y-159312142D01*
X135840714Y-159383571D01*
X135697857Y-159383571D01*
X135555000Y-159312142D01*
X135483571Y-159240714D01*
X135412142Y-159097857D01*
X135340714Y-158812142D01*
X135340714Y-158455000D01*
X135412142Y-158169285D01*
X135483571Y-158026428D01*
X135555000Y-157955000D01*
X135697857Y-157883571D01*
X136840714Y-159240714D02*
X136912142Y-159312142D01*
X136840714Y-159383571D01*
X136769285Y-159312142D01*
X136840714Y-159240714D01*
X136840714Y-159383571D01*
X137840714Y-157883571D02*
X137983571Y-157883571D01*
X138126428Y-157955000D01*
X138197857Y-158026428D01*
X138269285Y-158169285D01*
X138340714Y-158455000D01*
X138340714Y-158812142D01*
X138269285Y-159097857D01*
X138197857Y-159240714D01*
X138126428Y-159312142D01*
X137983571Y-159383571D01*
X137840714Y-159383571D01*
X137697857Y-159312142D01*
X137626428Y-159240714D01*
X137555000Y-159097857D01*
X137483571Y-158812142D01*
X137483571Y-158455000D01*
X137555000Y-158169285D01*
X137626428Y-158026428D01*
X137697857Y-157955000D01*
X137840714Y-157883571D01*
X138912142Y-158026428D02*
X138983571Y-157955000D01*
X139126428Y-157883571D01*
X139483571Y-157883571D01*
X139626428Y-157955000D01*
X139697857Y-158026428D01*
X139769285Y-158169285D01*
X139769285Y-158312142D01*
X139697857Y-158526428D01*
X138840714Y-159383571D01*
X139769285Y-159383571D01*
X86783572Y-133493571D02*
X86926429Y-133493571D01*
X87069286Y-133565000D01*
X87140715Y-133636428D01*
X87212143Y-133779285D01*
X87283572Y-134065000D01*
X87283572Y-134422142D01*
X87212143Y-134707857D01*
X87140715Y-134850714D01*
X87069286Y-134922142D01*
X86926429Y-134993571D01*
X86783572Y-134993571D01*
X86640715Y-134922142D01*
X86569286Y-134850714D01*
X86497857Y-134707857D01*
X86426429Y-134422142D01*
X86426429Y-134065000D01*
X86497857Y-133779285D01*
X86569286Y-133636428D01*
X86640715Y-133565000D01*
X86783572Y-133493571D01*
X89069286Y-134993571D02*
X89069286Y-133993571D01*
X89069286Y-134136428D02*
X89140715Y-134065000D01*
X89283572Y-133993571D01*
X89497857Y-133993571D01*
X89640715Y-134065000D01*
X89712143Y-134207857D01*
X89712143Y-134993571D01*
X89712143Y-134207857D02*
X89783572Y-134065000D01*
X89926429Y-133993571D01*
X90140715Y-133993571D01*
X90283572Y-134065000D01*
X90355000Y-134207857D01*
X90355000Y-134993571D01*
X91069286Y-134993571D02*
X91069286Y-133993571D01*
X91069286Y-134136428D02*
X91140715Y-134065000D01*
X91283572Y-133993571D01*
X91497857Y-133993571D01*
X91640715Y-134065000D01*
X91712143Y-134207857D01*
X91712143Y-134993571D01*
X91712143Y-134207857D02*
X91783572Y-134065000D01*
X91926429Y-133993571D01*
X92140715Y-133993571D01*
X92283572Y-134065000D01*
X92355000Y-134207857D01*
X92355000Y-134993571D01*
X29412142Y-163448571D02*
X29412142Y-161948571D01*
X30126428Y-162448571D02*
X30126428Y-163448571D01*
X30126428Y-162591428D02*
X30197857Y-162520000D01*
X30340714Y-162448571D01*
X30555000Y-162448571D01*
X30697857Y-162520000D01*
X30769285Y-162662857D01*
X30769285Y-163448571D01*
X31412142Y-162091428D02*
X31483571Y-162020000D01*
X31626428Y-161948571D01*
X31983571Y-161948571D01*
X32126428Y-162020000D01*
X32197857Y-162091428D01*
X32269285Y-162234285D01*
X32269285Y-162377142D01*
X32197857Y-162591428D01*
X31340714Y-163448571D01*
X32269285Y-163448571D01*
X32912142Y-163305714D02*
X32983571Y-163377142D01*
X32912142Y-163448571D01*
X32840714Y-163377142D01*
X32912142Y-163305714D01*
X32912142Y-163448571D01*
X34483571Y-163305714D02*
X34412142Y-163377142D01*
X34197857Y-163448571D01*
X34055000Y-163448571D01*
X33840714Y-163377142D01*
X33697857Y-163234285D01*
X33626428Y-163091428D01*
X33555000Y-162805714D01*
X33555000Y-162591428D01*
X33626428Y-162305714D01*
X33697857Y-162162857D01*
X33840714Y-162020000D01*
X34055000Y-161948571D01*
X34197857Y-161948571D01*
X34412142Y-162020000D01*
X34483571Y-162091428D01*
X35769285Y-162448571D02*
X35769285Y-163448571D01*
X35126428Y-162448571D02*
X35126428Y-163234285D01*
X35197857Y-163377142D01*
X35340714Y-163448571D01*
X35555000Y-163448571D01*
X35697857Y-163377142D01*
X35769285Y-163305714D01*
X70397857Y-158597857D02*
X69897857Y-158597857D01*
X69897857Y-159383571D02*
X69897857Y-157883571D01*
X70612143Y-157883571D01*
X72040715Y-159383571D02*
X71540715Y-158669285D01*
X71183572Y-159383571D02*
X71183572Y-157883571D01*
X71755000Y-157883571D01*
X71897857Y-157955000D01*
X71969286Y-158026428D01*
X72040715Y-158169285D01*
X72040715Y-158383571D01*
X71969286Y-158526428D01*
X71897857Y-158597857D01*
X71755000Y-158669285D01*
X71183572Y-158669285D01*
X73326429Y-158383571D02*
X73326429Y-159383571D01*
X72969286Y-157812142D02*
X72612143Y-158883571D01*
X73540715Y-158883571D01*
X123612143Y-139058571D02*
X122755000Y-139058571D01*
X123183571Y-139058571D02*
X123183571Y-137558571D01*
X123040714Y-137772857D01*
X122897857Y-137915714D01*
X122755000Y-137987142D01*
X45369286Y-171507142D02*
X45226428Y-171578571D01*
X44940714Y-171578571D01*
X44797857Y-171507142D01*
X44726428Y-171435714D01*
X44655000Y-171292857D01*
X44655000Y-170864285D01*
X44726428Y-170721428D01*
X44797857Y-170650000D01*
X44940714Y-170578571D01*
X45226428Y-170578571D01*
X45369286Y-170650000D01*
X46226428Y-171578571D02*
X46083571Y-171507142D01*
X46012143Y-171435714D01*
X45940714Y-171292857D01*
X45940714Y-170864285D01*
X46012143Y-170721428D01*
X46083571Y-170650000D01*
X46226428Y-170578571D01*
X46440714Y-170578571D01*
X46583571Y-170650000D01*
X46655000Y-170721428D01*
X46726428Y-170864285D01*
X46726428Y-171292857D01*
X46655000Y-171435714D01*
X46583571Y-171507142D01*
X46440714Y-171578571D01*
X46226428Y-171578571D01*
X47369286Y-170578571D02*
X47369286Y-172078571D01*
X47369286Y-170650000D02*
X47512143Y-170578571D01*
X47797857Y-170578571D01*
X47940714Y-170650000D01*
X48012143Y-170721428D01*
X48083571Y-170864285D01*
X48083571Y-171292857D01*
X48012143Y-171435714D01*
X47940714Y-171507142D01*
X47797857Y-171578571D01*
X47512143Y-171578571D01*
X47369286Y-171507142D01*
X48726428Y-170578571D02*
X48726428Y-172078571D01*
X48726428Y-170650000D02*
X48869286Y-170578571D01*
X49155000Y-170578571D01*
X49297857Y-170650000D01*
X49369286Y-170721428D01*
X49440714Y-170864285D01*
X49440714Y-171292857D01*
X49369286Y-171435714D01*
X49297857Y-171507142D01*
X49155000Y-171578571D01*
X48869286Y-171578571D01*
X48726428Y-171507142D01*
X50655000Y-171507142D02*
X50512143Y-171578571D01*
X50226428Y-171578571D01*
X50083571Y-171507142D01*
X50012143Y-171364285D01*
X50012143Y-170792857D01*
X50083571Y-170650000D01*
X50226428Y-170578571D01*
X50512143Y-170578571D01*
X50655000Y-170650000D01*
X50726428Y-170792857D01*
X50726428Y-170935714D01*
X50012143Y-171078571D01*
X51369286Y-171578571D02*
X51369286Y-170578571D01*
X51369286Y-170864285D02*
X51440714Y-170721428D01*
X51512143Y-170650000D01*
X51655000Y-170578571D01*
X51797857Y-170578571D01*
X135697857Y-174143571D02*
X135840714Y-174143571D01*
X135983571Y-174215000D01*
X136055000Y-174286428D01*
X136126428Y-174429285D01*
X136197857Y-174715000D01*
X136197857Y-175072142D01*
X136126428Y-175357857D01*
X136055000Y-175500714D01*
X135983571Y-175572142D01*
X135840714Y-175643571D01*
X135697857Y-175643571D01*
X135555000Y-175572142D01*
X135483571Y-175500714D01*
X135412142Y-175357857D01*
X135340714Y-175072142D01*
X135340714Y-174715000D01*
X135412142Y-174429285D01*
X135483571Y-174286428D01*
X135555000Y-174215000D01*
X135697857Y-174143571D01*
D12*
X118857142Y-39302380D02*
X118666666Y-39302380D01*
X118571428Y-39350000D01*
X118523809Y-39397619D01*
X118428571Y-39540476D01*
X118380952Y-39730952D01*
X118380952Y-40111904D01*
X118428571Y-40207142D01*
X118476190Y-40254761D01*
X118571428Y-40302380D01*
X118761904Y-40302380D01*
X118857142Y-40254761D01*
X118904761Y-40207142D01*
X118952380Y-40111904D01*
X118952380Y-39873809D01*
X118904761Y-39778571D01*
X118857142Y-39730952D01*
X118761904Y-39683333D01*
X118571428Y-39683333D01*
X118476190Y-39730952D01*
X118428571Y-39778571D01*
X118380952Y-39873809D01*
X119809523Y-39302380D02*
X119619047Y-39302380D01*
X119523809Y-39350000D01*
X119476190Y-39397619D01*
X119380952Y-39540476D01*
X119333333Y-39730952D01*
X119333333Y-40111904D01*
X119380952Y-40207142D01*
X119428571Y-40254761D01*
X119523809Y-40302380D01*
X119714285Y-40302380D01*
X119809523Y-40254761D01*
X119857142Y-40207142D01*
X119904761Y-40111904D01*
X119904761Y-39873809D01*
X119857142Y-39778571D01*
X119809523Y-39730952D01*
X119714285Y-39683333D01*
X119523809Y-39683333D01*
X119428571Y-39730952D01*
X119380952Y-39778571D01*
X119333333Y-39873809D01*
X120333333Y-40207142D02*
X120380952Y-40254761D01*
X120333333Y-40302380D01*
X120285714Y-40254761D01*
X120333333Y-40207142D01*
X120333333Y-40302380D01*
X121000000Y-39302380D02*
X121095238Y-39302380D01*
X121190476Y-39350000D01*
X121238095Y-39397619D01*
X121285714Y-39492857D01*
X121333333Y-39683333D01*
X121333333Y-39921428D01*
X121285714Y-40111904D01*
X121238095Y-40207142D01*
X121190476Y-40254761D01*
X121095238Y-40302380D01*
X121000000Y-40302380D01*
X120904761Y-40254761D01*
X120857142Y-40207142D01*
X120809523Y-40111904D01*
X120761904Y-39921428D01*
X120761904Y-39683333D01*
X120809523Y-39492857D01*
X120857142Y-39397619D01*
X120904761Y-39350000D01*
X121000000Y-39302380D01*
X121952380Y-39302380D02*
X122047619Y-39302380D01*
X122142857Y-39350000D01*
X122190476Y-39397619D01*
X122238095Y-39492857D01*
X122285714Y-39683333D01*
X122285714Y-39921428D01*
X122238095Y-40111904D01*
X122190476Y-40207142D01*
X122142857Y-40254761D01*
X122047619Y-40302380D01*
X121952380Y-40302380D01*
X121857142Y-40254761D01*
X121809523Y-40207142D01*
X121761904Y-40111904D01*
X121714285Y-39921428D01*
X121714285Y-39683333D01*
X121761904Y-39492857D01*
X121809523Y-39397619D01*
X121857142Y-39350000D01*
X121952380Y-39302380D01*
X122904761Y-39302380D02*
X123000000Y-39302380D01*
X123095238Y-39350000D01*
X123142857Y-39397619D01*
X123190476Y-39492857D01*
X123238095Y-39683333D01*
X123238095Y-39921428D01*
X123190476Y-40111904D01*
X123142857Y-40207142D01*
X123095238Y-40254761D01*
X123000000Y-40302380D01*
X122904761Y-40302380D01*
X122809523Y-40254761D01*
X122761904Y-40207142D01*
X122714285Y-40111904D01*
X122666666Y-39921428D01*
X122666666Y-39683333D01*
X122714285Y-39492857D01*
X122761904Y-39397619D01*
X122809523Y-39350000D01*
X122904761Y-39302380D01*
X123857142Y-39302380D02*
X123952380Y-39302380D01*
X124047619Y-39350000D01*
X124095238Y-39397619D01*
X124142857Y-39492857D01*
X124190476Y-39683333D01*
X124190476Y-39921428D01*
X124142857Y-40111904D01*
X124095238Y-40207142D01*
X124047619Y-40254761D01*
X123952380Y-40302380D01*
X123857142Y-40302380D01*
X123761904Y-40254761D01*
X123714285Y-40207142D01*
X123666666Y-40111904D01*
X123619047Y-39921428D01*
X123619047Y-39683333D01*
X123666666Y-39492857D01*
X123714285Y-39397619D01*
X123761904Y-39350000D01*
X123857142Y-39302380D01*
X125380952Y-40302380D02*
X125380952Y-39635714D01*
X125380952Y-39730952D02*
X125428571Y-39683333D01*
X125523809Y-39635714D01*
X125666666Y-39635714D01*
X125761904Y-39683333D01*
X125809523Y-39778571D01*
X125809523Y-40302380D01*
X125809523Y-39778571D02*
X125857142Y-39683333D01*
X125952380Y-39635714D01*
X126095238Y-39635714D01*
X126190476Y-39683333D01*
X126238095Y-39778571D01*
X126238095Y-40302380D01*
X126714285Y-40302380D02*
X126714285Y-39635714D01*
X126714285Y-39730952D02*
X126761904Y-39683333D01*
X126857142Y-39635714D01*
X127000000Y-39635714D01*
X127095238Y-39683333D01*
X127142857Y-39778571D01*
X127142857Y-40302380D01*
X127142857Y-39778571D02*
X127190476Y-39683333D01*
X127285714Y-39635714D01*
X127428571Y-39635714D01*
X127523809Y-39683333D01*
X127571428Y-39778571D01*
X127571428Y-40302380D01*
D10*
X90000000Y-47500000D02*
X90000000Y-40413580D01*
X156000000Y-40413580D02*
X156000000Y-47500000D01*
X90000000Y-41000000D02*
X156000000Y-41000000D01*
X90000000Y-41000000D02*
X156000000Y-41000000D01*
X90000000Y-41000000D02*
X91126504Y-41586421D01*
X90000000Y-41000000D02*
X91126504Y-40413579D01*
X156000000Y-41000000D02*
X154873496Y-40413579D01*
X156000000Y-41000000D02*
X154873496Y-41586421D01*
D12*
X171302380Y-83142857D02*
X171302380Y-83333333D01*
X171350000Y-83428571D01*
X171397619Y-83476190D01*
X171540476Y-83571428D01*
X171730952Y-83619047D01*
X172111904Y-83619047D01*
X172207142Y-83571428D01*
X172254761Y-83523809D01*
X172302380Y-83428571D01*
X172302380Y-83238095D01*
X172254761Y-83142857D01*
X172207142Y-83095238D01*
X172111904Y-83047619D01*
X171873809Y-83047619D01*
X171778571Y-83095238D01*
X171730952Y-83142857D01*
X171683333Y-83238095D01*
X171683333Y-83428571D01*
X171730952Y-83523809D01*
X171778571Y-83571428D01*
X171873809Y-83619047D01*
X171397619Y-82666666D02*
X171350000Y-82619047D01*
X171302380Y-82523809D01*
X171302380Y-82285714D01*
X171350000Y-82190476D01*
X171397619Y-82142857D01*
X171492857Y-82095238D01*
X171588095Y-82095238D01*
X171730952Y-82142857D01*
X172302380Y-82714285D01*
X172302380Y-82095238D01*
X172207142Y-81666666D02*
X172254761Y-81619047D01*
X172302380Y-81666666D01*
X172254761Y-81714285D01*
X172207142Y-81666666D01*
X172302380Y-81666666D01*
X171302380Y-81000000D02*
X171302380Y-80904761D01*
X171350000Y-80809523D01*
X171397619Y-80761904D01*
X171492857Y-80714285D01*
X171683333Y-80666666D01*
X171921428Y-80666666D01*
X172111904Y-80714285D01*
X172207142Y-80761904D01*
X172254761Y-80809523D01*
X172302380Y-80904761D01*
X172302380Y-81000000D01*
X172254761Y-81095238D01*
X172207142Y-81142857D01*
X172111904Y-81190476D01*
X171921428Y-81238095D01*
X171683333Y-81238095D01*
X171492857Y-81190476D01*
X171397619Y-81142857D01*
X171350000Y-81095238D01*
X171302380Y-81000000D01*
X171302380Y-80047619D02*
X171302380Y-79952380D01*
X171350000Y-79857142D01*
X171397619Y-79809523D01*
X171492857Y-79761904D01*
X171683333Y-79714285D01*
X171921428Y-79714285D01*
X172111904Y-79761904D01*
X172207142Y-79809523D01*
X172254761Y-79857142D01*
X172302380Y-79952380D01*
X172302380Y-80047619D01*
X172254761Y-80142857D01*
X172207142Y-80190476D01*
X172111904Y-80238095D01*
X171921428Y-80285714D01*
X171683333Y-80285714D01*
X171492857Y-80238095D01*
X171397619Y-80190476D01*
X171350000Y-80142857D01*
X171302380Y-80047619D01*
X171302380Y-79095238D02*
X171302380Y-79000000D01*
X171350000Y-78904761D01*
X171397619Y-78857142D01*
X171492857Y-78809523D01*
X171683333Y-78761904D01*
X171921428Y-78761904D01*
X172111904Y-78809523D01*
X172207142Y-78857142D01*
X172254761Y-78904761D01*
X172302380Y-79000000D01*
X172302380Y-79095238D01*
X172254761Y-79190476D01*
X172207142Y-79238095D01*
X172111904Y-79285714D01*
X171921428Y-79333333D01*
X171683333Y-79333333D01*
X171492857Y-79285714D01*
X171397619Y-79238095D01*
X171350000Y-79190476D01*
X171302380Y-79095238D01*
X171302380Y-78142857D02*
X171302380Y-78047619D01*
X171350000Y-77952380D01*
X171397619Y-77904761D01*
X171492857Y-77857142D01*
X171683333Y-77809523D01*
X171921428Y-77809523D01*
X172111904Y-77857142D01*
X172207142Y-77904761D01*
X172254761Y-77952380D01*
X172302380Y-78047619D01*
X172302380Y-78142857D01*
X172254761Y-78238095D01*
X172207142Y-78285714D01*
X172111904Y-78333333D01*
X171921428Y-78380952D01*
X171683333Y-78380952D01*
X171492857Y-78333333D01*
X171397619Y-78285714D01*
X171350000Y-78238095D01*
X171302380Y-78142857D01*
X172302380Y-76619047D02*
X171635714Y-76619047D01*
X171730952Y-76619047D02*
X171683333Y-76571428D01*
X171635714Y-76476190D01*
X171635714Y-76333333D01*
X171683333Y-76238095D01*
X171778571Y-76190476D01*
X172302380Y-76190476D01*
X171778571Y-76190476D02*
X171683333Y-76142857D01*
X171635714Y-76047619D01*
X171635714Y-75904761D01*
X171683333Y-75809523D01*
X171778571Y-75761904D01*
X172302380Y-75761904D01*
X172302380Y-75285714D02*
X171635714Y-75285714D01*
X171730952Y-75285714D02*
X171683333Y-75238095D01*
X171635714Y-75142857D01*
X171635714Y-75000000D01*
X171683333Y-74904761D01*
X171778571Y-74857142D01*
X172302380Y-74857142D01*
X171778571Y-74857142D02*
X171683333Y-74809523D01*
X171635714Y-74714285D01*
X171635714Y-74571428D01*
X171683333Y-74476190D01*
X171778571Y-74428571D01*
X172302380Y-74428571D01*
D10*
X156500000Y-48000000D02*
X173586420Y-48000000D01*
X173586420Y-110000000D02*
X157500000Y-110000000D01*
X173000000Y-48000000D02*
X173000000Y-110000000D01*
X173000000Y-48000000D02*
X173000000Y-110000000D01*
X173000000Y-48000000D02*
X172413579Y-49126504D01*
X173000000Y-48000000D02*
X173586421Y-49126504D01*
X173000000Y-110000000D02*
X173586421Y-108873496D01*
X173000000Y-110000000D02*
X172413579Y-108873496D01*
M02*
