%TF.GenerationSoftware,KiCad,Pcbnew,6.0.2+dfsg-1*%
%TF.CreationDate,2024-07-06T12:30:45+10:00*%
%TF.ProjectId,ulx3s_mixer,756c7833-735f-46d6-9978-65722e6b6963,rev?*%
%TF.SameCoordinates,Original*%
%TF.FileFunction,Soldermask,Bot*%
%TF.FilePolarity,Negative*%
%FSLAX46Y46*%
G04 Gerber Fmt 4.6, Leading zero omitted, Abs format (unit mm)*
G04 Created by KiCad (PCBNEW 6.0.2+dfsg-1) date 2024-07-06 12:30:45*
%MOMM*%
%LPD*%
G01*
G04 APERTURE LIST*
%ADD10C,1.700000*%
%ADD11R,5.080000X1.500000*%
%ADD12R,1.700000X1.700000*%
%ADD13O,1.700000X1.700000*%
G04 APERTURE END LIST*
D10*
%TO.C,J3*%
X145500000Y-98500000D03*
X152500000Y-98500000D03*
%TD*%
D11*
%TO.C,J2*%
X152637500Y-73555000D03*
X152637500Y-82055000D03*
%TD*%
D12*
%TO.C,J1*%
X97725000Y-104125000D03*
D13*
X100265000Y-104125000D03*
X97725000Y-101585000D03*
X100265000Y-101585000D03*
X97725000Y-99045000D03*
X100265000Y-99045000D03*
X97725000Y-96505000D03*
X100265000Y-96505000D03*
X97725000Y-93965000D03*
X100265000Y-93965000D03*
X97725000Y-91425000D03*
X100265000Y-91425000D03*
X97725000Y-88885000D03*
X100265000Y-88885000D03*
X97725000Y-86345000D03*
X100265000Y-86345000D03*
X97725000Y-83805000D03*
X100265000Y-83805000D03*
X97725000Y-81265000D03*
X100265000Y-81265000D03*
X97725000Y-78725000D03*
X100265000Y-78725000D03*
X97725000Y-76185000D03*
X100265000Y-76185000D03*
X97725000Y-73645000D03*
X100265000Y-73645000D03*
X97725000Y-71105000D03*
X100265000Y-71105000D03*
X97725000Y-68565000D03*
X100265000Y-68565000D03*
X97725000Y-66025000D03*
X100265000Y-66025000D03*
X97725000Y-63485000D03*
X100265000Y-63485000D03*
X97725000Y-60945000D03*
X100265000Y-60945000D03*
X97725000Y-58405000D03*
X100265000Y-58405000D03*
X97725000Y-55865000D03*
X100265000Y-55865000D03*
%TD*%
M02*
